%TF.GenerationSoftware,KiCad,Pcbnew,7.0.7*%
%TF.CreationDate,2024-02-26T19:43:44+01:00*%
%TF.ProjectId,rpi_cm4_bb,7270695f-636d-4345-9f62-622e6b696361,rev?*%
%TF.SameCoordinates,Original*%
%TF.FileFunction,Soldermask,Bot*%
%TF.FilePolarity,Negative*%
%FSLAX46Y46*%
G04 Gerber Fmt 4.6, Leading zero omitted, Abs format (unit mm)*
G04 Created by KiCad (PCBNEW 7.0.7) date 2024-02-26 19:43:44*
%MOMM*%
%LPD*%
G01*
G04 APERTURE LIST*
G04 Aperture macros list*
%AMRoundRect*
0 Rectangle with rounded corners*
0 $1 Rounding radius*
0 $2 $3 $4 $5 $6 $7 $8 $9 X,Y pos of 4 corners*
0 Add a 4 corners polygon primitive as box body*
4,1,4,$2,$3,$4,$5,$6,$7,$8,$9,$2,$3,0*
0 Add four circle primitives for the rounded corners*
1,1,$1+$1,$2,$3*
1,1,$1+$1,$4,$5*
1,1,$1+$1,$6,$7*
1,1,$1+$1,$8,$9*
0 Add four rect primitives between the rounded corners*
20,1,$1+$1,$2,$3,$4,$5,0*
20,1,$1+$1,$4,$5,$6,$7,0*
20,1,$1+$1,$6,$7,$8,$9,0*
20,1,$1+$1,$8,$9,$2,$3,0*%
G04 Aperture macros list end*
%ADD10O,1.700000X1.300000*%
%ADD11O,1.400000X1.000000*%
%ADD12R,1.700000X1.700000*%
%ADD13O,1.700000X1.700000*%
%ADD14C,0.650000*%
%ADD15O,1.204000X2.304000*%
%ADD16RoundRect,0.352000X-0.250000X-0.650000X0.250000X-0.650000X0.250000X0.650000X-0.250000X0.650000X0*%
%ADD17C,6.100000*%
G04 APERTURE END LIST*
D10*
%TO.C,J2*%
X159774874Y-103967374D03*
D11*
X156744874Y-103667374D03*
X156744874Y-98817374D03*
D10*
X159774874Y-98517374D03*
%TD*%
D12*
%TO.C,J3*%
X86749874Y-133099874D03*
D13*
X84209874Y-133099874D03*
X86749874Y-130559874D03*
X84209874Y-130559874D03*
X86749874Y-128019874D03*
X84209874Y-128019874D03*
X86749874Y-125479874D03*
X84209874Y-125479874D03*
X86749874Y-122939874D03*
X84209874Y-122939874D03*
X86749874Y-120399874D03*
X84209874Y-120399874D03*
X86749874Y-117859874D03*
X84209874Y-117859874D03*
X86749874Y-115319874D03*
X84209874Y-115319874D03*
X86749874Y-112779874D03*
X84209874Y-112779874D03*
X86749874Y-110239874D03*
X84209874Y-110239874D03*
X86749874Y-107699874D03*
X84209874Y-107699874D03*
X86749874Y-105159874D03*
X84209874Y-105159874D03*
X86749874Y-102619874D03*
X84209874Y-102619874D03*
X86749874Y-100079874D03*
X84209874Y-100079874D03*
X86749874Y-97539874D03*
X84209874Y-97539874D03*
X86749874Y-94999874D03*
X84209874Y-94999874D03*
X86749874Y-92459874D03*
X84209874Y-92459874D03*
X86749874Y-89919874D03*
X84209874Y-89919874D03*
X86749874Y-87379874D03*
X84209874Y-87379874D03*
X86749874Y-84839874D03*
X84209874Y-84839874D03*
%TD*%
D14*
%TO.C,J1*%
X94883674Y-129960474D03*
X100663674Y-129960474D03*
D15*
X93453674Y-129460474D03*
X102093674Y-129460474D03*
D16*
X93453674Y-133640474D03*
X102093674Y-133640474D03*
%TD*%
D17*
%TO.C,U3*%
X108350000Y-84850000D03*
X108350000Y-132850000D03*
X141350000Y-84850000D03*
X141350000Y-132850000D03*
%TD*%
M02*
