M48
; DRILL file {KiCad 7.0.7} date Mon Feb 26 19:43:46 2024
; FORMAT={-:-/ absolute / inch / decimal}
; #@! TF.CreationDate,2024-02-26T19:43:46+01:00
; #@! TF.GenerationSoftware,Kicad,Pcbnew,7.0.7
; #@! TF.FileFunction,Plated,1,4,PTH
FMAT,2
INCH
; #@! TA.AperFunction,Plated,PTH,ViaDrill
T1C0.0096
; #@! TA.AperFunction,Plated,PTH,ComponentDrill
T2C0.0236
; #@! TA.AperFunction,Plated,PTH,ComponentDrill
T3C0.0256
; #@! TA.AperFunction,Plated,PTH,ComponentDrill
T4C0.0276
; #@! TA.AperFunction,Plated,PTH,ComponentDrill
T5C0.0394
%
G90
G05
T1
X3.4874Y-3.4974
X3.4874Y-3.7074
X3.5574Y-4.1074
X3.6574Y-3.8974
X3.6574Y-4.2674
X3.6574Y-4.4374
X3.6574Y-4.5974
X3.6574Y-4.7674
X3.6694Y-4.9434
X3.6694Y-4.9714
X3.6929Y-4.9434
X3.6934Y-4.9714
X3.8301Y-5.1502
X3.8514Y-5.0154
X3.8974Y-3.5211
X3.9762Y-3.8152
X4.0014Y-3.9715
X4.0274Y-3.5222
X4.2294Y-4.3742
X4.2314Y-4.2774
X4.2354Y-4.7374
X4.2414Y-4.1034
X4.2505Y-4.4469
X4.2609Y-4.396
X4.2654Y-4.4234
X4.3414Y-4.5974
X4.3414Y-4.6434
X4.3794Y-4.1694
X4.4014Y-4.3954
X4.4054Y-4.2454
X4.4094Y-4.1754
X4.4114Y-4.2734
X4.4259Y-4.3821
X4.4374Y-4.1754
X4.4426Y-4.3598
X4.455Y-4.2754
X4.8374Y-3.2274
X4.8374Y-3.2674
X4.8374Y-3.3074
X4.8374Y-3.3474
X4.8374Y-3.3874
X4.8374Y-3.4274
X4.8374Y-3.4674
X4.8774Y-3.4874
X4.9174Y-3.4874
X4.9574Y-3.4874
X4.9974Y-3.4874
X5.0374Y-3.4874
X5.0774Y-3.4874
X5.1174Y-3.4874
X5.1574Y-3.4874
X5.1974Y-3.4874
X5.2374Y-3.4874
X5.2774Y-3.4874
X5.3174Y-3.2274
X5.3174Y-3.2674
X5.3174Y-3.3074
X5.3174Y-3.3474
X5.3174Y-3.3874
X5.3174Y-3.4274
X5.3174Y-3.4674
X6.0982Y-4.0002
T5
X3.3153Y-3.3402
X3.3153Y-3.4402
X3.3153Y-3.5402
X3.3153Y-3.6402
X3.3153Y-3.7402
X3.3153Y-3.8402
X3.3153Y-3.9402
X3.3153Y-4.0402
X3.3153Y-4.1402
X3.3153Y-4.2402
X3.3153Y-4.3402
X3.3153Y-4.4402
X3.3153Y-4.5402
X3.3153Y-4.6402
X3.3153Y-4.7402
X3.3153Y-4.8402
X3.3153Y-4.9402
X3.3153Y-5.0402
X3.3153Y-5.1402
X3.3153Y-5.2402
X3.4153Y-3.3402
X3.4153Y-3.4402
X3.4153Y-3.5402
X3.4153Y-3.6402
X3.4153Y-3.7402
X3.4153Y-3.8402
X3.4153Y-3.9402
X3.4153Y-4.0402
X3.4153Y-4.1402
X3.4153Y-4.2402
X3.4153Y-4.3402
X3.4153Y-4.4402
X3.4153Y-4.5402
X3.4153Y-4.6402
X3.4153Y-4.7402
X3.4153Y-4.8402
X3.4153Y-4.9402
X3.4153Y-5.0402
X3.4153Y-5.1402
X3.4153Y-5.2402
T2
G00X3.6793Y-5.0752
M15
G01X3.6793Y-5.1185
M16
G05
G00X3.6793Y-5.2457
M15
G01X3.6793Y-5.2772
M16
G05
G00X4.0194Y-5.0752
M15
G01X4.0194Y-5.1185
M16
G05
G00X4.0194Y-5.2457
M15
G01X4.0194Y-5.2772
M16
G05
T3
G00X6.1789Y-3.8904
M15
G01X6.1632Y-3.8904
M16
G05
G00X6.1789Y-4.0814
M15
G01X6.1632Y-4.0814
M16
G05
T4
G00X6.3002Y-3.8786
M15
G01X6.2805Y-3.8786
M16
G05
G00X6.3002Y-4.0932
M15
G01X6.2805Y-4.0932
M16
G05
T0
M30
