%TF.GenerationSoftware,KiCad,Pcbnew,7.0.7*%
%TF.CreationDate,2024-02-26T19:43:43+01:00*%
%TF.ProjectId,rpi_cm4_bb,7270695f-636d-4345-9f62-622e6b696361,rev?*%
%TF.SameCoordinates,Original*%
%TF.FileFunction,Copper,L4,Bot*%
%TF.FilePolarity,Positive*%
%FSLAX46Y46*%
G04 Gerber Fmt 4.6, Leading zero omitted, Abs format (unit mm)*
G04 Created by KiCad (PCBNEW 7.0.7) date 2024-02-26 19:43:43*
%MOMM*%
%LPD*%
G01*
G04 APERTURE LIST*
G04 Aperture macros list*
%AMRoundRect*
0 Rectangle with rounded corners*
0 $1 Rounding radius*
0 $2 $3 $4 $5 $6 $7 $8 $9 X,Y pos of 4 corners*
0 Add a 4 corners polygon primitive as box body*
4,1,4,$2,$3,$4,$5,$6,$7,$8,$9,$2,$3,0*
0 Add four circle primitives for the rounded corners*
1,1,$1+$1,$2,$3*
1,1,$1+$1,$4,$5*
1,1,$1+$1,$6,$7*
1,1,$1+$1,$8,$9*
0 Add four rect primitives between the rounded corners*
20,1,$1+$1,$2,$3,$4,$5,0*
20,1,$1+$1,$4,$5,$6,$7,0*
20,1,$1+$1,$6,$7,$8,$9,0*
20,1,$1+$1,$8,$9,$2,$3,0*%
G04 Aperture macros list end*
%TA.AperFunction,ComponentPad*%
%ADD10O,1.700000X1.300000*%
%TD*%
%TA.AperFunction,ComponentPad*%
%ADD11O,1.400000X1.000000*%
%TD*%
%TA.AperFunction,ComponentPad*%
%ADD12R,1.700000X1.700000*%
%TD*%
%TA.AperFunction,ComponentPad*%
%ADD13O,1.700000X1.700000*%
%TD*%
%TA.AperFunction,ComponentPad*%
%ADD14O,1.000000X2.100000*%
%TD*%
%TA.AperFunction,ComponentPad*%
%ADD15RoundRect,0.250000X-0.250000X-0.650000X0.250000X-0.650000X0.250000X0.650000X-0.250000X0.650000X0*%
%TD*%
%TA.AperFunction,ViaPad*%
%ADD16C,0.508000*%
%TD*%
%TA.AperFunction,Conductor*%
%ADD17C,0.200000*%
%TD*%
G04 APERTURE END LIST*
D10*
%TO.P,J2,6,Shield*%
%TO.N,GND*%
X159774874Y-103967374D03*
D11*
X156744874Y-103667374D03*
X156744874Y-98817374D03*
D10*
X159774874Y-98517374D03*
%TD*%
D12*
%TO.P,J3,1,Pin_1*%
%TO.N,+3.3V*%
X86749874Y-133099874D03*
D13*
%TO.P,J3,2,Pin_2*%
%TO.N,+5V*%
X84209874Y-133099874D03*
%TO.P,J3,3,Pin_3*%
%TO.N,/CM4 GPIO/GPIO2*%
X86749874Y-130559874D03*
%TO.P,J3,4,Pin_4*%
%TO.N,+5V*%
X84209874Y-130559874D03*
%TO.P,J3,5,Pin_5*%
%TO.N,/CM4 GPIO/GPIO3*%
X86749874Y-128019874D03*
%TO.P,J3,6,Pin_6*%
%TO.N,GND*%
X84209874Y-128019874D03*
%TO.P,J3,7,Pin_7*%
%TO.N,/CM4 GPIO/GPIO4*%
X86749874Y-125479874D03*
%TO.P,J3,8,Pin_8*%
%TO.N,/CM4 GPIO/GPIO14*%
X84209874Y-125479874D03*
%TO.P,J3,9,Pin_9*%
%TO.N,GND*%
X86749874Y-122939874D03*
%TO.P,J3,10,Pin_10*%
%TO.N,/CM4 GPIO/GPIO15*%
X84209874Y-122939874D03*
%TO.P,J3,11,Pin_11*%
%TO.N,/CM4 GPIO/GPIO17*%
X86749874Y-120399874D03*
%TO.P,J3,12,Pin_12*%
%TO.N,/CM4 GPIO/GPIO18*%
X84209874Y-120399874D03*
%TO.P,J3,13,Pin_13*%
%TO.N,/CM4 GPIO/GPIO27*%
X86749874Y-117859874D03*
%TO.P,J3,14,Pin_14*%
%TO.N,GND*%
X84209874Y-117859874D03*
%TO.P,J3,15,Pin_15*%
%TO.N,/CM4 GPIO/GPIO22*%
X86749874Y-115319874D03*
%TO.P,J3,16,Pin_16*%
%TO.N,/CM4 GPIO/GPIO23*%
X84209874Y-115319874D03*
%TO.P,J3,17,Pin_17*%
%TO.N,+3.3V*%
X86749874Y-112779874D03*
%TO.P,J3,18,Pin_18*%
%TO.N,/CM4 GPIO/GPIO24*%
X84209874Y-112779874D03*
%TO.P,J3,19,Pin_19*%
%TO.N,/CM4 GPIO/GPIO10*%
X86749874Y-110239874D03*
%TO.P,J3,20,Pin_20*%
%TO.N,GND*%
X84209874Y-110239874D03*
%TO.P,J3,21,Pin_21*%
%TO.N,/CM4 GPIO/GPIO9*%
X86749874Y-107699874D03*
%TO.P,J3,22,Pin_22*%
%TO.N,/CM4 GPIO/GPIO25*%
X84209874Y-107699874D03*
%TO.P,J3,23,Pin_23*%
%TO.N,/CM4 GPIO/GPIO11*%
X86749874Y-105159874D03*
%TO.P,J3,24,Pin_24*%
%TO.N,/CM4 GPIO/GPIO8*%
X84209874Y-105159874D03*
%TO.P,J3,25,Pin_25*%
%TO.N,GND*%
X86749874Y-102619874D03*
%TO.P,J3,26,Pin_26*%
%TO.N,/CM4 GPIO/GPIO7*%
X84209874Y-102619874D03*
%TO.P,J3,27,Pin_27*%
%TO.N,/CM4 GPIO/ID_SD*%
X86749874Y-100079874D03*
%TO.P,J3,28,Pin_28*%
%TO.N,/CM4 GPIO/ID_SC*%
X84209874Y-100079874D03*
%TO.P,J3,29,Pin_29*%
%TO.N,/CM4 GPIO/GPIO5*%
X86749874Y-97539874D03*
%TO.P,J3,30,Pin_30*%
%TO.N,GND*%
X84209874Y-97539874D03*
%TO.P,J3,31,Pin_31*%
%TO.N,/CM4 GPIO/GPIO6*%
X86749874Y-94999874D03*
%TO.P,J3,32,Pin_32*%
%TO.N,/CM4 GPIO/GPIO12*%
X84209874Y-94999874D03*
%TO.P,J3,33,Pin_33*%
%TO.N,/CM4 GPIO/GPIO13*%
X86749874Y-92459874D03*
%TO.P,J3,34,Pin_34*%
%TO.N,GND*%
X84209874Y-92459874D03*
%TO.P,J3,35,Pin_35*%
%TO.N,/CM4 GPIO/GPIO19*%
X86749874Y-89919874D03*
%TO.P,J3,36,Pin_36*%
%TO.N,/CM4 GPIO/GPIO16*%
X84209874Y-89919874D03*
%TO.P,J3,37,Pin_37*%
%TO.N,/CM4 GPIO/GPIO26*%
X86749874Y-87379874D03*
%TO.P,J3,38,Pin_38*%
%TO.N,/CM4 GPIO/GPIO20*%
X84209874Y-87379874D03*
%TO.P,J3,39,Pin_39*%
%TO.N,GND*%
X86749874Y-84839874D03*
%TO.P,J3,40,Pin_40*%
%TO.N,/CM4 GPIO/GPIO21*%
X84209874Y-84839874D03*
%TD*%
D14*
%TO.P,J1,SH1,SHELL_GND*%
%TO.N,GND*%
X93453674Y-129460474D03*
%TO.P,J1,SH2,SHELL_GND*%
X102093674Y-129460474D03*
D15*
%TO.P,J1,SH3,SHELL_GND*%
X93453674Y-133640474D03*
%TO.P,J1,SH4,SHELL_GND*%
X102093674Y-133640474D03*
%TD*%
D16*
%TO.N,+3.3V*%
X100994874Y-96904874D03*
X110272474Y-117943274D03*
X102294874Y-89464874D03*
X98994874Y-89434874D03*
X110272474Y-116774874D03*
%TO.N,GND*%
X127950874Y-88580874D03*
X130998874Y-88580874D03*
X122870874Y-88072874D03*
X90358874Y-104328874D03*
X128966874Y-88580874D03*
X135062874Y-82992874D03*
X135062874Y-88072874D03*
X135062874Y-87056874D03*
X125918874Y-88580874D03*
X135062874Y-86040874D03*
X88580874Y-94168874D03*
X135062874Y-81976874D03*
X92898874Y-108392874D03*
X135062874Y-84008874D03*
X92898874Y-121092874D03*
X122870874Y-84008874D03*
X92898874Y-116774874D03*
X134046874Y-88580874D03*
X132014874Y-88580874D03*
X122870874Y-85024874D03*
X97284874Y-130814874D03*
X122870874Y-87056874D03*
X92898874Y-98994874D03*
X122870874Y-81976874D03*
X124902874Y-88580874D03*
X92898874Y-112710874D03*
X122870874Y-82992874D03*
X133030874Y-88580874D03*
X122870874Y-86040874D03*
X154894874Y-101604874D03*
X129982874Y-88580874D03*
X88580874Y-88834874D03*
X123886874Y-88580874D03*
X126934874Y-88580874D03*
X135062874Y-85024874D03*
X97826474Y-127392074D03*
%TO.N,/CM4 GPIO/GPIO2*%
X107962233Y-112952167D03*
%TO.N,/CM4 GPIO/GPIO3*%
X108342074Y-112355274D03*
%TO.N,/CM4 GPIO/GPIO4*%
X108225761Y-111657398D03*
%TO.N,/CM4 GPIO/GPIO17*%
X107427674Y-111103898D03*
%TO.N,/CM4 GPIO/GPIO27*%
X111796474Y-111644074D03*
%TO.N,/CM4 GPIO/GPIO22*%
X112417587Y-111305285D03*
%TO.N,/CM4 GPIO/GPIO10*%
X112842970Y-110739945D03*
%TO.N,/CM4 GPIO/GPIO9*%
X107478474Y-108646874D03*
%TO.N,/CM4 GPIO/GPIO11*%
X113157974Y-108596074D03*
%TO.N,/CM4 GPIO/ID_SD*%
X112050474Y-108545274D03*
%TO.N,/CM4 GPIO/GPIO5*%
X111898074Y-107834074D03*
%TO.N,/CM4 GPIO/GPIO6*%
X112710874Y-106056074D03*
%TO.N,/CM4 GPIO/GPIO13*%
X111999674Y-106056074D03*
%TO.N,/CM4 GPIO/GPIO19*%
X111237674Y-105903674D03*
%TO.N,/CM4 GPIO/GPIO26*%
X107732474Y-104227274D03*
%TO.N,/CM4 GPIO/nLED_PWR*%
X101634874Y-100874874D03*
X107580074Y-120330874D03*
%TD*%
D17*
%TO.N,/CM4 GPIO/GPIO2*%
X102969981Y-112952167D02*
X107962233Y-112952167D01*
X91324074Y-124445674D02*
X98537674Y-124445674D01*
X98537674Y-124445674D02*
X100569674Y-122413674D01*
X88834874Y-129474874D02*
X88834874Y-126934874D01*
X100569674Y-122413674D02*
X100569674Y-115352474D01*
X100569674Y-115352474D02*
X102969981Y-112952167D01*
X88834874Y-126934874D02*
X91324074Y-124445674D01*
X87056874Y-130490874D02*
X87818874Y-130490874D01*
X87818874Y-130490874D02*
X88834874Y-129474874D01*
%TO.N,/CM4 GPIO/GPIO3*%
X98359874Y-123886874D02*
X91247874Y-123886874D01*
X87114874Y-128019874D02*
X86749874Y-128019874D01*
X100010874Y-115123874D02*
X100010874Y-122235874D01*
X108342074Y-112355274D02*
X102779474Y-112355274D01*
X91247874Y-123886874D02*
X87114874Y-128019874D01*
X102779474Y-112355274D02*
X100010874Y-115123874D01*
X100010874Y-122235874D02*
X98359874Y-123886874D01*
%TO.N,/CM4 GPIO/GPIO4*%
X99401274Y-122058074D02*
X98232874Y-123226474D01*
X88816674Y-125479874D02*
X86749874Y-125479874D01*
X99401274Y-114996874D02*
X99401274Y-122058074D01*
X108225761Y-111657398D02*
X102740750Y-111657398D01*
X98232874Y-123226474D02*
X91070074Y-123226474D01*
X102740750Y-111657398D02*
X99401274Y-114996874D01*
X91070074Y-123226474D02*
X88816674Y-125479874D01*
%TO.N,/CM4 GPIO/GPIO17*%
X98944074Y-114692074D02*
X98944074Y-117486074D01*
X102532250Y-111103898D02*
X107427674Y-111103898D01*
X98944074Y-114692074D02*
X102532250Y-111103898D01*
X98944074Y-117486074D02*
X96030274Y-120399874D01*
X96030274Y-120399874D02*
X86749874Y-120399874D01*
%TO.N,/CM4 GPIO/GPIO27*%
X96995474Y-117859874D02*
X98232874Y-116622474D01*
X107697461Y-110396747D02*
X108081188Y-110780474D01*
X108081188Y-110780474D02*
X110113188Y-110780474D01*
X110113188Y-110780474D02*
X110976788Y-111644074D01*
X98232874Y-116622474D02*
X98232874Y-114692074D01*
X86749874Y-117859874D02*
X96995474Y-117859874D01*
X110976788Y-111644074D02*
X111796474Y-111644074D01*
X98232874Y-114692074D02*
X102528201Y-110396747D01*
X102528201Y-110396747D02*
X107697461Y-110396747D01*
%TO.N,/CM4 GPIO/GPIO22*%
X86749874Y-115319874D02*
X96893874Y-115319874D01*
X110983674Y-111085274D02*
X112197576Y-111085274D01*
X112197576Y-111085274D02*
X112417587Y-111305285D01*
X108240474Y-110374074D02*
X110272474Y-110374074D01*
X110272474Y-110374074D02*
X110983674Y-111085274D01*
X102371001Y-109842747D02*
X107709147Y-109842747D01*
X96893874Y-115319874D02*
X102371001Y-109842747D01*
X107709147Y-109842747D02*
X108240474Y-110374074D01*
%TO.N,/CM4 GPIO/GPIO10*%
X112731099Y-110628074D02*
X112842970Y-110739945D01*
X86749874Y-110239874D02*
X101408189Y-110239874D01*
X108545274Y-109967674D02*
X110678874Y-109967674D01*
X102402996Y-109245066D02*
X107822666Y-109245066D01*
X111339274Y-110628074D02*
X112731099Y-110628074D01*
X101408189Y-110239874D02*
X102402996Y-109245066D01*
X107822666Y-109245066D02*
X108545274Y-109967674D01*
X110678874Y-109967674D02*
X111339274Y-110628074D01*
%TO.N,/CM4 GPIO/GPIO9*%
X101553074Y-107699874D02*
X86749874Y-107699874D01*
X107478474Y-108646874D02*
X102500074Y-108646874D01*
X102500074Y-108646874D02*
X101553074Y-107699874D01*
%TO.N,/CM4 GPIO/GPIO11*%
X112654774Y-109099274D02*
X109420599Y-109099274D01*
X99578760Y-105159874D02*
X102437825Y-108018939D01*
X109420599Y-109099274D02*
X108340264Y-108018939D01*
X113157974Y-108596074D02*
X112654774Y-109099274D01*
X86749874Y-105159874D02*
X99578760Y-105159874D01*
X108340264Y-108018939D02*
X102437825Y-108018939D01*
%TO.N,/CM4 GPIO/ID_SD*%
X99922309Y-104532074D02*
X93000474Y-104532074D01*
X102855674Y-107465439D02*
X99922309Y-104532074D01*
X93000474Y-104532074D02*
X88548274Y-100079874D01*
X88548274Y-100079874D02*
X86749874Y-100079874D01*
X108352450Y-107465439D02*
X102855674Y-107465439D01*
X112050474Y-108545274D02*
X109432285Y-108545274D01*
X109432285Y-108545274D02*
X108352450Y-107465439D01*
%TO.N,/CM4 GPIO/GPIO5*%
X89100189Y-97539874D02*
X86749874Y-97539874D01*
X109286771Y-107834074D02*
X108518135Y-107065439D01*
X103255439Y-107065439D02*
X100112474Y-103922474D01*
X111898074Y-107834074D02*
X109286771Y-107834074D01*
X95482789Y-103922474D02*
X89100189Y-97539874D01*
X108518135Y-107065439D02*
X103255439Y-107065439D01*
X100112474Y-103922474D02*
X95482789Y-103922474D01*
%TO.N,/CM4 GPIO/GPIO6*%
X98283674Y-103211274D02*
X90072274Y-94999874D01*
X103668239Y-106665439D02*
X100214074Y-103211274D01*
X90072274Y-94999874D02*
X86749874Y-94999874D01*
X110678874Y-106868874D02*
X110380474Y-107167274D01*
X109185655Y-107167274D02*
X108683820Y-106665439D01*
X111970349Y-106868874D02*
X110678874Y-106868874D01*
X100214074Y-103211274D02*
X98283674Y-103211274D01*
X110380474Y-107167274D02*
X109185655Y-107167274D01*
X112710874Y-106056074D02*
X112710874Y-106128349D01*
X112710874Y-106128349D02*
X111970349Y-106868874D01*
X108683820Y-106665439D02*
X103668239Y-106665439D01*
%TO.N,/CM4 GPIO/GPIO13*%
X103409968Y-105594368D02*
X100366474Y-102550874D01*
X98436074Y-102550874D02*
X88345074Y-92459874D01*
X111593274Y-106462474D02*
X110475674Y-106462474D01*
X110170874Y-106767274D02*
X109351340Y-106767274D01*
X108178434Y-105594368D02*
X103409968Y-105594368D01*
X88345074Y-92459874D02*
X86749874Y-92459874D01*
X100366474Y-102550874D02*
X98436074Y-102550874D01*
X111999674Y-106056074D02*
X111593274Y-106462474D01*
X109351340Y-106767274D02*
X108178434Y-105594368D01*
X110475674Y-106462474D02*
X110170874Y-106767274D01*
%TO.N,/CM4 GPIO/GPIO19*%
X86749874Y-89919874D02*
X98771274Y-101941274D01*
X108951674Y-104887674D02*
X109967674Y-105903674D01*
X100569674Y-101941274D02*
X103516074Y-104887674D01*
X109967674Y-105903674D02*
X111237674Y-105903674D01*
X103516074Y-104887674D02*
X108951674Y-104887674D01*
X98771274Y-101941274D02*
X100569674Y-101941274D01*
%TO.N,/CM4 GPIO/GPIO26*%
X88954674Y-87379874D02*
X86749874Y-87379874D01*
X107732474Y-104227274D02*
X103668474Y-104227274D01*
X99096474Y-101280874D02*
X90104874Y-92289274D01*
X103668474Y-104227274D02*
X100722074Y-101280874D01*
X90104874Y-88530074D02*
X88954674Y-87379874D01*
X90104874Y-92289274D02*
X90104874Y-88530074D01*
X100722074Y-101280874D02*
X99096474Y-101280874D01*
%TO.N,/CM4 GPIO/nLED_PWR*%
X101634874Y-101274874D02*
X101634874Y-100874874D01*
X103774474Y-103414474D02*
X101634874Y-101274874D01*
X107681674Y-120229274D02*
X107681674Y-114742874D01*
X112761674Y-103414474D02*
X103774474Y-103414474D01*
X107681674Y-114742874D02*
X108545274Y-113879274D01*
X107580074Y-120330874D02*
X107681674Y-120229274D01*
X114438074Y-111339274D02*
X114438074Y-105090874D01*
X108545274Y-113879274D02*
X111898074Y-113879274D01*
X114438074Y-105090874D02*
X112761674Y-103414474D01*
X111898074Y-113879274D02*
X114438074Y-111339274D01*
%TD*%
%TA.AperFunction,Conductor*%
%TO.N,GND*%
G36*
X99062822Y-117896304D02*
G01*
X99097741Y-117946174D01*
X99100774Y-117969209D01*
X99100774Y-121896737D01*
X99079952Y-121953945D01*
X99074707Y-121959670D01*
X98134470Y-122899907D01*
X98079294Y-122925635D01*
X98071537Y-122925974D01*
X91133609Y-122925974D01*
X91120612Y-122923855D01*
X91120475Y-122924840D01*
X91112310Y-122923700D01*
X91080673Y-122925163D01*
X91064145Y-122925927D01*
X91062113Y-122925974D01*
X91042230Y-122925974D01*
X91042227Y-122925974D01*
X91042218Y-122925975D01*
X91038394Y-122926690D01*
X91032271Y-122927400D01*
X91008218Y-122928512D01*
X91000082Y-122928889D01*
X90990025Y-122933329D01*
X90970442Y-122939393D01*
X90959641Y-122941412D01*
X90959637Y-122941414D01*
X90932238Y-122958377D01*
X90926784Y-122961252D01*
X90897310Y-122974266D01*
X90889538Y-122982038D01*
X90873466Y-122994768D01*
X90864124Y-123000552D01*
X90864122Y-123000554D01*
X90844699Y-123026272D01*
X90840650Y-123030925D01*
X88718271Y-125153306D01*
X88663095Y-125179035D01*
X88655338Y-125179374D01*
X87822495Y-125179374D01*
X87765287Y-125158552D01*
X87737327Y-125116208D01*
X87725107Y-125075924D01*
X87725106Y-125075920D01*
X87627559Y-124893424D01*
X87496284Y-124733464D01*
X87336324Y-124602189D01*
X87153828Y-124504642D01*
X87153827Y-124504641D01*
X87153824Y-124504640D01*
X86967802Y-124448212D01*
X86919101Y-124411680D01*
X86905277Y-124352391D01*
X86932797Y-124298086D01*
X86981572Y-124276313D01*
X86981362Y-124275119D01*
X86985197Y-124274442D01*
X87213360Y-124213306D01*
X87213369Y-124213303D01*
X87427447Y-124113477D01*
X87427449Y-124113475D01*
X87620949Y-123977985D01*
X87787985Y-123810949D01*
X87923475Y-123617449D01*
X87923477Y-123617447D01*
X88023303Y-123403369D01*
X88023306Y-123403360D01*
X88080510Y-123189874D01*
X87316466Y-123189874D01*
X87259258Y-123169052D01*
X87228818Y-123116329D01*
X87231071Y-123075800D01*
X87249874Y-123011763D01*
X87249874Y-122867985D01*
X87231071Y-122803947D01*
X87234932Y-122743191D01*
X87276944Y-122699130D01*
X87316466Y-122689874D01*
X88080510Y-122689874D01*
X88080510Y-122689873D01*
X88023306Y-122476387D01*
X88023303Y-122476378D01*
X87923477Y-122262301D01*
X87923475Y-122262299D01*
X87787985Y-122068798D01*
X87620949Y-121901762D01*
X87427449Y-121766272D01*
X87427447Y-121766270D01*
X87213369Y-121666444D01*
X87213360Y-121666441D01*
X86985197Y-121605305D01*
X86981362Y-121604629D01*
X86981585Y-121603364D01*
X86930699Y-121579630D01*
X86904975Y-121524453D01*
X86920737Y-121465649D01*
X86967800Y-121431536D01*
X87153828Y-121375106D01*
X87336324Y-121277559D01*
X87496284Y-121146284D01*
X87627559Y-120986324D01*
X87725106Y-120803828D01*
X87737327Y-120763539D01*
X87773858Y-120714839D01*
X87822495Y-120700374D01*
X95966740Y-120700374D01*
X95979736Y-120702492D01*
X95979874Y-120701508D01*
X95988038Y-120702647D01*
X95988038Y-120702646D01*
X95988039Y-120702647D01*
X96036203Y-120700420D01*
X96038236Y-120700374D01*
X96058117Y-120700374D01*
X96058118Y-120700374D01*
X96061946Y-120699657D01*
X96068076Y-120698946D01*
X96100266Y-120697459D01*
X96110314Y-120693021D01*
X96129908Y-120686953D01*
X96140707Y-120684935D01*
X96168109Y-120667967D01*
X96173542Y-120665103D01*
X96203039Y-120652080D01*
X96210806Y-120644312D01*
X96226885Y-120631576D01*
X96236226Y-120625793D01*
X96255651Y-120600068D01*
X96259688Y-120595429D01*
X98948843Y-117906275D01*
X99004017Y-117880548D01*
X99062822Y-117896304D01*
G37*
%TD.AperFunction*%
%TA.AperFunction,Conductor*%
G36*
X88444146Y-100401196D02*
G01*
X88449870Y-100406441D01*
X90663298Y-102619870D01*
X92743063Y-104699635D01*
X92750751Y-104710319D01*
X92751545Y-104709720D01*
X92756845Y-104716738D01*
X92757941Y-104720309D01*
X92759795Y-104722886D01*
X92760188Y-104723675D01*
X92759134Y-104724199D01*
X92774706Y-104774939D01*
X92750977Y-104831004D01*
X92696762Y-104858699D01*
X92685823Y-104859374D01*
X87822495Y-104859374D01*
X87765287Y-104838552D01*
X87737327Y-104796208D01*
X87725106Y-104755920D01*
X87627559Y-104573424D01*
X87496284Y-104413464D01*
X87336324Y-104282189D01*
X87153828Y-104184642D01*
X87153827Y-104184641D01*
X87153824Y-104184640D01*
X86967802Y-104128212D01*
X86919101Y-104091680D01*
X86905277Y-104032391D01*
X86932797Y-103978086D01*
X86981572Y-103956313D01*
X86981362Y-103955119D01*
X86985197Y-103954442D01*
X87213360Y-103893306D01*
X87213369Y-103893303D01*
X87427447Y-103793477D01*
X87427449Y-103793475D01*
X87620949Y-103657985D01*
X87787985Y-103490949D01*
X87923475Y-103297449D01*
X87923477Y-103297447D01*
X88023303Y-103083369D01*
X88023306Y-103083360D01*
X88080510Y-102869874D01*
X87316466Y-102869874D01*
X87259258Y-102849052D01*
X87228818Y-102796329D01*
X87231071Y-102755800D01*
X87234630Y-102743678D01*
X87249874Y-102691763D01*
X87249874Y-102547985D01*
X87231071Y-102483947D01*
X87234932Y-102423191D01*
X87276944Y-102379130D01*
X87316466Y-102369874D01*
X88080510Y-102369874D01*
X88080510Y-102369873D01*
X88023306Y-102156387D01*
X88023303Y-102156378D01*
X87923477Y-101942301D01*
X87923475Y-101942299D01*
X87787985Y-101748798D01*
X87620949Y-101581762D01*
X87427449Y-101446272D01*
X87427447Y-101446270D01*
X87213369Y-101346444D01*
X87213360Y-101346441D01*
X86985197Y-101285305D01*
X86981362Y-101284629D01*
X86981585Y-101283364D01*
X86930699Y-101259630D01*
X86904975Y-101204453D01*
X86920737Y-101145649D01*
X86967800Y-101111536D01*
X87153828Y-101055106D01*
X87336324Y-100957559D01*
X87496284Y-100826284D01*
X87627559Y-100666324D01*
X87725106Y-100483828D01*
X87737327Y-100443539D01*
X87773858Y-100394839D01*
X87822495Y-100380374D01*
X88386938Y-100380374D01*
X88444146Y-100401196D01*
G37*
%TD.AperFunction*%
%TA.AperFunction,Conductor*%
G36*
X85684076Y-92630721D02*
G01*
X85718212Y-92677802D01*
X85774640Y-92863824D01*
X85774641Y-92863827D01*
X85774642Y-92863828D01*
X85872189Y-93046324D01*
X86003464Y-93206284D01*
X86163424Y-93337559D01*
X86345920Y-93435106D01*
X86543940Y-93495174D01*
X86543944Y-93495174D01*
X86543947Y-93495175D01*
X86749870Y-93515457D01*
X86749874Y-93515457D01*
X86749878Y-93515457D01*
X86955800Y-93495175D01*
X86955801Y-93495174D01*
X86955808Y-93495174D01*
X87153828Y-93435106D01*
X87336324Y-93337559D01*
X87496284Y-93206284D01*
X87627559Y-93046324D01*
X87725106Y-92863828D01*
X87737327Y-92823539D01*
X87773858Y-92774839D01*
X87822495Y-92760374D01*
X88183737Y-92760374D01*
X88240945Y-92781196D01*
X88246670Y-92786441D01*
X90007670Y-94547441D01*
X90033398Y-94602617D01*
X90017642Y-94661422D01*
X89967772Y-94696341D01*
X89944737Y-94699374D01*
X87822495Y-94699374D01*
X87765287Y-94678552D01*
X87737327Y-94636208D01*
X87725107Y-94595924D01*
X87725106Y-94595920D01*
X87627559Y-94413424D01*
X87496284Y-94253464D01*
X87336324Y-94122189D01*
X87153828Y-94024642D01*
X87153827Y-94024641D01*
X87153824Y-94024640D01*
X86955808Y-93964574D01*
X86955800Y-93964572D01*
X86749878Y-93944291D01*
X86749870Y-93944291D01*
X86543947Y-93964572D01*
X86543939Y-93964574D01*
X86345923Y-94024640D01*
X86163422Y-94122190D01*
X86003468Y-94253460D01*
X86003460Y-94253468D01*
X85872190Y-94413422D01*
X85774640Y-94595923D01*
X85714574Y-94793939D01*
X85714572Y-94793947D01*
X85694291Y-94999870D01*
X85694291Y-94999877D01*
X85714572Y-95205800D01*
X85714574Y-95205808D01*
X85774640Y-95403824D01*
X85774641Y-95403827D01*
X85774642Y-95403828D01*
X85872189Y-95586324D01*
X86003464Y-95746284D01*
X86163424Y-95877559D01*
X86345920Y-95975106D01*
X86543940Y-96035174D01*
X86543944Y-96035174D01*
X86543947Y-96035175D01*
X86749870Y-96055457D01*
X86749874Y-96055457D01*
X86749878Y-96055457D01*
X86955800Y-96035175D01*
X86955801Y-96035174D01*
X86955808Y-96035174D01*
X87153828Y-95975106D01*
X87336324Y-95877559D01*
X87496284Y-95746284D01*
X87627559Y-95586324D01*
X87725106Y-95403828D01*
X87737327Y-95363539D01*
X87773858Y-95314839D01*
X87822495Y-95300374D01*
X89910937Y-95300374D01*
X89968145Y-95321196D01*
X89973870Y-95326441D01*
X98026263Y-103378834D01*
X98033951Y-103389518D01*
X98034745Y-103388920D01*
X98039714Y-103395500D01*
X98075329Y-103427968D01*
X98076814Y-103429386D01*
X98090872Y-103443444D01*
X98090874Y-103443445D01*
X98090877Y-103443448D01*
X98094089Y-103445648D01*
X98098920Y-103449475D01*
X98118365Y-103467201D01*
X98146616Y-103521128D01*
X98133594Y-103580599D01*
X98085391Y-103617785D01*
X98058408Y-103621974D01*
X95644126Y-103621974D01*
X95586918Y-103601152D01*
X95581194Y-103595907D01*
X89357602Y-97372316D01*
X89349914Y-97361628D01*
X89349118Y-97362230D01*
X89344149Y-97355650D01*
X89344147Y-97355646D01*
X89308526Y-97323173D01*
X89307058Y-97321771D01*
X89292985Y-97307699D01*
X89289773Y-97305498D01*
X89284940Y-97301670D01*
X89261122Y-97279958D01*
X89250872Y-97275987D01*
X89232732Y-97266425D01*
X89223671Y-97260218D01*
X89223668Y-97260217D01*
X89192302Y-97252839D01*
X89186409Y-97251014D01*
X89156362Y-97239374D01*
X89145378Y-97239374D01*
X89125002Y-97237010D01*
X89114309Y-97234495D01*
X89114306Y-97234495D01*
X89106389Y-97235599D01*
X89082387Y-97238947D01*
X89076243Y-97239374D01*
X87822495Y-97239374D01*
X87765287Y-97218552D01*
X87737327Y-97176208D01*
X87725107Y-97135924D01*
X87725106Y-97135920D01*
X87627559Y-96953424D01*
X87496284Y-96793464D01*
X87336324Y-96662189D01*
X87153828Y-96564642D01*
X87153827Y-96564641D01*
X87153824Y-96564640D01*
X86955808Y-96504574D01*
X86955800Y-96504572D01*
X86749878Y-96484291D01*
X86749870Y-96484291D01*
X86543947Y-96504572D01*
X86543939Y-96504574D01*
X86345923Y-96564640D01*
X86163422Y-96662190D01*
X86003468Y-96793460D01*
X86003460Y-96793468D01*
X85872190Y-96953422D01*
X85774640Y-97135923D01*
X85718212Y-97321945D01*
X85681680Y-97370646D01*
X85622390Y-97384470D01*
X85568086Y-97356950D01*
X85546312Y-97308175D01*
X85545119Y-97308386D01*
X85544442Y-97304550D01*
X85483306Y-97076387D01*
X85483303Y-97076378D01*
X85383477Y-96862301D01*
X85383475Y-96862299D01*
X85247985Y-96668798D01*
X85080949Y-96501762D01*
X84887449Y-96366272D01*
X84887447Y-96366270D01*
X84673369Y-96266444D01*
X84673360Y-96266441D01*
X84445197Y-96205305D01*
X84441362Y-96204629D01*
X84441585Y-96203364D01*
X84390699Y-96179630D01*
X84364975Y-96124453D01*
X84380737Y-96065649D01*
X84427800Y-96031536D01*
X84613828Y-95975106D01*
X84796324Y-95877559D01*
X84956284Y-95746284D01*
X85087559Y-95586324D01*
X85185106Y-95403828D01*
X85245174Y-95205808D01*
X85265457Y-94999874D01*
X85245174Y-94793940D01*
X85191977Y-94618571D01*
X85185107Y-94595923D01*
X85185106Y-94595922D01*
X85185106Y-94595920D01*
X85087559Y-94413424D01*
X84956284Y-94253464D01*
X84796324Y-94122189D01*
X84613828Y-94024642D01*
X84613827Y-94024641D01*
X84613824Y-94024640D01*
X84427802Y-93968212D01*
X84379101Y-93931680D01*
X84365277Y-93872391D01*
X84392797Y-93818086D01*
X84441572Y-93796313D01*
X84441362Y-93795119D01*
X84445197Y-93794442D01*
X84673360Y-93733306D01*
X84673369Y-93733303D01*
X84887447Y-93633477D01*
X84887449Y-93633475D01*
X85080949Y-93497985D01*
X85247985Y-93330949D01*
X85383475Y-93137449D01*
X85383477Y-93137447D01*
X85483303Y-92923369D01*
X85483306Y-92923360D01*
X85544442Y-92695197D01*
X85545119Y-92691362D01*
X85546391Y-92691586D01*
X85570097Y-92640719D01*
X85625267Y-92614977D01*
X85684076Y-92630721D01*
G37*
%TD.AperFunction*%
%TA.AperFunction,Conductor*%
G36*
X123443082Y-81421322D02*
G01*
X123473522Y-81474045D01*
X123474874Y-81489500D01*
X123474874Y-87974874D01*
X123474875Y-87974874D01*
X134474873Y-87974874D01*
X134474874Y-87974874D01*
X134474874Y-84937253D01*
X138295763Y-84937253D01*
X138322094Y-85243828D01*
X138325617Y-85284838D01*
X138325619Y-85284851D01*
X138394899Y-85626762D01*
X138502704Y-85958551D01*
X138502706Y-85958555D01*
X138647628Y-86275892D01*
X138647630Y-86275894D01*
X138827781Y-86574641D01*
X138827785Y-86574647D01*
X139040814Y-86850908D01*
X139040826Y-86850923D01*
X139275931Y-87092839D01*
X139283959Y-87101100D01*
X139359892Y-87163190D01*
X139554025Y-87321933D01*
X139554029Y-87321935D01*
X139554032Y-87321938D01*
X139847518Y-87510550D01*
X140160592Y-87664478D01*
X140160598Y-87664480D01*
X140160600Y-87664481D01*
X140160605Y-87664483D01*
X140489159Y-87781710D01*
X140489163Y-87781711D01*
X140489171Y-87781714D01*
X140828968Y-87860731D01*
X140828972Y-87860732D01*
X141102061Y-87892066D01*
X141175565Y-87900500D01*
X141175566Y-87900500D01*
X141437138Y-87900500D01*
X141437145Y-87900500D01*
X141665654Y-87887433D01*
X141698300Y-87885567D01*
X142042051Y-87826078D01*
X142042050Y-87826078D01*
X142042057Y-87826077D01*
X142269900Y-87759175D01*
X142376784Y-87727792D01*
X142376786Y-87727790D01*
X142376793Y-87727789D01*
X142698144Y-87591986D01*
X142698154Y-87591980D01*
X142698157Y-87591979D01*
X143001914Y-87420439D01*
X143001915Y-87420438D01*
X143001919Y-87420436D01*
X143284159Y-87215377D01*
X143541184Y-86979481D01*
X143769644Y-86715824D01*
X143966560Y-86427844D01*
X144129365Y-86119294D01*
X144255937Y-85794196D01*
X144344626Y-85456790D01*
X144394275Y-85111473D01*
X144404237Y-84762747D01*
X144374383Y-84415159D01*
X144305101Y-84073240D01*
X144197295Y-83741447D01*
X144091248Y-83509237D01*
X144052371Y-83424107D01*
X144052369Y-83424105D01*
X143960740Y-83272156D01*
X143872215Y-83125353D01*
X143659180Y-82849084D01*
X143659176Y-82849080D01*
X143659173Y-82849076D01*
X143416042Y-82598901D01*
X143145974Y-82378066D01*
X143145968Y-82378062D01*
X142852482Y-82189450D01*
X142539408Y-82035522D01*
X142539404Y-82035520D01*
X142539399Y-82035518D01*
X142539394Y-82035516D01*
X142210840Y-81918289D01*
X142210830Y-81918286D01*
X141871029Y-81839268D01*
X141871032Y-81839268D01*
X141524435Y-81799500D01*
X141524434Y-81799500D01*
X141262855Y-81799500D01*
X141193845Y-81803446D01*
X141001699Y-81814432D01*
X140657948Y-81873921D01*
X140323215Y-81972207D01*
X140323201Y-81972213D01*
X140001856Y-82108014D01*
X140001842Y-82108020D01*
X139698085Y-82279560D01*
X139415843Y-82484621D01*
X139158818Y-82720516D01*
X138930357Y-82984174D01*
X138930355Y-82984177D01*
X138733440Y-83272155D01*
X138570637Y-83580702D01*
X138444060Y-83905811D01*
X138355374Y-84243208D01*
X138355373Y-84243211D01*
X138305725Y-84588519D01*
X138305725Y-84588526D01*
X138305422Y-84599130D01*
X138295763Y-84937253D01*
X134474874Y-84937253D01*
X134474874Y-81489500D01*
X134495696Y-81432292D01*
X134548419Y-81401852D01*
X134563874Y-81400500D01*
X161410500Y-81400500D01*
X161467708Y-81421322D01*
X161498148Y-81474045D01*
X161499500Y-81489500D01*
X161499500Y-136310500D01*
X161478678Y-136367708D01*
X161425955Y-136398148D01*
X161410500Y-136399500D01*
X81589500Y-136399500D01*
X81532292Y-136378678D01*
X81501852Y-136325955D01*
X81500500Y-136310500D01*
X81500500Y-133099877D01*
X83154291Y-133099877D01*
X83174572Y-133305800D01*
X83174574Y-133305808D01*
X83234640Y-133503824D01*
X83234641Y-133503827D01*
X83234642Y-133503828D01*
X83332189Y-133686324D01*
X83463464Y-133846284D01*
X83623424Y-133977559D01*
X83805920Y-134075106D01*
X84003940Y-134135174D01*
X84003944Y-134135174D01*
X84003947Y-134135175D01*
X84209870Y-134155457D01*
X84209874Y-134155457D01*
X84209878Y-134155457D01*
X84415800Y-134135175D01*
X84415801Y-134135174D01*
X84415808Y-134135174D01*
X84613828Y-134075106D01*
X84796324Y-133977559D01*
X84805990Y-133969626D01*
X85699374Y-133969626D01*
X85711006Y-134028105D01*
X85742413Y-134075107D01*
X85755322Y-134094426D01*
X85755325Y-134094428D01*
X85821642Y-134138741D01*
X85878564Y-134150063D01*
X85880126Y-134150374D01*
X85880130Y-134150374D01*
X87619618Y-134150374D01*
X87619622Y-134150374D01*
X87678105Y-134138741D01*
X87744426Y-134094426D01*
X87788741Y-134028105D01*
X87800374Y-133969622D01*
X87800374Y-133390473D01*
X92453674Y-133390473D01*
X92453675Y-133390474D01*
X93064674Y-133390474D01*
X93121882Y-133411296D01*
X93152322Y-133464019D01*
X93153674Y-133479474D01*
X93153674Y-133801474D01*
X93132852Y-133858682D01*
X93080129Y-133889122D01*
X93064674Y-133890474D01*
X92453676Y-133890474D01*
X92453675Y-133890475D01*
X92453675Y-134340449D01*
X92464168Y-134443168D01*
X92519318Y-134609600D01*
X92611354Y-134758814D01*
X92735333Y-134882793D01*
X92884547Y-134974829D01*
X93050979Y-135029980D01*
X93153697Y-135040473D01*
X93203673Y-135040472D01*
X93203673Y-134399105D01*
X93224495Y-134341897D01*
X93277218Y-134311457D01*
X93317029Y-134313502D01*
X93317635Y-134313674D01*
X93317636Y-134313675D01*
X93425514Y-134344369D01*
X93537195Y-134334020D01*
X93575002Y-134315194D01*
X93635494Y-134308333D01*
X93686244Y-134341960D01*
X93703674Y-134394863D01*
X93703674Y-135040472D01*
X93703675Y-135040473D01*
X93753650Y-135040473D01*
X93856368Y-135029979D01*
X94022800Y-134974829D01*
X94172014Y-134882793D01*
X94295993Y-134758814D01*
X94388029Y-134609600D01*
X94443180Y-134443168D01*
X94453674Y-134340450D01*
X94453673Y-133890475D01*
X94453673Y-133890474D01*
X93842674Y-133890474D01*
X93785466Y-133869652D01*
X93755026Y-133816929D01*
X93753674Y-133801474D01*
X93753674Y-133479474D01*
X93774496Y-133422266D01*
X93827219Y-133391826D01*
X93842674Y-133390474D01*
X94453672Y-133390474D01*
X94453673Y-133390473D01*
X101093674Y-133390473D01*
X101093675Y-133390474D01*
X101704674Y-133390474D01*
X101761882Y-133411296D01*
X101792322Y-133464019D01*
X101793674Y-133479474D01*
X101793674Y-133801474D01*
X101772852Y-133858682D01*
X101720129Y-133889122D01*
X101704674Y-133890474D01*
X101093675Y-133890474D01*
X101093675Y-134340449D01*
X101104168Y-134443168D01*
X101159318Y-134609600D01*
X101251354Y-134758814D01*
X101375333Y-134882793D01*
X101524547Y-134974829D01*
X101690979Y-135029980D01*
X101793697Y-135040473D01*
X101843673Y-135040472D01*
X101843673Y-134399105D01*
X101864495Y-134341897D01*
X101917218Y-134311457D01*
X101957029Y-134313502D01*
X101957635Y-134313674D01*
X101957636Y-134313675D01*
X102065514Y-134344369D01*
X102177195Y-134334020D01*
X102215002Y-134315193D01*
X102275492Y-134308332D01*
X102326242Y-134341959D01*
X102343673Y-134394863D01*
X102343673Y-135040471D01*
X102343675Y-135040473D01*
X102393650Y-135040473D01*
X102496368Y-135029979D01*
X102662800Y-134974829D01*
X102812014Y-134882793D01*
X102935993Y-134758814D01*
X103028029Y-134609600D01*
X103083180Y-134443168D01*
X103093674Y-134340450D01*
X103093673Y-133890475D01*
X103093673Y-133890474D01*
X102482674Y-133890474D01*
X102425466Y-133869652D01*
X102395026Y-133816929D01*
X102393674Y-133801474D01*
X102393674Y-133479474D01*
X102414496Y-133422266D01*
X102467219Y-133391826D01*
X102482674Y-133390474D01*
X103093672Y-133390474D01*
X103093673Y-133390473D01*
X103093673Y-132940498D01*
X103093341Y-132937253D01*
X105295763Y-132937253D01*
X105319418Y-133212672D01*
X105325617Y-133284838D01*
X105325619Y-133284851D01*
X105394899Y-133626762D01*
X105502704Y-133958551D01*
X105502706Y-133958555D01*
X105647628Y-134275892D01*
X105647630Y-134275894D01*
X105827781Y-134574641D01*
X105827785Y-134574647D01*
X106040814Y-134850908D01*
X106040826Y-134850923D01*
X106283957Y-135101098D01*
X106554025Y-135321933D01*
X106554029Y-135321935D01*
X106554032Y-135321938D01*
X106847518Y-135510550D01*
X107160592Y-135664478D01*
X107160598Y-135664480D01*
X107160600Y-135664481D01*
X107160605Y-135664483D01*
X107489159Y-135781710D01*
X107489163Y-135781711D01*
X107489171Y-135781714D01*
X107828968Y-135860731D01*
X107828972Y-135860732D01*
X108102061Y-135892066D01*
X108175565Y-135900500D01*
X108175566Y-135900500D01*
X108437138Y-135900500D01*
X108437145Y-135900500D01*
X108665654Y-135887433D01*
X108698300Y-135885567D01*
X109042051Y-135826078D01*
X109042050Y-135826078D01*
X109042057Y-135826077D01*
X109269900Y-135759175D01*
X109376784Y-135727792D01*
X109376786Y-135727790D01*
X109376793Y-135727789D01*
X109698144Y-135591986D01*
X109698154Y-135591980D01*
X109698157Y-135591979D01*
X110001914Y-135420439D01*
X110001915Y-135420438D01*
X110001919Y-135420436D01*
X110284159Y-135215377D01*
X110541184Y-134979481D01*
X110769644Y-134715824D01*
X110966560Y-134427844D01*
X111129365Y-134119294D01*
X111255937Y-133794196D01*
X111344626Y-133456790D01*
X111394275Y-133111473D01*
X111399252Y-132937253D01*
X138295763Y-132937253D01*
X138319418Y-133212672D01*
X138325617Y-133284838D01*
X138325619Y-133284851D01*
X138394899Y-133626762D01*
X138502704Y-133958551D01*
X138502706Y-133958555D01*
X138647628Y-134275892D01*
X138647630Y-134275894D01*
X138827781Y-134574641D01*
X138827785Y-134574647D01*
X139040814Y-134850908D01*
X139040826Y-134850923D01*
X139283957Y-135101098D01*
X139554025Y-135321933D01*
X139554029Y-135321935D01*
X139554032Y-135321938D01*
X139847518Y-135510550D01*
X140160592Y-135664478D01*
X140160598Y-135664480D01*
X140160600Y-135664481D01*
X140160605Y-135664483D01*
X140489159Y-135781710D01*
X140489163Y-135781711D01*
X140489171Y-135781714D01*
X140828968Y-135860731D01*
X140828972Y-135860732D01*
X141102061Y-135892066D01*
X141175565Y-135900500D01*
X141175566Y-135900500D01*
X141437138Y-135900500D01*
X141437145Y-135900500D01*
X141665654Y-135887433D01*
X141698300Y-135885567D01*
X142042051Y-135826078D01*
X142042050Y-135826078D01*
X142042057Y-135826077D01*
X142269900Y-135759175D01*
X142376784Y-135727792D01*
X142376786Y-135727790D01*
X142376793Y-135727789D01*
X142698144Y-135591986D01*
X142698154Y-135591980D01*
X142698157Y-135591979D01*
X143001914Y-135420439D01*
X143001915Y-135420438D01*
X143001919Y-135420436D01*
X143284159Y-135215377D01*
X143541184Y-134979481D01*
X143769644Y-134715824D01*
X143966560Y-134427844D01*
X144129365Y-134119294D01*
X144255937Y-133794196D01*
X144344626Y-133456790D01*
X144394275Y-133111473D01*
X144404237Y-132762747D01*
X144374383Y-132415159D01*
X144305101Y-132073240D01*
X144197295Y-131741447D01*
X144058513Y-131437557D01*
X144052371Y-131424107D01*
X144052369Y-131424105D01*
X143981320Y-131306284D01*
X143872215Y-131125353D01*
X143659180Y-130849084D01*
X143659176Y-130849080D01*
X143659173Y-130849076D01*
X143416042Y-130598901D01*
X143145974Y-130378066D01*
X143145968Y-130378062D01*
X142852482Y-130189450D01*
X142539408Y-130035522D01*
X142539404Y-130035520D01*
X142539399Y-130035518D01*
X142539394Y-130035516D01*
X142210840Y-129918289D01*
X142210830Y-129918286D01*
X141871029Y-129839268D01*
X141871032Y-129839268D01*
X141524435Y-129799500D01*
X141524434Y-129799500D01*
X141262855Y-129799500D01*
X141193845Y-129803446D01*
X141001699Y-129814432D01*
X140657948Y-129873921D01*
X140323215Y-129972207D01*
X140323201Y-129972213D01*
X140001856Y-130108014D01*
X140001842Y-130108020D01*
X139698085Y-130279560D01*
X139415843Y-130484621D01*
X139158818Y-130720516D01*
X138930357Y-130984174D01*
X138930355Y-130984177D01*
X138733440Y-131272155D01*
X138594695Y-131535107D01*
X138570635Y-131580706D01*
X138508054Y-131741444D01*
X138444060Y-131905811D01*
X138355374Y-132243208D01*
X138355373Y-132243211D01*
X138305725Y-132588519D01*
X138305725Y-132588526D01*
X138305725Y-132588527D01*
X138295763Y-132937253D01*
X111399252Y-132937253D01*
X111404237Y-132762747D01*
X111374383Y-132415159D01*
X111305101Y-132073240D01*
X111197295Y-131741447D01*
X111058513Y-131437557D01*
X111052371Y-131424107D01*
X111052369Y-131424105D01*
X110981320Y-131306284D01*
X110872215Y-131125353D01*
X110659180Y-130849084D01*
X110659176Y-130849080D01*
X110659173Y-130849076D01*
X110416042Y-130598901D01*
X110145974Y-130378066D01*
X110145968Y-130378062D01*
X109852482Y-130189450D01*
X109539408Y-130035522D01*
X109539404Y-130035520D01*
X109539399Y-130035518D01*
X109539394Y-130035516D01*
X109210840Y-129918289D01*
X109210830Y-129918286D01*
X108871029Y-129839268D01*
X108871032Y-129839268D01*
X108524435Y-129799500D01*
X108524434Y-129799500D01*
X108262855Y-129799500D01*
X108193845Y-129803446D01*
X108001699Y-129814432D01*
X107657948Y-129873921D01*
X107323215Y-129972207D01*
X107323201Y-129972213D01*
X107001856Y-130108014D01*
X107001842Y-130108020D01*
X106698085Y-130279560D01*
X106415843Y-130484621D01*
X106158818Y-130720516D01*
X105930357Y-130984174D01*
X105930355Y-130984177D01*
X105733440Y-131272155D01*
X105594695Y-131535107D01*
X105570635Y-131580706D01*
X105508054Y-131741444D01*
X105444060Y-131905811D01*
X105355374Y-132243208D01*
X105355373Y-132243211D01*
X105305725Y-132588519D01*
X105305725Y-132588526D01*
X105305725Y-132588527D01*
X105295763Y-132937253D01*
X103093341Y-132937253D01*
X103083179Y-132837779D01*
X103028029Y-132671347D01*
X102935993Y-132522133D01*
X102812014Y-132398154D01*
X102662800Y-132306118D01*
X102496368Y-132250967D01*
X102393650Y-132240474D01*
X102343674Y-132240474D01*
X102343674Y-132881842D01*
X102322852Y-132939050D01*
X102270129Y-132969490D01*
X102230319Y-132967445D01*
X102170221Y-132950346D01*
X102121834Y-132936579D01*
X102121832Y-132936579D01*
X102010151Y-132946928D01*
X102010150Y-132946928D01*
X101972342Y-132965754D01*
X101911850Y-132972614D01*
X101861102Y-132938985D01*
X101843673Y-132886084D01*
X101843673Y-132240473D01*
X101793698Y-132240474D01*
X101690979Y-132250968D01*
X101524547Y-132306118D01*
X101375333Y-132398154D01*
X101251354Y-132522133D01*
X101159318Y-132671347D01*
X101104167Y-132837779D01*
X101093674Y-132940497D01*
X101093674Y-133390473D01*
X94453673Y-133390473D01*
X94453673Y-133390472D01*
X94453673Y-132940498D01*
X94443179Y-132837779D01*
X94388029Y-132671347D01*
X94295993Y-132522133D01*
X94172014Y-132398154D01*
X94022800Y-132306118D01*
X93856368Y-132250967D01*
X93753650Y-132240474D01*
X93703675Y-132240474D01*
X93703674Y-132240475D01*
X93703674Y-132881842D01*
X93682852Y-132939050D01*
X93630129Y-132969490D01*
X93590319Y-132967445D01*
X93530221Y-132950346D01*
X93481834Y-132936579D01*
X93481832Y-132936579D01*
X93370151Y-132946928D01*
X93370150Y-132946928D01*
X93332342Y-132965754D01*
X93271850Y-132972614D01*
X93221102Y-132938985D01*
X93203673Y-132886084D01*
X93203673Y-132240473D01*
X93153698Y-132240474D01*
X93050979Y-132250968D01*
X92884547Y-132306118D01*
X92735333Y-132398154D01*
X92611354Y-132522133D01*
X92519318Y-132671347D01*
X92464167Y-132837779D01*
X92453674Y-132940497D01*
X92453674Y-133390473D01*
X87800374Y-133390473D01*
X87800374Y-132230126D01*
X87788741Y-132171643D01*
X87788741Y-132171642D01*
X87744428Y-132105325D01*
X87744426Y-132105322D01*
X87744422Y-132105319D01*
X87678105Y-132061006D01*
X87619626Y-132049374D01*
X87619622Y-132049374D01*
X85880126Y-132049374D01*
X85880121Y-132049374D01*
X85821642Y-132061006D01*
X85755325Y-132105319D01*
X85755319Y-132105325D01*
X85711006Y-132171642D01*
X85699374Y-132230121D01*
X85699374Y-133969626D01*
X84805990Y-133969626D01*
X84956284Y-133846284D01*
X85087559Y-133686324D01*
X85185106Y-133503828D01*
X85245174Y-133305808D01*
X85247239Y-133284841D01*
X85265457Y-133099877D01*
X85265457Y-133099870D01*
X85245175Y-132893947D01*
X85245174Y-132893944D01*
X85245174Y-132893940D01*
X85185106Y-132695920D01*
X85087559Y-132513424D01*
X84956284Y-132353464D01*
X84796324Y-132222189D01*
X84613828Y-132124642D01*
X84613827Y-132124641D01*
X84613824Y-132124640D01*
X84415808Y-132064574D01*
X84415800Y-132064572D01*
X84209878Y-132044291D01*
X84209870Y-132044291D01*
X84003947Y-132064572D01*
X84003939Y-132064574D01*
X83805923Y-132124640D01*
X83623422Y-132222190D01*
X83463468Y-132353460D01*
X83463460Y-132353468D01*
X83332190Y-132513422D01*
X83234640Y-132695923D01*
X83174574Y-132893939D01*
X83174572Y-132893947D01*
X83154291Y-133099870D01*
X83154291Y-133099877D01*
X81500500Y-133099877D01*
X81500500Y-128269874D01*
X82879237Y-128269874D01*
X82936441Y-128483360D01*
X82936444Y-128483369D01*
X83036270Y-128697447D01*
X83036272Y-128697449D01*
X83171762Y-128890949D01*
X83338798Y-129057985D01*
X83532298Y-129193475D01*
X83532300Y-129193477D01*
X83746378Y-129293303D01*
X83746387Y-129293306D01*
X83974550Y-129354442D01*
X83978386Y-129355119D01*
X83978161Y-129356390D01*
X84029030Y-129380099D01*
X84054770Y-129435269D01*
X84039025Y-129494078D01*
X83991945Y-129528212D01*
X83805923Y-129584640D01*
X83623422Y-129682190D01*
X83463468Y-129813460D01*
X83463460Y-129813468D01*
X83332190Y-129973422D01*
X83234640Y-130155923D01*
X83174574Y-130353939D01*
X83174572Y-130353947D01*
X83154291Y-130559870D01*
X83154291Y-130559877D01*
X83174572Y-130765800D01*
X83174574Y-130765808D01*
X83234640Y-130963824D01*
X83234641Y-130963827D01*
X83234642Y-130963828D01*
X83332189Y-131146324D01*
X83463464Y-131306284D01*
X83623424Y-131437559D01*
X83805920Y-131535106D01*
X84003940Y-131595174D01*
X84003944Y-131595174D01*
X84003947Y-131595175D01*
X84209870Y-131615457D01*
X84209874Y-131615457D01*
X84209878Y-131615457D01*
X84415800Y-131595175D01*
X84415801Y-131595174D01*
X84415808Y-131595174D01*
X84613828Y-131535106D01*
X84796324Y-131437559D01*
X84956284Y-131306284D01*
X85087559Y-131146324D01*
X85185106Y-130963828D01*
X85245174Y-130765808D01*
X85245847Y-130758974D01*
X85265457Y-130559877D01*
X85265457Y-130559870D01*
X85245175Y-130353947D01*
X85245174Y-130353944D01*
X85245174Y-130353940D01*
X85185106Y-130155920D01*
X85087559Y-129973424D01*
X84956284Y-129813464D01*
X84796324Y-129682189D01*
X84613828Y-129584642D01*
X84613827Y-129584641D01*
X84613824Y-129584640D01*
X84427802Y-129528212D01*
X84379101Y-129491680D01*
X84365277Y-129432391D01*
X84392797Y-129378086D01*
X84441572Y-129356313D01*
X84441362Y-129355119D01*
X84445197Y-129354442D01*
X84673360Y-129293306D01*
X84673369Y-129293303D01*
X84887447Y-129193477D01*
X84887449Y-129193475D01*
X85080949Y-129057985D01*
X85247985Y-128890949D01*
X85383475Y-128697449D01*
X85383477Y-128697447D01*
X85483303Y-128483369D01*
X85483306Y-128483360D01*
X85544442Y-128255197D01*
X85545119Y-128251362D01*
X85546391Y-128251586D01*
X85570097Y-128200719D01*
X85625267Y-128174977D01*
X85684076Y-128190721D01*
X85718212Y-128237802D01*
X85774640Y-128423824D01*
X85774641Y-128423827D01*
X85774642Y-128423828D01*
X85872189Y-128606324D01*
X86003464Y-128766284D01*
X86163424Y-128897559D01*
X86345920Y-128995106D01*
X86543940Y-129055174D01*
X86543944Y-129055174D01*
X86543947Y-129055175D01*
X86749870Y-129075457D01*
X86749874Y-129075457D01*
X86749878Y-129075457D01*
X86955800Y-129055175D01*
X86955801Y-129055174D01*
X86955808Y-129055174D01*
X87153828Y-128995106D01*
X87336324Y-128897559D01*
X87496284Y-128766284D01*
X87627559Y-128606324D01*
X87725106Y-128423828D01*
X87785174Y-128225808D01*
X87788630Y-128190721D01*
X87805457Y-128019877D01*
X87805457Y-128019870D01*
X87785768Y-127819967D01*
X87800882Y-127760993D01*
X87811401Y-127748316D01*
X88382443Y-127177275D01*
X88437617Y-127151548D01*
X88496422Y-127167305D01*
X88531341Y-127217174D01*
X88534374Y-127240209D01*
X88534373Y-129313537D01*
X88513551Y-129370745D01*
X88508306Y-129376469D01*
X87811267Y-130073509D01*
X87756091Y-130099238D01*
X87697286Y-130083482D01*
X87669843Y-130052532D01*
X87657180Y-130028841D01*
X87627559Y-129973424D01*
X87496284Y-129813464D01*
X87336324Y-129682189D01*
X87153828Y-129584642D01*
X87153827Y-129584641D01*
X87153824Y-129584640D01*
X86955808Y-129524574D01*
X86955800Y-129524572D01*
X86749878Y-129504291D01*
X86749870Y-129504291D01*
X86543947Y-129524572D01*
X86543939Y-129524574D01*
X86345923Y-129584640D01*
X86163422Y-129682190D01*
X86003468Y-129813460D01*
X86003460Y-129813468D01*
X85872190Y-129973422D01*
X85774640Y-130155923D01*
X85714574Y-130353939D01*
X85714572Y-130353947D01*
X85694291Y-130559870D01*
X85694291Y-130559877D01*
X85714572Y-130765800D01*
X85714574Y-130765808D01*
X85774640Y-130963824D01*
X85774641Y-130963827D01*
X85774642Y-130963828D01*
X85872189Y-131146324D01*
X86003464Y-131306284D01*
X86163424Y-131437559D01*
X86345920Y-131535106D01*
X86543940Y-131595174D01*
X86543944Y-131595174D01*
X86543947Y-131595175D01*
X86749870Y-131615457D01*
X86749874Y-131615457D01*
X86749878Y-131615457D01*
X86955800Y-131595175D01*
X86955801Y-131595174D01*
X86955808Y-131595174D01*
X87153828Y-131535106D01*
X87336324Y-131437559D01*
X87496284Y-131306284D01*
X87627559Y-131146324D01*
X87725106Y-130963828D01*
X87740552Y-130912908D01*
X87758258Y-130854539D01*
X87794790Y-130805839D01*
X87843426Y-130791374D01*
X87846717Y-130791374D01*
X87846718Y-130791374D01*
X87850546Y-130790657D01*
X87856676Y-130789946D01*
X87888866Y-130788459D01*
X87898914Y-130784021D01*
X87918508Y-130777953D01*
X87929307Y-130775935D01*
X87956709Y-130758967D01*
X87962142Y-130756103D01*
X87991639Y-130743080D01*
X87999406Y-130735312D01*
X88015485Y-130722576D01*
X88024826Y-130716793D01*
X88044248Y-130691072D01*
X88048292Y-130686426D01*
X88521913Y-130212805D01*
X88673525Y-130061193D01*
X92453674Y-130061193D01*
X92469091Y-130212805D01*
X92469094Y-130212819D01*
X92529974Y-130406856D01*
X92529978Y-130406866D01*
X92628679Y-130584689D01*
X92761154Y-130739005D01*
X92921978Y-130863492D01*
X92921980Y-130863493D01*
X93104584Y-130953064D01*
X93203673Y-130978718D01*
X93203674Y-130978718D01*
X93203674Y-130369105D01*
X93224496Y-130311897D01*
X93277219Y-130281457D01*
X93317030Y-130283502D01*
X93317634Y-130283674D01*
X93317636Y-130283675D01*
X93425514Y-130314369D01*
X93537195Y-130304020D01*
X93575002Y-130285194D01*
X93635494Y-130278333D01*
X93686244Y-130311960D01*
X93703674Y-130364863D01*
X93703674Y-130983839D01*
X93705615Y-130983543D01*
X93705619Y-130983542D01*
X93896340Y-130912908D01*
X94068937Y-130805327D01*
X94068938Y-130805327D01*
X94216341Y-130665209D01*
X94216344Y-130665205D01*
X94332529Y-130498279D01*
X94332532Y-130498272D01*
X94405309Y-130328682D01*
X94447003Y-130284321D01*
X94507458Y-130277140D01*
X94545378Y-130296517D01*
X94623954Y-130364602D01*
X94623957Y-130364605D01*
X94653433Y-130378066D01*
X94748332Y-130421405D01*
X94849663Y-130435974D01*
X94849670Y-130435974D01*
X94917678Y-130435974D01*
X94917685Y-130435974D01*
X95019016Y-130421405D01*
X95143392Y-130364604D01*
X95246729Y-130275063D01*
X95320652Y-130160035D01*
X95359174Y-130028841D01*
X100188174Y-130028841D01*
X100195130Y-130052532D01*
X100226694Y-130160032D01*
X100300619Y-130275063D01*
X100403954Y-130364603D01*
X100403957Y-130364605D01*
X100433433Y-130378066D01*
X100528332Y-130421405D01*
X100629663Y-130435974D01*
X100629670Y-130435974D01*
X100697678Y-130435974D01*
X100697685Y-130435974D01*
X100799016Y-130421405D01*
X100923392Y-130364604D01*
X101004275Y-130294518D01*
X101061143Y-130272793D01*
X101118674Y-130292705D01*
X101147473Y-130335139D01*
X101169974Y-130406856D01*
X101169978Y-130406866D01*
X101268679Y-130584689D01*
X101401154Y-130739005D01*
X101561978Y-130863492D01*
X101561980Y-130863493D01*
X101744582Y-130953063D01*
X101843672Y-130978718D01*
X101843673Y-130369105D01*
X101864495Y-130311897D01*
X101917218Y-130281457D01*
X101957029Y-130283502D01*
X101957635Y-130283674D01*
X101957636Y-130283675D01*
X102065514Y-130314369D01*
X102177195Y-130304020D01*
X102215002Y-130285194D01*
X102275494Y-130278333D01*
X102326244Y-130311960D01*
X102343674Y-130364863D01*
X102343674Y-130983839D01*
X102345615Y-130983543D01*
X102345619Y-130983542D01*
X102536340Y-130912908D01*
X102708937Y-130805327D01*
X102708938Y-130805327D01*
X102856341Y-130665209D01*
X102856344Y-130665205D01*
X102972529Y-130498279D01*
X102972530Y-130498275D01*
X103052733Y-130311382D01*
X103052736Y-130311372D01*
X103093672Y-130112171D01*
X103093674Y-130112161D01*
X103093673Y-129710475D01*
X103093673Y-129710474D01*
X102482674Y-129710474D01*
X102425466Y-129689652D01*
X102395026Y-129636929D01*
X102393674Y-129621474D01*
X102393674Y-129299474D01*
X102414496Y-129242266D01*
X102467219Y-129211826D01*
X102482674Y-129210474D01*
X103093673Y-129210474D01*
X103093674Y-129210472D01*
X103093674Y-128859754D01*
X103078256Y-128708142D01*
X103078253Y-128708128D01*
X103017373Y-128514091D01*
X103017369Y-128514081D01*
X102918668Y-128336258D01*
X102786193Y-128181942D01*
X102625369Y-128057455D01*
X102625367Y-128057454D01*
X102442770Y-127967886D01*
X102343674Y-127942228D01*
X102343674Y-128551842D01*
X102322852Y-128609050D01*
X102270129Y-128639490D01*
X102230319Y-128637445D01*
X102170221Y-128620346D01*
X102121834Y-128606579D01*
X102121832Y-128606579D01*
X102010152Y-128616928D01*
X101972344Y-128635754D01*
X101911852Y-128642614D01*
X101861103Y-128608986D01*
X101843674Y-128556084D01*
X101843674Y-127937107D01*
X101843673Y-127937106D01*
X101841732Y-127937403D01*
X101651007Y-128008039D01*
X101478410Y-128115620D01*
X101478409Y-128115620D01*
X101331006Y-128255738D01*
X101331003Y-128255742D01*
X101214818Y-128422668D01*
X101214817Y-128422672D01*
X101134614Y-128609565D01*
X101134611Y-128609575D01*
X101093675Y-128808776D01*
X101093674Y-128808786D01*
X101093674Y-129210473D01*
X101093675Y-129210474D01*
X101704674Y-129210474D01*
X101761882Y-129231296D01*
X101792322Y-129284019D01*
X101793674Y-129299474D01*
X101793674Y-129621474D01*
X101772852Y-129678682D01*
X101720129Y-129709122D01*
X101704674Y-129710474D01*
X101116835Y-129710474D01*
X101059627Y-129689652D01*
X101041963Y-129669590D01*
X101026729Y-129645885D01*
X100923393Y-129556344D01*
X100923390Y-129556342D01*
X100835819Y-129516350D01*
X100799016Y-129499543D01*
X100761006Y-129494078D01*
X100697687Y-129484974D01*
X100697685Y-129484974D01*
X100629663Y-129484974D01*
X100629660Y-129484974D01*
X100528332Y-129499543D01*
X100403957Y-129556342D01*
X100403954Y-129556344D01*
X100300619Y-129645884D01*
X100226694Y-129760915D01*
X100193514Y-129873921D01*
X100188174Y-129892107D01*
X100188174Y-130028841D01*
X95359174Y-130028841D01*
X95359174Y-129892107D01*
X95320652Y-129760913D01*
X95246729Y-129645885D01*
X95218557Y-129621474D01*
X95143393Y-129556344D01*
X95143390Y-129556342D01*
X95055819Y-129516350D01*
X95019016Y-129499543D01*
X94981006Y-129494078D01*
X94917687Y-129484974D01*
X94917685Y-129484974D01*
X94849663Y-129484974D01*
X94849660Y-129484974D01*
X94748332Y-129499543D01*
X94623957Y-129556342D01*
X94623954Y-129556344D01*
X94520618Y-129645885D01*
X94505385Y-129669590D01*
X94456940Y-129706460D01*
X94430513Y-129710474D01*
X93842674Y-129710474D01*
X93785466Y-129689652D01*
X93755026Y-129636929D01*
X93753674Y-129621474D01*
X93753674Y-129299474D01*
X93774496Y-129242266D01*
X93827219Y-129211826D01*
X93842674Y-129210474D01*
X94453673Y-129210474D01*
X94453674Y-129210472D01*
X94453674Y-128859754D01*
X94438256Y-128708142D01*
X94438253Y-128708128D01*
X94377373Y-128514091D01*
X94377369Y-128514081D01*
X94278668Y-128336258D01*
X94146193Y-128181942D01*
X93985369Y-128057455D01*
X93985367Y-128057454D01*
X93802770Y-127967886D01*
X93703674Y-127942228D01*
X93703674Y-128551842D01*
X93682852Y-128609050D01*
X93630129Y-128639490D01*
X93590319Y-128637445D01*
X93530221Y-128620346D01*
X93481834Y-128606579D01*
X93481832Y-128606579D01*
X93370152Y-128616928D01*
X93332344Y-128635754D01*
X93271852Y-128642614D01*
X93221103Y-128608986D01*
X93203674Y-128556084D01*
X93203674Y-127937107D01*
X93203673Y-127937106D01*
X93201732Y-127937403D01*
X93011007Y-128008039D01*
X92838410Y-128115620D01*
X92838409Y-128115620D01*
X92691006Y-128255738D01*
X92691003Y-128255742D01*
X92574818Y-128422668D01*
X92574817Y-128422672D01*
X92494614Y-128609565D01*
X92494611Y-128609575D01*
X92453675Y-128808776D01*
X92453674Y-128808786D01*
X92453674Y-129210472D01*
X92453675Y-129210474D01*
X93064674Y-129210474D01*
X93121882Y-129231296D01*
X93152322Y-129284019D01*
X93153674Y-129299474D01*
X93153674Y-129621474D01*
X93132852Y-129678682D01*
X93080129Y-129709122D01*
X93064674Y-129710474D01*
X92453674Y-129710474D01*
X92453674Y-130061193D01*
X88673525Y-130061193D01*
X89002433Y-129732284D01*
X89013123Y-129724600D01*
X89012520Y-129723802D01*
X89019103Y-129718831D01*
X89026721Y-129710474D01*
X89051605Y-129683176D01*
X89052966Y-129681751D01*
X89067048Y-129667671D01*
X89069249Y-129664457D01*
X89073067Y-129659634D01*
X89094790Y-129635807D01*
X89098757Y-129625563D01*
X89108326Y-129607412D01*
X89114531Y-129598355D01*
X89121909Y-129566980D01*
X89123732Y-129561097D01*
X89135374Y-129531047D01*
X89135374Y-129520062D01*
X89137738Y-129499685D01*
X89140253Y-129488993D01*
X89135801Y-129457076D01*
X89135374Y-129450921D01*
X89135374Y-127096209D01*
X89156196Y-127039001D01*
X89161442Y-127033276D01*
X89920244Y-126274474D01*
X92875691Y-126274474D01*
X92895471Y-126386653D01*
X92934993Y-126455106D01*
X92952424Y-126485297D01*
X93012202Y-126535457D01*
X93039683Y-126558517D01*
X93146720Y-126597474D01*
X93260627Y-126597474D01*
X93260628Y-126597474D01*
X93367666Y-126558516D01*
X93451265Y-126488366D01*
X93508473Y-126467544D01*
X93565679Y-126488364D01*
X93565683Y-126488367D01*
X93649280Y-126558515D01*
X93649281Y-126558515D01*
X93649282Y-126558516D01*
X93756320Y-126597474D01*
X93870227Y-126597474D01*
X93870228Y-126597474D01*
X93931477Y-126575181D01*
X93977264Y-126558517D01*
X93977264Y-126558516D01*
X93977266Y-126558516D01*
X94064524Y-126485297D01*
X94121477Y-126386651D01*
X94141257Y-126274474D01*
X94121477Y-126162297D01*
X94121476Y-126162295D01*
X94121476Y-126162294D01*
X94074773Y-126081403D01*
X94064524Y-126063651D01*
X93977266Y-125990432D01*
X93977265Y-125990431D01*
X93971301Y-125985427D01*
X93972485Y-125984015D01*
X93939305Y-125944464D01*
X93939311Y-125883585D01*
X93965733Y-125845855D01*
X93968492Y-125843540D01*
X94051250Y-125774097D01*
X94108203Y-125675451D01*
X94127983Y-125563274D01*
X94108203Y-125451097D01*
X94108202Y-125451095D01*
X94108202Y-125451094D01*
X94076361Y-125395946D01*
X94051250Y-125352451D01*
X93963992Y-125279232D01*
X93963990Y-125279230D01*
X93856955Y-125240274D01*
X93856954Y-125240274D01*
X93743046Y-125240274D01*
X93743045Y-125240274D01*
X93636010Y-125279230D01*
X93559043Y-125343813D01*
X93501835Y-125364634D01*
X93444627Y-125343811D01*
X93367667Y-125279232D01*
X93367664Y-125279231D01*
X93260629Y-125240274D01*
X93260628Y-125240274D01*
X93146720Y-125240274D01*
X93146719Y-125240274D01*
X93039684Y-125279230D01*
X92952425Y-125352449D01*
X92952423Y-125352452D01*
X92895471Y-125451094D01*
X92875691Y-125563274D01*
X92895471Y-125675453D01*
X92952423Y-125774095D01*
X92952425Y-125774098D01*
X93043710Y-125850696D01*
X93074150Y-125903420D01*
X93063578Y-125963374D01*
X93043710Y-125987052D01*
X92952425Y-126063649D01*
X92952423Y-126063652D01*
X92895471Y-126162294D01*
X92875691Y-126274474D01*
X89920244Y-126274474D01*
X91422478Y-124772241D01*
X91477653Y-124746513D01*
X91485410Y-124746174D01*
X98474140Y-124746174D01*
X98487136Y-124748292D01*
X98487274Y-124747308D01*
X98495438Y-124748447D01*
X98495438Y-124748446D01*
X98495439Y-124748447D01*
X98543603Y-124746220D01*
X98545636Y-124746174D01*
X98565517Y-124746174D01*
X98565518Y-124746174D01*
X98569346Y-124745457D01*
X98575476Y-124744746D01*
X98607666Y-124743259D01*
X98617714Y-124738821D01*
X98637308Y-124732753D01*
X98648107Y-124730735D01*
X98675509Y-124713767D01*
X98680942Y-124710903D01*
X98710439Y-124697880D01*
X98718206Y-124690112D01*
X98734285Y-124677376D01*
X98743626Y-124671593D01*
X98763048Y-124645872D01*
X98767092Y-124641226D01*
X99722039Y-123686279D01*
X100737233Y-122671084D01*
X100747923Y-122663400D01*
X100747320Y-122662602D01*
X100753903Y-122657631D01*
X100755421Y-122655964D01*
X100786405Y-122621976D01*
X100787766Y-122620551D01*
X100801848Y-122606471D01*
X100804049Y-122603257D01*
X100807867Y-122598434D01*
X100829590Y-122574607D01*
X100833557Y-122564363D01*
X100843126Y-122546212D01*
X100849331Y-122537155D01*
X100856709Y-122505780D01*
X100858532Y-122499897D01*
X100870173Y-122469849D01*
X100870174Y-122469847D01*
X100870174Y-122458858D01*
X100872536Y-122438490D01*
X100875053Y-122427793D01*
X100870601Y-122395876D01*
X100870174Y-122389721D01*
X100870174Y-115513811D01*
X100890996Y-115456603D01*
X100896241Y-115450878D01*
X103068385Y-113278734D01*
X103123561Y-113253006D01*
X103131318Y-113252667D01*
X107580582Y-113252667D01*
X107637790Y-113273489D01*
X107647841Y-113283381D01*
X107661538Y-113299188D01*
X107771485Y-113369846D01*
X107771487Y-113369847D01*
X107808123Y-113380604D01*
X107896886Y-113406667D01*
X107896887Y-113406667D01*
X108027579Y-113406667D01*
X108027580Y-113406667D01*
X108152981Y-113369846D01*
X108262928Y-113299188D01*
X108348515Y-113200415D01*
X108402807Y-113081531D01*
X108421407Y-112952167D01*
X108412171Y-112887933D01*
X108424639Y-112828347D01*
X108472493Y-112790713D01*
X108475171Y-112789880D01*
X108499039Y-112782872D01*
X108532817Y-112772955D01*
X108532819Y-112772954D01*
X108532819Y-112772953D01*
X108532822Y-112772953D01*
X108642769Y-112702295D01*
X108728356Y-112603522D01*
X108782648Y-112484638D01*
X108801248Y-112355274D01*
X108782648Y-112225910D01*
X108767812Y-112193424D01*
X108728357Y-112107028D01*
X108728356Y-112107027D01*
X108728356Y-112107026D01*
X108642769Y-112008253D01*
X108642765Y-112008250D01*
X108642763Y-112008248D01*
X108637957Y-112004083D01*
X108640153Y-112001547D01*
X108610779Y-111962904D01*
X108613711Y-111902095D01*
X108614808Y-111899589D01*
X108666335Y-111786762D01*
X108684935Y-111657398D01*
X108666335Y-111528034D01*
X108665546Y-111526307D01*
X108612044Y-111409152D01*
X108612043Y-111409151D01*
X108612043Y-111409150D01*
X108526456Y-111310377D01*
X108424485Y-111244844D01*
X108387617Y-111196400D01*
X108390513Y-111135590D01*
X108431821Y-111090868D01*
X108472603Y-111080974D01*
X109951851Y-111080974D01*
X110009059Y-111101796D01*
X110014784Y-111107041D01*
X110719377Y-111811634D01*
X110727065Y-111822318D01*
X110727859Y-111821720D01*
X110732828Y-111828300D01*
X110768443Y-111860768D01*
X110769928Y-111862186D01*
X110783986Y-111876244D01*
X110783988Y-111876245D01*
X110783991Y-111876248D01*
X110787203Y-111878448D01*
X110792035Y-111882276D01*
X110815855Y-111903990D01*
X110826098Y-111907958D01*
X110844249Y-111917526D01*
X110853305Y-111923730D01*
X110853309Y-111923732D01*
X110878571Y-111929673D01*
X110884670Y-111931107D01*
X110890562Y-111932931D01*
X110920615Y-111944574D01*
X110931599Y-111944574D01*
X110951975Y-111946938D01*
X110955257Y-111947709D01*
X110962669Y-111949453D01*
X110994589Y-111945000D01*
X111000734Y-111944574D01*
X111414823Y-111944574D01*
X111472031Y-111965396D01*
X111482082Y-111975288D01*
X111495779Y-111991095D01*
X111605726Y-112061753D01*
X111605728Y-112061754D01*
X111642364Y-112072511D01*
X111731127Y-112098574D01*
X111731128Y-112098574D01*
X111861820Y-112098574D01*
X111861821Y-112098574D01*
X111987222Y-112061753D01*
X112097169Y-111991095D01*
X112182756Y-111892322D01*
X112224130Y-111801723D01*
X112266835Y-111758336D01*
X112327438Y-111752548D01*
X112330117Y-111753289D01*
X112352240Y-111759785D01*
X112352242Y-111759785D01*
X112482933Y-111759785D01*
X112482934Y-111759785D01*
X112608335Y-111722964D01*
X112718282Y-111652306D01*
X112803869Y-111553533D01*
X112858161Y-111434649D01*
X112876761Y-111305285D01*
X112873723Y-111284158D01*
X112886190Y-111224572D01*
X112934044Y-111186937D01*
X112936720Y-111186104D01*
X113033718Y-111157624D01*
X113143665Y-111086966D01*
X113229252Y-110988193D01*
X113283544Y-110869309D01*
X113302144Y-110739945D01*
X113283544Y-110610581D01*
X113265318Y-110570672D01*
X113229253Y-110491699D01*
X113229252Y-110491698D01*
X113229252Y-110491697D01*
X113143665Y-110392924D01*
X113055878Y-110336507D01*
X113033715Y-110322264D01*
X112934378Y-110293097D01*
X112908317Y-110285445D01*
X112777623Y-110285445D01*
X112652222Y-110322266D01*
X112652220Y-110322267D01*
X112646424Y-110323969D01*
X112621350Y-110327574D01*
X111500611Y-110327574D01*
X111443403Y-110306752D01*
X111437678Y-110301507D01*
X110936285Y-109800114D01*
X110928599Y-109789428D01*
X110927803Y-109790030D01*
X110922834Y-109783450D01*
X110922832Y-109783446D01*
X110887211Y-109750973D01*
X110885743Y-109749571D01*
X110871670Y-109735499D01*
X110868458Y-109733298D01*
X110863625Y-109729470D01*
X110839807Y-109707758D01*
X110829557Y-109703787D01*
X110811417Y-109694225D01*
X110802356Y-109688018D01*
X110802353Y-109688017D01*
X110770987Y-109680639D01*
X110765094Y-109678814D01*
X110735047Y-109667174D01*
X110724063Y-109667174D01*
X110703687Y-109664810D01*
X110692994Y-109662295D01*
X110692991Y-109662295D01*
X110685074Y-109663399D01*
X110661072Y-109666747D01*
X110654928Y-109667174D01*
X108706611Y-109667174D01*
X108649403Y-109646352D01*
X108643678Y-109641107D01*
X108080077Y-109077506D01*
X108072391Y-109066820D01*
X108071595Y-109067422D01*
X108066626Y-109060842D01*
X108066624Y-109060838D01*
X108031003Y-109028365D01*
X108029535Y-109026963D01*
X108015462Y-109012891D01*
X108012250Y-109010690D01*
X108007417Y-109006862D01*
X107983599Y-108985150D01*
X107973349Y-108981179D01*
X107955209Y-108971617D01*
X107946148Y-108965410D01*
X107938601Y-108962078D01*
X107939612Y-108959787D01*
X107898417Y-108932787D01*
X107880862Y-108874493D01*
X107888762Y-108842555D01*
X107919048Y-108776238D01*
X107937648Y-108646874D01*
X107919048Y-108517510D01*
X107895847Y-108466707D01*
X107886122Y-108445411D01*
X107881297Y-108384723D01*
X107916610Y-108335132D01*
X107967079Y-108319439D01*
X108178927Y-108319439D01*
X108236135Y-108340261D01*
X108241860Y-108345506D01*
X109163188Y-109266834D01*
X109170876Y-109277518D01*
X109171670Y-109276920D01*
X109176639Y-109283500D01*
X109212254Y-109315968D01*
X109213739Y-109317386D01*
X109227797Y-109331444D01*
X109227799Y-109331445D01*
X109227802Y-109331448D01*
X109231014Y-109333648D01*
X109235846Y-109337476D01*
X109251207Y-109351479D01*
X109259666Y-109359190D01*
X109269912Y-109363159D01*
X109288058Y-109372724D01*
X109297118Y-109378930D01*
X109328482Y-109386306D01*
X109334369Y-109388130D01*
X109361109Y-109398489D01*
X109364426Y-109399774D01*
X109375410Y-109399774D01*
X109395786Y-109402138D01*
X109400082Y-109403148D01*
X109406480Y-109404653D01*
X109438400Y-109400200D01*
X109444545Y-109399774D01*
X112591240Y-109399774D01*
X112604236Y-109401892D01*
X112604374Y-109400908D01*
X112612538Y-109402047D01*
X112612538Y-109402046D01*
X112612539Y-109402047D01*
X112660703Y-109399820D01*
X112662736Y-109399774D01*
X112682617Y-109399774D01*
X112682618Y-109399774D01*
X112686446Y-109399057D01*
X112692576Y-109398346D01*
X112724766Y-109396859D01*
X112734814Y-109392421D01*
X112754408Y-109386353D01*
X112765207Y-109384335D01*
X112792609Y-109367367D01*
X112798042Y-109364503D01*
X112827539Y-109351480D01*
X112835306Y-109343712D01*
X112851385Y-109330976D01*
X112860726Y-109325193D01*
X112880151Y-109299468D01*
X112884188Y-109294829D01*
X113102377Y-109076641D01*
X113157554Y-109050913D01*
X113165310Y-109050574D01*
X113223320Y-109050574D01*
X113223321Y-109050574D01*
X113348722Y-109013753D01*
X113458669Y-108943095D01*
X113544256Y-108844322D01*
X113598548Y-108725438D01*
X113617148Y-108596074D01*
X113598548Y-108466710D01*
X113589221Y-108446287D01*
X113544257Y-108347828D01*
X113544256Y-108347827D01*
X113544256Y-108347826D01*
X113458669Y-108249053D01*
X113348722Y-108178395D01*
X113348719Y-108178393D01*
X113249382Y-108149226D01*
X113223321Y-108141574D01*
X113092627Y-108141574D01*
X112967228Y-108178393D01*
X112857280Y-108249052D01*
X112771690Y-108347828D01*
X112717400Y-108466707D01*
X112697894Y-108602374D01*
X112695654Y-108602052D01*
X112677978Y-108650619D01*
X112672731Y-108656345D01*
X112652691Y-108676384D01*
X112597515Y-108702112D01*
X112538710Y-108686353D01*
X112503792Y-108636483D01*
X112501666Y-108600787D01*
X112509648Y-108545274D01*
X112491048Y-108415910D01*
X112459955Y-108347826D01*
X112436757Y-108297028D01*
X112436756Y-108297027D01*
X112436756Y-108297026D01*
X112351169Y-108198253D01*
X112324471Y-108181095D01*
X112323460Y-108180445D01*
X112286591Y-108131999D01*
X112289489Y-108071188D01*
X112290595Y-108068659D01*
X112338648Y-107963438D01*
X112357248Y-107834074D01*
X112338648Y-107704710D01*
X112337211Y-107701564D01*
X112284357Y-107585828D01*
X112284356Y-107585827D01*
X112284356Y-107585826D01*
X112198769Y-107487053D01*
X112088822Y-107416395D01*
X112088819Y-107416393D01*
X111989482Y-107387226D01*
X111963421Y-107379574D01*
X111832727Y-107379574D01*
X111707328Y-107416393D01*
X111597378Y-107487053D01*
X111583685Y-107502857D01*
X111530485Y-107532456D01*
X111516423Y-107533574D01*
X110659151Y-107533574D01*
X110601943Y-107512752D01*
X110571503Y-107460029D01*
X110582075Y-107400074D01*
X110588119Y-107390950D01*
X110605851Y-107367468D01*
X110609888Y-107362829D01*
X110777277Y-107195441D01*
X110832454Y-107169713D01*
X110840210Y-107169374D01*
X111906815Y-107169374D01*
X111919811Y-107171492D01*
X111919949Y-107170508D01*
X111928113Y-107171647D01*
X111928113Y-107171646D01*
X111928114Y-107171647D01*
X111976278Y-107169420D01*
X111978311Y-107169374D01*
X111998192Y-107169374D01*
X111998193Y-107169374D01*
X112002021Y-107168657D01*
X112008151Y-107167946D01*
X112040341Y-107166459D01*
X112050389Y-107162021D01*
X112069983Y-107155953D01*
X112080782Y-107153935D01*
X112108184Y-107136967D01*
X112113617Y-107134103D01*
X112143114Y-107121080D01*
X112150881Y-107113312D01*
X112166960Y-107100576D01*
X112176301Y-107094793D01*
X112195726Y-107069068D01*
X112199763Y-107064429D01*
X112728880Y-106535313D01*
X112770705Y-106514381D01*
X112770114Y-106512367D01*
X112776220Y-106510574D01*
X112776221Y-106510574D01*
X112901622Y-106473753D01*
X113011569Y-106403095D01*
X113097156Y-106304322D01*
X113151448Y-106185438D01*
X113170048Y-106056074D01*
X113151448Y-105926710D01*
X113146415Y-105915690D01*
X113097157Y-105807828D01*
X113097156Y-105807827D01*
X113097156Y-105807826D01*
X113011569Y-105709053D01*
X112901622Y-105638395D01*
X112901619Y-105638393D01*
X112802282Y-105609226D01*
X112776221Y-105601574D01*
X112645527Y-105601574D01*
X112520128Y-105638393D01*
X112456574Y-105679236D01*
X112410179Y-105709053D01*
X112410177Y-105709054D01*
X112404824Y-105712495D01*
X112403262Y-105710064D01*
X112356661Y-105727853D01*
X112306926Y-105710624D01*
X112305724Y-105712495D01*
X112300370Y-105709054D01*
X112300369Y-105709053D01*
X112190422Y-105638395D01*
X112190419Y-105638393D01*
X112091082Y-105609226D01*
X112065021Y-105601574D01*
X111934327Y-105601574D01*
X111808927Y-105638394D01*
X111808925Y-105638395D01*
X111745145Y-105679383D01*
X111685761Y-105692795D01*
X111631649Y-105664897D01*
X111627382Y-105659380D01*
X111623956Y-105655426D01*
X111538369Y-105556653D01*
X111428422Y-105485995D01*
X111428419Y-105485993D01*
X111329082Y-105456826D01*
X111303021Y-105449174D01*
X111172327Y-105449174D01*
X111046928Y-105485993D01*
X110936978Y-105556653D01*
X110923285Y-105572457D01*
X110870085Y-105602056D01*
X110856023Y-105603174D01*
X110129011Y-105603174D01*
X110071803Y-105582352D01*
X110066078Y-105577107D01*
X109209085Y-104720114D01*
X109201399Y-104709428D01*
X109200603Y-104710030D01*
X109195634Y-104703450D01*
X109195632Y-104703446D01*
X109160011Y-104670973D01*
X109158543Y-104669571D01*
X109144470Y-104655499D01*
X109141258Y-104653298D01*
X109136425Y-104649470D01*
X109112607Y-104627758D01*
X109102357Y-104623787D01*
X109084217Y-104614225D01*
X109075156Y-104608018D01*
X109075153Y-104608017D01*
X109043787Y-104600639D01*
X109037894Y-104598814D01*
X109007847Y-104587174D01*
X108996863Y-104587174D01*
X108976487Y-104584810D01*
X108965794Y-104582295D01*
X108965791Y-104582295D01*
X108957874Y-104583399D01*
X108933872Y-104586747D01*
X108927728Y-104587174D01*
X108206253Y-104587174D01*
X108149045Y-104566352D01*
X108118605Y-104513629D01*
X108125296Y-104461202D01*
X108163253Y-104378085D01*
X108173048Y-104356638D01*
X108191648Y-104227274D01*
X108189272Y-104210752D01*
X108187231Y-104196552D01*
X108173048Y-104097910D01*
X108165496Y-104081374D01*
X108118757Y-103979028D01*
X108118756Y-103979027D01*
X108118756Y-103979026D01*
X108033169Y-103880253D01*
X108030977Y-103878844D01*
X108029881Y-103877403D01*
X108028357Y-103876083D01*
X108028633Y-103875764D01*
X107994109Y-103830399D01*
X107997007Y-103769588D01*
X108038315Y-103724867D01*
X108079096Y-103714974D01*
X112600338Y-103714974D01*
X112657546Y-103735796D01*
X112663258Y-103741029D01*
X114111507Y-105189279D01*
X114137234Y-105244452D01*
X114137573Y-105252209D01*
X114137573Y-111177937D01*
X114116751Y-111235145D01*
X114111506Y-111240869D01*
X111799671Y-113552706D01*
X111744495Y-113578435D01*
X111736738Y-113578774D01*
X108608809Y-113578774D01*
X108595812Y-113576655D01*
X108595675Y-113577640D01*
X108587510Y-113576500D01*
X108555873Y-113577963D01*
X108539345Y-113578727D01*
X108537313Y-113578774D01*
X108517430Y-113578774D01*
X108517427Y-113578774D01*
X108517418Y-113578775D01*
X108513594Y-113579490D01*
X108507471Y-113580200D01*
X108483418Y-113581312D01*
X108475282Y-113581689D01*
X108465225Y-113586129D01*
X108445642Y-113592193D01*
X108434841Y-113594212D01*
X108434837Y-113594214D01*
X108407438Y-113611177D01*
X108401984Y-113614052D01*
X108372510Y-113627066D01*
X108364738Y-113634838D01*
X108348666Y-113647568D01*
X108339324Y-113653352D01*
X108339322Y-113653354D01*
X108319902Y-113679068D01*
X108315853Y-113683721D01*
X107514111Y-114485464D01*
X107503430Y-114493153D01*
X107504028Y-114493945D01*
X107497443Y-114498918D01*
X107464970Y-114534539D01*
X107463551Y-114536024D01*
X107449501Y-114550075D01*
X107449492Y-114550085D01*
X107447289Y-114553301D01*
X107443467Y-114558125D01*
X107421759Y-114581939D01*
X107421755Y-114581945D01*
X107417786Y-114592191D01*
X107408226Y-114610329D01*
X107402016Y-114619394D01*
X107394638Y-114650762D01*
X107392814Y-114656653D01*
X107381173Y-114686702D01*
X107381173Y-114697690D01*
X107378810Y-114718057D01*
X107376295Y-114728752D01*
X107376295Y-114728755D01*
X107380747Y-114760676D01*
X107381174Y-114766818D01*
X107381174Y-119869835D01*
X107360352Y-119927043D01*
X107340292Y-119944706D01*
X107279381Y-119983851D01*
X107279379Y-119983852D01*
X107279379Y-119983853D01*
X107236585Y-120033239D01*
X107193790Y-120082628D01*
X107139500Y-120201507D01*
X107120900Y-120330873D01*
X107120900Y-120330874D01*
X107139500Y-120460240D01*
X107193790Y-120579119D01*
X107193791Y-120579120D01*
X107193792Y-120579122D01*
X107279379Y-120677895D01*
X107336866Y-120714839D01*
X107389328Y-120748554D01*
X107425964Y-120759311D01*
X107514727Y-120785374D01*
X107514728Y-120785374D01*
X107645420Y-120785374D01*
X107645421Y-120785374D01*
X107770822Y-120748553D01*
X107880769Y-120677895D01*
X107966356Y-120579122D01*
X108020648Y-120460238D01*
X108039248Y-120330874D01*
X108020648Y-120201510D01*
X107990216Y-120134871D01*
X107982174Y-120097900D01*
X107982174Y-117943274D01*
X109813300Y-117943274D01*
X109831900Y-118072640D01*
X109886190Y-118191519D01*
X109886191Y-118191520D01*
X109886192Y-118191522D01*
X109971779Y-118290295D01*
X110080047Y-118359874D01*
X110081728Y-118360954D01*
X110118364Y-118371711D01*
X110207127Y-118397774D01*
X110207128Y-118397774D01*
X110337820Y-118397774D01*
X110337821Y-118397774D01*
X110463222Y-118360953D01*
X110573169Y-118290295D01*
X110658756Y-118191522D01*
X110713048Y-118072638D01*
X110731648Y-117943274D01*
X110713048Y-117813910D01*
X110658756Y-117695026D01*
X110573169Y-117596253D01*
X110463222Y-117525595D01*
X110463219Y-117525593D01*
X110363139Y-117496208D01*
X110337821Y-117488774D01*
X110207127Y-117488774D01*
X110081728Y-117525593D01*
X109971780Y-117596252D01*
X109886190Y-117695028D01*
X109831900Y-117813907D01*
X109813300Y-117943273D01*
X109813300Y-117943274D01*
X107982174Y-117943274D01*
X107982174Y-116774874D01*
X109813300Y-116774874D01*
X109831900Y-116904240D01*
X109886190Y-117023119D01*
X109886191Y-117023120D01*
X109886192Y-117023122D01*
X109971779Y-117121895D01*
X110081726Y-117192553D01*
X110081728Y-117192554D01*
X110118364Y-117203311D01*
X110207127Y-117229374D01*
X110207128Y-117229374D01*
X110337820Y-117229374D01*
X110337821Y-117229374D01*
X110463222Y-117192553D01*
X110573169Y-117121895D01*
X110658756Y-117023122D01*
X110713048Y-116904238D01*
X110731648Y-116774874D01*
X110713048Y-116645510D01*
X110686072Y-116586441D01*
X110658757Y-116526628D01*
X110658756Y-116526627D01*
X110658756Y-116526626D01*
X110573169Y-116427853D01*
X110463222Y-116357195D01*
X110463219Y-116357193D01*
X110363882Y-116328026D01*
X110337821Y-116320374D01*
X110207127Y-116320374D01*
X110081728Y-116357193D01*
X109971780Y-116427852D01*
X109886190Y-116526628D01*
X109831900Y-116645507D01*
X109813300Y-116774873D01*
X109813300Y-116774874D01*
X107982174Y-116774874D01*
X107982174Y-114904209D01*
X108002996Y-114847001D01*
X108008242Y-114841276D01*
X108643678Y-114205841D01*
X108698853Y-114180113D01*
X108706610Y-114179774D01*
X111834540Y-114179774D01*
X111847536Y-114181892D01*
X111847674Y-114180908D01*
X111855838Y-114182047D01*
X111855838Y-114182046D01*
X111855839Y-114182047D01*
X111904003Y-114179820D01*
X111906036Y-114179774D01*
X111925917Y-114179774D01*
X111925918Y-114179774D01*
X111929746Y-114179057D01*
X111935876Y-114178346D01*
X111968066Y-114176859D01*
X111978114Y-114172421D01*
X111997708Y-114166353D01*
X112008507Y-114164335D01*
X112035909Y-114147367D01*
X112041342Y-114144503D01*
X112070839Y-114131480D01*
X112078606Y-114123712D01*
X112094685Y-114110976D01*
X112104026Y-114105193D01*
X112123448Y-114079472D01*
X112127492Y-114074826D01*
X113314382Y-112887936D01*
X114605633Y-111596684D01*
X114616323Y-111589000D01*
X114615720Y-111588202D01*
X114622303Y-111583231D01*
X114628609Y-111576313D01*
X114654805Y-111547576D01*
X114656166Y-111546151D01*
X114670248Y-111532071D01*
X114672453Y-111528850D01*
X114676269Y-111524033D01*
X114697990Y-111500207D01*
X114701960Y-111489958D01*
X114711524Y-111471813D01*
X114717730Y-111462755D01*
X114725107Y-111431385D01*
X114726928Y-111425506D01*
X114738574Y-111395447D01*
X114738574Y-111384462D01*
X114740938Y-111364085D01*
X114743453Y-111353393D01*
X114738999Y-111321474D01*
X114738573Y-111315325D01*
X114738573Y-108244774D01*
X114738573Y-105154404D01*
X114740700Y-105141418D01*
X114739708Y-105141280D01*
X114740847Y-105133113D01*
X114740847Y-105133110D01*
X114738620Y-105084946D01*
X114738574Y-105082912D01*
X114738574Y-105063031D01*
X114737858Y-105059204D01*
X114737146Y-105053080D01*
X114735659Y-105020883D01*
X114731220Y-105010830D01*
X114725153Y-104991242D01*
X114723135Y-104980441D01*
X114706166Y-104953036D01*
X114703296Y-104947589D01*
X114690280Y-104918109D01*
X114690279Y-104918108D01*
X114690280Y-104918108D01*
X114682509Y-104910337D01*
X114669775Y-104894260D01*
X114663993Y-104884922D01*
X114663991Y-104884920D01*
X114638282Y-104865506D01*
X114633627Y-104861455D01*
X113689545Y-103917374D01*
X155571506Y-103917374D01*
X155571803Y-103919315D01*
X155642439Y-104110040D01*
X155750020Y-104282637D01*
X155750020Y-104282638D01*
X155890138Y-104430041D01*
X155890142Y-104430044D01*
X156057068Y-104546229D01*
X156057072Y-104546230D01*
X156243965Y-104626433D01*
X156243975Y-104626436D01*
X156443176Y-104667372D01*
X156443187Y-104667374D01*
X156494873Y-104667374D01*
X156494874Y-104667373D01*
X156494874Y-104081374D01*
X156515696Y-104024166D01*
X156568419Y-103993726D01*
X156583874Y-103992374D01*
X156905874Y-103992374D01*
X156963082Y-104013196D01*
X156993522Y-104065919D01*
X156994874Y-104081374D01*
X156994874Y-104667373D01*
X156994875Y-104667374D01*
X156995593Y-104667374D01*
X157147205Y-104651956D01*
X157147219Y-104651953D01*
X157341256Y-104591073D01*
X157341266Y-104591069D01*
X157519089Y-104492368D01*
X157673405Y-104359893D01*
X157783723Y-104217374D01*
X158451687Y-104217374D01*
X158464036Y-104283434D01*
X158541024Y-104482167D01*
X158541029Y-104482176D01*
X158653219Y-104663370D01*
X158796804Y-104820875D01*
X158966878Y-104949309D01*
X159157668Y-105044311D01*
X159362649Y-105102634D01*
X159362662Y-105102637D01*
X159521697Y-105117373D01*
X159521706Y-105117374D01*
X159524873Y-105117374D01*
X159524874Y-105117373D01*
X159524874Y-104406374D01*
X159545696Y-104349166D01*
X159598419Y-104318726D01*
X159613874Y-104317374D01*
X159935874Y-104317374D01*
X159993082Y-104338196D01*
X160023522Y-104390919D01*
X160024874Y-104406374D01*
X160024874Y-105117373D01*
X160024875Y-105117374D01*
X160028042Y-105117374D01*
X160028050Y-105117373D01*
X160187085Y-105102637D01*
X160187098Y-105102634D01*
X160392079Y-105044311D01*
X160582869Y-104949309D01*
X160752943Y-104820875D01*
X160896528Y-104663370D01*
X161008718Y-104482176D01*
X161008723Y-104482167D01*
X161085711Y-104283434D01*
X161098061Y-104217374D01*
X160433629Y-104217374D01*
X160376421Y-104196552D01*
X160345981Y-104143829D01*
X160352124Y-104092625D01*
X160368856Y-104054482D01*
X160378502Y-103938072D01*
X160350684Y-103828220D01*
X160356826Y-103767653D01*
X160400463Y-103725202D01*
X160436961Y-103717374D01*
X161098061Y-103717374D01*
X161098060Y-103717373D01*
X161085711Y-103651313D01*
X161008723Y-103452580D01*
X161008718Y-103452571D01*
X160896528Y-103271377D01*
X160752943Y-103113872D01*
X160582869Y-102985438D01*
X160392079Y-102890436D01*
X160187098Y-102832113D01*
X160187085Y-102832110D01*
X160028050Y-102817374D01*
X160024875Y-102817374D01*
X160024874Y-102817375D01*
X160024874Y-103528374D01*
X160004052Y-103585582D01*
X159951329Y-103616022D01*
X159935874Y-103617374D01*
X159613874Y-103617374D01*
X159556666Y-103596552D01*
X159526226Y-103543829D01*
X159524874Y-103528374D01*
X159524874Y-102817375D01*
X159524873Y-102817374D01*
X159521697Y-102817374D01*
X159362662Y-102832110D01*
X159362649Y-102832113D01*
X159157668Y-102890436D01*
X158966878Y-102985438D01*
X158796804Y-103113872D01*
X158653219Y-103271377D01*
X158541029Y-103452571D01*
X158541024Y-103452580D01*
X158464036Y-103651313D01*
X158451687Y-103717373D01*
X158451687Y-103717374D01*
X159116119Y-103717374D01*
X159173327Y-103738196D01*
X159203767Y-103790919D01*
X159197623Y-103842122D01*
X159190301Y-103858815D01*
X159180891Y-103880267D01*
X159171602Y-103992374D01*
X159171246Y-103996676D01*
X159197486Y-104100298D01*
X159199064Y-104106526D01*
X159192922Y-104167095D01*
X159149285Y-104209546D01*
X159112787Y-104217374D01*
X158451687Y-104217374D01*
X157783723Y-104217374D01*
X157797892Y-104199069D01*
X157797893Y-104199067D01*
X157887461Y-104016470D01*
X157913120Y-103917374D01*
X157326845Y-103917374D01*
X157269637Y-103896552D01*
X157239197Y-103843829D01*
X157243212Y-103797935D01*
X157263919Y-103741041D01*
X157269874Y-103724680D01*
X157269874Y-103610068D01*
X157243212Y-103536812D01*
X157243213Y-103475933D01*
X157282346Y-103429297D01*
X157326845Y-103417374D01*
X157918241Y-103417374D01*
X157918241Y-103417373D01*
X157917944Y-103415432D01*
X157847308Y-103224707D01*
X157739727Y-103052110D01*
X157739727Y-103052109D01*
X157599609Y-102904706D01*
X157599605Y-102904703D01*
X157432679Y-102788518D01*
X157432675Y-102788517D01*
X157245782Y-102708314D01*
X157245772Y-102708311D01*
X157046571Y-102667375D01*
X157046561Y-102667374D01*
X156994874Y-102667374D01*
X156994874Y-103253374D01*
X156974052Y-103310582D01*
X156921329Y-103341022D01*
X156905874Y-103342374D01*
X156583874Y-103342374D01*
X156526666Y-103321552D01*
X156496226Y-103268829D01*
X156494874Y-103253374D01*
X156494874Y-102667374D01*
X156494154Y-102667374D01*
X156342542Y-102682791D01*
X156342528Y-102682794D01*
X156148491Y-102743674D01*
X156148481Y-102743678D01*
X155970658Y-102842379D01*
X155816342Y-102974854D01*
X155691855Y-103135678D01*
X155691854Y-103135680D01*
X155602286Y-103318277D01*
X155576628Y-103417374D01*
X156162903Y-103417374D01*
X156220111Y-103438196D01*
X156250551Y-103490919D01*
X156246536Y-103536812D01*
X156219874Y-103610068D01*
X156219874Y-103724680D01*
X156225829Y-103741041D01*
X156246536Y-103797935D01*
X156246535Y-103858815D01*
X156207402Y-103905451D01*
X156162903Y-103917374D01*
X155571506Y-103917374D01*
X113689545Y-103917374D01*
X113019085Y-103246914D01*
X113011399Y-103236228D01*
X113010603Y-103236830D01*
X113005634Y-103230250D01*
X113005632Y-103230246D01*
X112970011Y-103197773D01*
X112968543Y-103196371D01*
X112954470Y-103182299D01*
X112951258Y-103180098D01*
X112946425Y-103176270D01*
X112922607Y-103154558D01*
X112912357Y-103150587D01*
X112894217Y-103141025D01*
X112885156Y-103134818D01*
X112885153Y-103134817D01*
X112853787Y-103127439D01*
X112847894Y-103125614D01*
X112817847Y-103113974D01*
X112806863Y-103113974D01*
X112786487Y-103111610D01*
X112775794Y-103109095D01*
X112775791Y-103109095D01*
X112767874Y-103110199D01*
X112743872Y-103113547D01*
X112737728Y-103113974D01*
X103935811Y-103113974D01*
X103878603Y-103093152D01*
X103872879Y-103087907D01*
X102958420Y-102173448D01*
X102027259Y-101242288D01*
X102001531Y-101187113D01*
X102017287Y-101128308D01*
X102020332Y-101124404D01*
X102021154Y-101123124D01*
X102021153Y-101123124D01*
X102021156Y-101123122D01*
X102075448Y-101004238D01*
X102094048Y-100874874D01*
X102075448Y-100745510D01*
X102021156Y-100626626D01*
X101935569Y-100527853D01*
X101825622Y-100457195D01*
X101825619Y-100457193D01*
X101726282Y-100428026D01*
X101700221Y-100420374D01*
X101569527Y-100420374D01*
X101444128Y-100457193D01*
X101334180Y-100527852D01*
X101248590Y-100626628D01*
X101194300Y-100745507D01*
X101175700Y-100874873D01*
X101175700Y-100874874D01*
X101194300Y-101004240D01*
X101248590Y-101123120D01*
X101248592Y-101123123D01*
X101299796Y-101182215D01*
X101321523Y-101239085D01*
X101301611Y-101296616D01*
X101249377Y-101327889D01*
X101189262Y-101318269D01*
X101169601Y-101303430D01*
X100979485Y-101113314D01*
X100971799Y-101102628D01*
X100971003Y-101103230D01*
X100966034Y-101096650D01*
X100966032Y-101096646D01*
X100930411Y-101064173D01*
X100928943Y-101062771D01*
X100914870Y-101048699D01*
X100911658Y-101046498D01*
X100906825Y-101042670D01*
X100883007Y-101020958D01*
X100872757Y-101016987D01*
X100854617Y-101007425D01*
X100845556Y-101001218D01*
X100845553Y-101001217D01*
X100814187Y-100993839D01*
X100808294Y-100992014D01*
X100778247Y-100980374D01*
X100767263Y-100980374D01*
X100746887Y-100978010D01*
X100736194Y-100975495D01*
X100736191Y-100975495D01*
X100728274Y-100976599D01*
X100704272Y-100979947D01*
X100698128Y-100980374D01*
X99257811Y-100980374D01*
X99200603Y-100959552D01*
X99194878Y-100954307D01*
X97307945Y-99067374D01*
X155571506Y-99067374D01*
X155571803Y-99069315D01*
X155642439Y-99260040D01*
X155750020Y-99432637D01*
X155750020Y-99432638D01*
X155890138Y-99580041D01*
X155890142Y-99580044D01*
X156057068Y-99696229D01*
X156057072Y-99696230D01*
X156243965Y-99776433D01*
X156243975Y-99776436D01*
X156443176Y-99817372D01*
X156443187Y-99817374D01*
X156494873Y-99817374D01*
X156494874Y-99817373D01*
X156494874Y-99231374D01*
X156515696Y-99174166D01*
X156568419Y-99143726D01*
X156583874Y-99142374D01*
X156905874Y-99142374D01*
X156963082Y-99163196D01*
X156993522Y-99215919D01*
X156994874Y-99231374D01*
X156994874Y-99817373D01*
X156994875Y-99817374D01*
X156995593Y-99817374D01*
X157147205Y-99801956D01*
X157147219Y-99801953D01*
X157341256Y-99741073D01*
X157341266Y-99741069D01*
X157519089Y-99642368D01*
X157673405Y-99509893D01*
X157797892Y-99349069D01*
X157797893Y-99349067D01*
X157887461Y-99166470D01*
X157913120Y-99067374D01*
X157326845Y-99067374D01*
X157269637Y-99046552D01*
X157239197Y-98993829D01*
X157243212Y-98947935D01*
X157261355Y-98898086D01*
X157269874Y-98874680D01*
X157269874Y-98767374D01*
X158451687Y-98767374D01*
X158464036Y-98833434D01*
X158541024Y-99032167D01*
X158541029Y-99032176D01*
X158653219Y-99213370D01*
X158796804Y-99370875D01*
X158966878Y-99499309D01*
X159157668Y-99594311D01*
X159362649Y-99652634D01*
X159362662Y-99652637D01*
X159521697Y-99667373D01*
X159521706Y-99667374D01*
X159524873Y-99667374D01*
X159524874Y-99667372D01*
X159524874Y-98956374D01*
X159545696Y-98899166D01*
X159598419Y-98868726D01*
X159613874Y-98867374D01*
X159935874Y-98867374D01*
X159993082Y-98888196D01*
X160023522Y-98940919D01*
X160024874Y-98956374D01*
X160024874Y-99667372D01*
X160024875Y-99667374D01*
X160028042Y-99667374D01*
X160028050Y-99667373D01*
X160187085Y-99652637D01*
X160187098Y-99652634D01*
X160392079Y-99594311D01*
X160582869Y-99499309D01*
X160752943Y-99370875D01*
X160896528Y-99213370D01*
X161008718Y-99032176D01*
X161008723Y-99032167D01*
X161085711Y-98833434D01*
X161098061Y-98767374D01*
X160433629Y-98767374D01*
X160376421Y-98746552D01*
X160345981Y-98693829D01*
X160352124Y-98642625D01*
X160368856Y-98604482D01*
X160378502Y-98488072D01*
X160350684Y-98378220D01*
X160356826Y-98317653D01*
X160400463Y-98275202D01*
X160436961Y-98267374D01*
X161098061Y-98267374D01*
X161098060Y-98267373D01*
X161085711Y-98201313D01*
X161008723Y-98002580D01*
X161008718Y-98002571D01*
X160896528Y-97821377D01*
X160752943Y-97663872D01*
X160582869Y-97535438D01*
X160392079Y-97440436D01*
X160187098Y-97382113D01*
X160187085Y-97382110D01*
X160028050Y-97367374D01*
X160024875Y-97367374D01*
X160024874Y-97367375D01*
X160024874Y-98078374D01*
X160004052Y-98135582D01*
X159951329Y-98166022D01*
X159935874Y-98167374D01*
X159613874Y-98167374D01*
X159556666Y-98146552D01*
X159526226Y-98093829D01*
X159524874Y-98078374D01*
X159524874Y-97367375D01*
X159524873Y-97367374D01*
X159521697Y-97367374D01*
X159362662Y-97382110D01*
X159362649Y-97382113D01*
X159157668Y-97440436D01*
X158966878Y-97535438D01*
X158796804Y-97663872D01*
X158653219Y-97821377D01*
X158541029Y-98002571D01*
X158541024Y-98002580D01*
X158464036Y-98201313D01*
X158451687Y-98267373D01*
X158451687Y-98267374D01*
X159116119Y-98267374D01*
X159173327Y-98288196D01*
X159203767Y-98340919D01*
X159197623Y-98392122D01*
X159192688Y-98403374D01*
X159180891Y-98430267D01*
X159174512Y-98507262D01*
X159171246Y-98546676D01*
X159198010Y-98652367D01*
X159199064Y-98656526D01*
X159192922Y-98717095D01*
X159149285Y-98759546D01*
X159112787Y-98767374D01*
X158451687Y-98767374D01*
X157269874Y-98767374D01*
X157269874Y-98760068D01*
X157243212Y-98686812D01*
X157243213Y-98625933D01*
X157282346Y-98579297D01*
X157326845Y-98567374D01*
X157918241Y-98567374D01*
X157918241Y-98567373D01*
X157917944Y-98565432D01*
X157847308Y-98374707D01*
X157739727Y-98202110D01*
X157739727Y-98202109D01*
X157599609Y-98054706D01*
X157599605Y-98054703D01*
X157432679Y-97938518D01*
X157432675Y-97938517D01*
X157245782Y-97858314D01*
X157245772Y-97858311D01*
X157046571Y-97817375D01*
X157046561Y-97817374D01*
X156994874Y-97817374D01*
X156994874Y-98403374D01*
X156974052Y-98460582D01*
X156921329Y-98491022D01*
X156905874Y-98492374D01*
X156583874Y-98492374D01*
X156526666Y-98471552D01*
X156496226Y-98418829D01*
X156494874Y-98403374D01*
X156494874Y-97817375D01*
X156494873Y-97817374D01*
X156494154Y-97817374D01*
X156342542Y-97832791D01*
X156342528Y-97832794D01*
X156148491Y-97893674D01*
X156148481Y-97893678D01*
X155970658Y-97992379D01*
X155816342Y-98124854D01*
X155691855Y-98285678D01*
X155691854Y-98285680D01*
X155602286Y-98468277D01*
X155576628Y-98567374D01*
X156162903Y-98567374D01*
X156220111Y-98588196D01*
X156250551Y-98640919D01*
X156246536Y-98686812D01*
X156219874Y-98760068D01*
X156219874Y-98874680D01*
X156228393Y-98898086D01*
X156246536Y-98947935D01*
X156246535Y-99008815D01*
X156207402Y-99055451D01*
X156162903Y-99067374D01*
X155571506Y-99067374D01*
X97307945Y-99067374D01*
X95145445Y-96904874D01*
X100535700Y-96904874D01*
X100554300Y-97034240D01*
X100608590Y-97153119D01*
X100608591Y-97153120D01*
X100608592Y-97153122D01*
X100694179Y-97251895D01*
X100804126Y-97322553D01*
X100804128Y-97322554D01*
X100829590Y-97330030D01*
X100929527Y-97359374D01*
X100929528Y-97359374D01*
X101060220Y-97359374D01*
X101060221Y-97359374D01*
X101185622Y-97322553D01*
X101295569Y-97251895D01*
X101381156Y-97153122D01*
X101435448Y-97034238D01*
X101454048Y-96904874D01*
X101435448Y-96775510D01*
X101381156Y-96656626D01*
X101295569Y-96557853D01*
X101185622Y-96487195D01*
X101185619Y-96487193D01*
X101086282Y-96458026D01*
X101060221Y-96450374D01*
X100929527Y-96450374D01*
X100804128Y-96487193D01*
X100694180Y-96557852D01*
X100608590Y-96656628D01*
X100554300Y-96775507D01*
X100535700Y-96904873D01*
X100535700Y-96904874D01*
X95145445Y-96904874D01*
X90431441Y-92190870D01*
X90405713Y-92135694D01*
X90405374Y-92127937D01*
X90405374Y-89434874D01*
X98535700Y-89434874D01*
X98554300Y-89564240D01*
X98608590Y-89683119D01*
X98608591Y-89683120D01*
X98608592Y-89683122D01*
X98694179Y-89781895D01*
X98804126Y-89852553D01*
X98804128Y-89852554D01*
X98840764Y-89863311D01*
X98929527Y-89889374D01*
X98929528Y-89889374D01*
X99060220Y-89889374D01*
X99060221Y-89889374D01*
X99185622Y-89852553D01*
X99295569Y-89781895D01*
X99381156Y-89683122D01*
X99435448Y-89564238D01*
X99449735Y-89464874D01*
X101835700Y-89464874D01*
X101854300Y-89594240D01*
X101908590Y-89713119D01*
X101908591Y-89713120D01*
X101908592Y-89713122D01*
X101994179Y-89811895D01*
X102104126Y-89882553D01*
X102104128Y-89882554D01*
X102127356Y-89889374D01*
X102229527Y-89919374D01*
X102229528Y-89919374D01*
X102360220Y-89919374D01*
X102360221Y-89919374D01*
X102485622Y-89882553D01*
X102595569Y-89811895D01*
X102681156Y-89713122D01*
X102735448Y-89594238D01*
X102754048Y-89464874D01*
X102735448Y-89335510D01*
X102734495Y-89333424D01*
X102681157Y-89216628D01*
X102681156Y-89216627D01*
X102681156Y-89216626D01*
X102595569Y-89117853D01*
X102485622Y-89047195D01*
X102485619Y-89047193D01*
X102383444Y-89017193D01*
X102360221Y-89010374D01*
X102229527Y-89010374D01*
X102104128Y-89047193D01*
X101994180Y-89117852D01*
X101908590Y-89216628D01*
X101854300Y-89335507D01*
X101835700Y-89464873D01*
X101835700Y-89464874D01*
X99449735Y-89464874D01*
X99454048Y-89434874D01*
X99435448Y-89305510D01*
X99394856Y-89216626D01*
X99381157Y-89186628D01*
X99381156Y-89186627D01*
X99381156Y-89186626D01*
X99295569Y-89087853D01*
X99185622Y-89017195D01*
X99185619Y-89017193D01*
X99086282Y-88988026D01*
X99060221Y-88980374D01*
X98929527Y-88980374D01*
X98804128Y-89017193D01*
X98694180Y-89087852D01*
X98608590Y-89186628D01*
X98554300Y-89305507D01*
X98535700Y-89434873D01*
X98535700Y-89434874D01*
X90405374Y-89434874D01*
X90405374Y-88593610D01*
X90407494Y-88580616D01*
X90406508Y-88580479D01*
X90407647Y-88572312D01*
X90405421Y-88524166D01*
X90405374Y-88522111D01*
X90405374Y-88502231D01*
X90404658Y-88498404D01*
X90403946Y-88492280D01*
X90402459Y-88460082D01*
X90398019Y-88450027D01*
X90391953Y-88430441D01*
X90389935Y-88419641D01*
X90387170Y-88415175D01*
X90372975Y-88392248D01*
X90370098Y-88386791D01*
X90367905Y-88381824D01*
X90357080Y-88357308D01*
X90354878Y-88355106D01*
X90349306Y-88349533D01*
X90336571Y-88333454D01*
X90330794Y-88324123D01*
X90330792Y-88324121D01*
X90305082Y-88304706D01*
X90300428Y-88300656D01*
X89212087Y-87212316D01*
X89204399Y-87201628D01*
X89203603Y-87202230D01*
X89198634Y-87195650D01*
X89198632Y-87195646D01*
X89163011Y-87163173D01*
X89161543Y-87161771D01*
X89147470Y-87147699D01*
X89144258Y-87145498D01*
X89139425Y-87141670D01*
X89115607Y-87119958D01*
X89105357Y-87115987D01*
X89087217Y-87106425D01*
X89078156Y-87100218D01*
X89078153Y-87100217D01*
X89046787Y-87092839D01*
X89040894Y-87091014D01*
X89010847Y-87079374D01*
X88999863Y-87079374D01*
X88979487Y-87077010D01*
X88968794Y-87074495D01*
X88968791Y-87074495D01*
X88960874Y-87075599D01*
X88936872Y-87078947D01*
X88930728Y-87079374D01*
X87822495Y-87079374D01*
X87765287Y-87058552D01*
X87737327Y-87016208D01*
X87725107Y-86975924D01*
X87725106Y-86975920D01*
X87627559Y-86793424D01*
X87496284Y-86633464D01*
X87336324Y-86502189D01*
X87153828Y-86404642D01*
X87153827Y-86404641D01*
X87153824Y-86404640D01*
X86967802Y-86348212D01*
X86919101Y-86311680D01*
X86905277Y-86252391D01*
X86932797Y-86198086D01*
X86981572Y-86176313D01*
X86981362Y-86175119D01*
X86985197Y-86174442D01*
X87213360Y-86113306D01*
X87213369Y-86113303D01*
X87427447Y-86013477D01*
X87427449Y-86013475D01*
X87620949Y-85877985D01*
X87787985Y-85710949D01*
X87923475Y-85517449D01*
X87923477Y-85517447D01*
X88023303Y-85303369D01*
X88023306Y-85303360D01*
X88080510Y-85089874D01*
X87316466Y-85089874D01*
X87259258Y-85069052D01*
X87228818Y-85016329D01*
X87231071Y-84975800D01*
X87242389Y-84937253D01*
X105295763Y-84937253D01*
X105322094Y-85243828D01*
X105325617Y-85284838D01*
X105325619Y-85284851D01*
X105394899Y-85626762D01*
X105502704Y-85958551D01*
X105502706Y-85958555D01*
X105647628Y-86275892D01*
X105647630Y-86275894D01*
X105827781Y-86574641D01*
X105827785Y-86574647D01*
X106040814Y-86850908D01*
X106040826Y-86850923D01*
X106275931Y-87092839D01*
X106283959Y-87101100D01*
X106359892Y-87163190D01*
X106554025Y-87321933D01*
X106554029Y-87321935D01*
X106554032Y-87321938D01*
X106847518Y-87510550D01*
X107160592Y-87664478D01*
X107160598Y-87664480D01*
X107160600Y-87664481D01*
X107160605Y-87664483D01*
X107489159Y-87781710D01*
X107489163Y-87781711D01*
X107489171Y-87781714D01*
X107828968Y-87860731D01*
X107828972Y-87860732D01*
X108102061Y-87892066D01*
X108175565Y-87900500D01*
X108175566Y-87900500D01*
X108437138Y-87900500D01*
X108437145Y-87900500D01*
X108665654Y-87887433D01*
X108698300Y-87885567D01*
X109042051Y-87826078D01*
X109042050Y-87826078D01*
X109042057Y-87826077D01*
X109269900Y-87759175D01*
X109376784Y-87727792D01*
X109376786Y-87727790D01*
X109376793Y-87727789D01*
X109698144Y-87591986D01*
X109698154Y-87591980D01*
X109698157Y-87591979D01*
X110001914Y-87420439D01*
X110001915Y-87420438D01*
X110001919Y-87420436D01*
X110284159Y-87215377D01*
X110541184Y-86979481D01*
X110769644Y-86715824D01*
X110966560Y-86427844D01*
X111129365Y-86119294D01*
X111255937Y-85794196D01*
X111344626Y-85456790D01*
X111394275Y-85111473D01*
X111404237Y-84762747D01*
X111374383Y-84415159D01*
X111305101Y-84073240D01*
X111197295Y-83741447D01*
X111091248Y-83509237D01*
X111052371Y-83424107D01*
X111052369Y-83424105D01*
X110960740Y-83272156D01*
X110872215Y-83125353D01*
X110659180Y-82849084D01*
X110659176Y-82849080D01*
X110659173Y-82849076D01*
X110416042Y-82598901D01*
X110145974Y-82378066D01*
X110145968Y-82378062D01*
X109852482Y-82189450D01*
X109539408Y-82035522D01*
X109539404Y-82035520D01*
X109539399Y-82035518D01*
X109539394Y-82035516D01*
X109210840Y-81918289D01*
X109210830Y-81918286D01*
X108871029Y-81839268D01*
X108871032Y-81839268D01*
X108524435Y-81799500D01*
X108524434Y-81799500D01*
X108262855Y-81799500D01*
X108193845Y-81803446D01*
X108001699Y-81814432D01*
X107657948Y-81873921D01*
X107323215Y-81972207D01*
X107323201Y-81972213D01*
X107001856Y-82108014D01*
X107001842Y-82108020D01*
X106698085Y-82279560D01*
X106415843Y-82484621D01*
X106158818Y-82720516D01*
X105930357Y-82984174D01*
X105930355Y-82984177D01*
X105733440Y-83272155D01*
X105570637Y-83580702D01*
X105444060Y-83905811D01*
X105355374Y-84243208D01*
X105355373Y-84243211D01*
X105305725Y-84588519D01*
X105305725Y-84588526D01*
X105305422Y-84599130D01*
X105295763Y-84937253D01*
X87242389Y-84937253D01*
X87249874Y-84911763D01*
X87249874Y-84767985D01*
X87231071Y-84703947D01*
X87234932Y-84643191D01*
X87276944Y-84599130D01*
X87316466Y-84589874D01*
X88080510Y-84589874D01*
X88080510Y-84589873D01*
X88023306Y-84376387D01*
X88023303Y-84376378D01*
X87923477Y-84162301D01*
X87923475Y-84162299D01*
X87787985Y-83968798D01*
X87620949Y-83801762D01*
X87427449Y-83666272D01*
X87427447Y-83666270D01*
X87213369Y-83566444D01*
X87213360Y-83566441D01*
X86999874Y-83509237D01*
X86999874Y-84267965D01*
X86979052Y-84325173D01*
X86926329Y-84355613D01*
X86898208Y-84356059D01*
X86785639Y-84339874D01*
X86785637Y-84339874D01*
X86714111Y-84339874D01*
X86714108Y-84339874D01*
X86601540Y-84356059D01*
X86541951Y-84343590D01*
X86504318Y-84295736D01*
X86499874Y-84267965D01*
X86499874Y-83509238D01*
X86499873Y-83509237D01*
X86286387Y-83566441D01*
X86286378Y-83566444D01*
X86072301Y-83666270D01*
X86072299Y-83666272D01*
X85878798Y-83801762D01*
X85711762Y-83968798D01*
X85576272Y-84162299D01*
X85576270Y-84162301D01*
X85476444Y-84376378D01*
X85476441Y-84376387D01*
X85415305Y-84604550D01*
X85414629Y-84608386D01*
X85413363Y-84608162D01*
X85389629Y-84659049D01*
X85334450Y-84684772D01*
X85275647Y-84669009D01*
X85241535Y-84621945D01*
X85236258Y-84604550D01*
X85185106Y-84435920D01*
X85087559Y-84253424D01*
X84956284Y-84093464D01*
X84796324Y-83962189D01*
X84613828Y-83864642D01*
X84613827Y-83864641D01*
X84613824Y-83864640D01*
X84415808Y-83804574D01*
X84415800Y-83804572D01*
X84209878Y-83784291D01*
X84209870Y-83784291D01*
X84003947Y-83804572D01*
X84003939Y-83804574D01*
X83805923Y-83864640D01*
X83623422Y-83962190D01*
X83463468Y-84093460D01*
X83463460Y-84093468D01*
X83332190Y-84253422D01*
X83234640Y-84435923D01*
X83174574Y-84633939D01*
X83174572Y-84633947D01*
X83154291Y-84839870D01*
X83154291Y-84839877D01*
X83174572Y-85045800D01*
X83174574Y-85045808D01*
X83234640Y-85243824D01*
X83234641Y-85243827D01*
X83234642Y-85243828D01*
X83332189Y-85426324D01*
X83463464Y-85586284D01*
X83623424Y-85717559D01*
X83805920Y-85815106D01*
X84003940Y-85875174D01*
X84003944Y-85875174D01*
X84003947Y-85875175D01*
X84209870Y-85895457D01*
X84209874Y-85895457D01*
X84209878Y-85895457D01*
X84415800Y-85875175D01*
X84415801Y-85875174D01*
X84415808Y-85875174D01*
X84613828Y-85815106D01*
X84796324Y-85717559D01*
X84956284Y-85586284D01*
X85087559Y-85426324D01*
X85185106Y-85243828D01*
X85241536Y-85057800D01*
X85278067Y-85009102D01*
X85337356Y-84995277D01*
X85391660Y-85022797D01*
X85413442Y-85071571D01*
X85414629Y-85071362D01*
X85415305Y-85075197D01*
X85476441Y-85303360D01*
X85476444Y-85303369D01*
X85576270Y-85517447D01*
X85576272Y-85517449D01*
X85711762Y-85710949D01*
X85878798Y-85877985D01*
X86072298Y-86013475D01*
X86072300Y-86013477D01*
X86286378Y-86113303D01*
X86286387Y-86113306D01*
X86514550Y-86174442D01*
X86518386Y-86175119D01*
X86518161Y-86176390D01*
X86569030Y-86200099D01*
X86594770Y-86255269D01*
X86579025Y-86314078D01*
X86531945Y-86348212D01*
X86345923Y-86404640D01*
X86163422Y-86502190D01*
X86003468Y-86633460D01*
X86003460Y-86633468D01*
X85872190Y-86793422D01*
X85774640Y-86975923D01*
X85714574Y-87173939D01*
X85714572Y-87173947D01*
X85694291Y-87379870D01*
X85694291Y-87379877D01*
X85714572Y-87585800D01*
X85714574Y-87585808D01*
X85774640Y-87783824D01*
X85774641Y-87783827D01*
X85774642Y-87783828D01*
X85872189Y-87966324D01*
X86003464Y-88126284D01*
X86163424Y-88257559D01*
X86345920Y-88355106D01*
X86543940Y-88415174D01*
X86543944Y-88415174D01*
X86543947Y-88415175D01*
X86749870Y-88435457D01*
X86749874Y-88435457D01*
X86749878Y-88435457D01*
X86955800Y-88415175D01*
X86955801Y-88415174D01*
X86955808Y-88415174D01*
X87153828Y-88355106D01*
X87336324Y-88257559D01*
X87496284Y-88126284D01*
X87627559Y-87966324D01*
X87725106Y-87783828D01*
X87737327Y-87743539D01*
X87773858Y-87694839D01*
X87822495Y-87680374D01*
X88793337Y-87680374D01*
X88850545Y-87701196D01*
X88856270Y-87706441D01*
X89778307Y-88628478D01*
X89804035Y-88683654D01*
X89804374Y-88691411D01*
X89804374Y-92225740D01*
X89802255Y-92238736D01*
X89803240Y-92238874D01*
X89802100Y-92247038D01*
X89803423Y-92275646D01*
X89804327Y-92295202D01*
X89804374Y-92297235D01*
X89804374Y-92317115D01*
X89804375Y-92317126D01*
X89805089Y-92320949D01*
X89805799Y-92327067D01*
X89806036Y-92332168D01*
X89787889Y-92390280D01*
X89736634Y-92423132D01*
X89676254Y-92415352D01*
X89654199Y-92399228D01*
X87720817Y-90465846D01*
X87695089Y-90410670D01*
X87705259Y-90360958D01*
X87725106Y-90323828D01*
X87785174Y-90125808D01*
X87805457Y-89919874D01*
X87801781Y-89882554D01*
X87785175Y-89713947D01*
X87785174Y-89713944D01*
X87785174Y-89713940D01*
X87725106Y-89515920D01*
X87627559Y-89333424D01*
X87496284Y-89173464D01*
X87336324Y-89042189D01*
X87153828Y-88944642D01*
X87153827Y-88944641D01*
X87153824Y-88944640D01*
X86955808Y-88884574D01*
X86955800Y-88884572D01*
X86749878Y-88864291D01*
X86749870Y-88864291D01*
X86543947Y-88884572D01*
X86543939Y-88884574D01*
X86345923Y-88944640D01*
X86163422Y-89042190D01*
X86003468Y-89173460D01*
X86003460Y-89173468D01*
X85872190Y-89333422D01*
X85774640Y-89515923D01*
X85714574Y-89713939D01*
X85714572Y-89713947D01*
X85694291Y-89919870D01*
X85694291Y-89919877D01*
X85714572Y-90125800D01*
X85714574Y-90125808D01*
X85774640Y-90323824D01*
X85774641Y-90323826D01*
X85774642Y-90323828D01*
X85872189Y-90506324D01*
X86003464Y-90666284D01*
X86163424Y-90797559D01*
X86345920Y-90895106D01*
X86543940Y-90955174D01*
X86543944Y-90955174D01*
X86543947Y-90955175D01*
X86749870Y-90975457D01*
X86749874Y-90975457D01*
X86749878Y-90975457D01*
X86955800Y-90955175D01*
X86955801Y-90955174D01*
X86955808Y-90955174D01*
X87153828Y-90895106D01*
X87190958Y-90875258D01*
X87251226Y-90866655D01*
X87295846Y-90890817D01*
X88408614Y-92003585D01*
X88434342Y-92058761D01*
X88418586Y-92117566D01*
X88368716Y-92152485D01*
X88357979Y-92154664D01*
X88348945Y-92155924D01*
X88327272Y-92158947D01*
X88321129Y-92159374D01*
X87822495Y-92159374D01*
X87765287Y-92138552D01*
X87737327Y-92096208D01*
X87725107Y-92055924D01*
X87725106Y-92055920D01*
X87627559Y-91873424D01*
X87496284Y-91713464D01*
X87336324Y-91582189D01*
X87153828Y-91484642D01*
X87153827Y-91484641D01*
X87153824Y-91484640D01*
X86955808Y-91424574D01*
X86955800Y-91424572D01*
X86749878Y-91404291D01*
X86749870Y-91404291D01*
X86543947Y-91424572D01*
X86543939Y-91424574D01*
X86345923Y-91484640D01*
X86163422Y-91582190D01*
X86003468Y-91713460D01*
X86003460Y-91713468D01*
X85872190Y-91873422D01*
X85774640Y-92055923D01*
X85718212Y-92241945D01*
X85681680Y-92290646D01*
X85622390Y-92304470D01*
X85568086Y-92276950D01*
X85546312Y-92228175D01*
X85545119Y-92228386D01*
X85544442Y-92224550D01*
X85483306Y-91996387D01*
X85483303Y-91996378D01*
X85383477Y-91782301D01*
X85383475Y-91782299D01*
X85247985Y-91588798D01*
X85080949Y-91421762D01*
X84887449Y-91286272D01*
X84887447Y-91286270D01*
X84673369Y-91186444D01*
X84673360Y-91186441D01*
X84445197Y-91125305D01*
X84441362Y-91124629D01*
X84441585Y-91123364D01*
X84390699Y-91099630D01*
X84364975Y-91044453D01*
X84380737Y-90985649D01*
X84427800Y-90951536D01*
X84613828Y-90895106D01*
X84796324Y-90797559D01*
X84956284Y-90666284D01*
X85087559Y-90506324D01*
X85185106Y-90323828D01*
X85245174Y-90125808D01*
X85265457Y-89919874D01*
X85261781Y-89882554D01*
X85245175Y-89713947D01*
X85245174Y-89713944D01*
X85245174Y-89713940D01*
X85185106Y-89515920D01*
X85087559Y-89333424D01*
X84956284Y-89173464D01*
X84796324Y-89042189D01*
X84613828Y-88944642D01*
X84613827Y-88944641D01*
X84613824Y-88944640D01*
X84415808Y-88884574D01*
X84415800Y-88884572D01*
X84209878Y-88864291D01*
X84209870Y-88864291D01*
X84003947Y-88884572D01*
X84003939Y-88884574D01*
X83805923Y-88944640D01*
X83623422Y-89042190D01*
X83463468Y-89173460D01*
X83463460Y-89173468D01*
X83332190Y-89333422D01*
X83234640Y-89515923D01*
X83174574Y-89713939D01*
X83174572Y-89713947D01*
X83154291Y-89919870D01*
X83154291Y-89919877D01*
X83174572Y-90125800D01*
X83174574Y-90125808D01*
X83234640Y-90323824D01*
X83234641Y-90323826D01*
X83234642Y-90323828D01*
X83332189Y-90506324D01*
X83463464Y-90666284D01*
X83623424Y-90797559D01*
X83805920Y-90895106D01*
X83991945Y-90951535D01*
X84040645Y-90988067D01*
X84054470Y-91047356D01*
X84026950Y-91101661D01*
X83978176Y-91123442D01*
X83978386Y-91124629D01*
X83974550Y-91125305D01*
X83746387Y-91186441D01*
X83746378Y-91186444D01*
X83532301Y-91286270D01*
X83532299Y-91286272D01*
X83338798Y-91421762D01*
X83171762Y-91588798D01*
X83036272Y-91782299D01*
X83036270Y-91782301D01*
X82936444Y-91996378D01*
X82936441Y-91996387D01*
X82879237Y-92209873D01*
X82879238Y-92209874D01*
X83643282Y-92209874D01*
X83700490Y-92230696D01*
X83730930Y-92283419D01*
X83728677Y-92323947D01*
X83727761Y-92327067D01*
X83709874Y-92387985D01*
X83709874Y-92531762D01*
X83728677Y-92595800D01*
X83724816Y-92656557D01*
X83682804Y-92700618D01*
X83643282Y-92709874D01*
X82879237Y-92709874D01*
X82936441Y-92923360D01*
X82936444Y-92923369D01*
X83036270Y-93137447D01*
X83036272Y-93137449D01*
X83171762Y-93330949D01*
X83338798Y-93497985D01*
X83532298Y-93633475D01*
X83532300Y-93633477D01*
X83746378Y-93733303D01*
X83746387Y-93733306D01*
X83974550Y-93794442D01*
X83978386Y-93795119D01*
X83978161Y-93796390D01*
X84029030Y-93820099D01*
X84054770Y-93875269D01*
X84039025Y-93934078D01*
X83991945Y-93968212D01*
X83805923Y-94024640D01*
X83623422Y-94122190D01*
X83463468Y-94253460D01*
X83463460Y-94253468D01*
X83332190Y-94413422D01*
X83234640Y-94595923D01*
X83174574Y-94793939D01*
X83174572Y-94793947D01*
X83154291Y-94999870D01*
X83154291Y-94999877D01*
X83174572Y-95205800D01*
X83174574Y-95205808D01*
X83234640Y-95403824D01*
X83234641Y-95403827D01*
X83234642Y-95403828D01*
X83332189Y-95586324D01*
X83463464Y-95746284D01*
X83623424Y-95877559D01*
X83805920Y-95975106D01*
X83991945Y-96031535D01*
X84040645Y-96068067D01*
X84054470Y-96127356D01*
X84026950Y-96181661D01*
X83978176Y-96203442D01*
X83978386Y-96204629D01*
X83974550Y-96205305D01*
X83746387Y-96266441D01*
X83746378Y-96266444D01*
X83532301Y-96366270D01*
X83532299Y-96366272D01*
X83338798Y-96501762D01*
X83171762Y-96668798D01*
X83036272Y-96862299D01*
X83036270Y-96862301D01*
X82936444Y-97076378D01*
X82936441Y-97076387D01*
X82879237Y-97289873D01*
X82879238Y-97289874D01*
X83643282Y-97289874D01*
X83700490Y-97310696D01*
X83730930Y-97363419D01*
X83728677Y-97403947D01*
X83709874Y-97467985D01*
X83709874Y-97611763D01*
X83728677Y-97675800D01*
X83724816Y-97736557D01*
X83682804Y-97780618D01*
X83643282Y-97789874D01*
X82879237Y-97789874D01*
X82936441Y-98003360D01*
X82936444Y-98003369D01*
X83036270Y-98217447D01*
X83036272Y-98217449D01*
X83171762Y-98410949D01*
X83338798Y-98577985D01*
X83532298Y-98713475D01*
X83532300Y-98713477D01*
X83746378Y-98813303D01*
X83746387Y-98813306D01*
X83974550Y-98874442D01*
X83978386Y-98875119D01*
X83978161Y-98876390D01*
X84029030Y-98900099D01*
X84054770Y-98955269D01*
X84039025Y-99014078D01*
X83991945Y-99048212D01*
X83805923Y-99104640D01*
X83623422Y-99202190D01*
X83463468Y-99333460D01*
X83463460Y-99333468D01*
X83332190Y-99493422D01*
X83234640Y-99675923D01*
X83174574Y-99873939D01*
X83174572Y-99873947D01*
X83154291Y-100079870D01*
X83154291Y-100079877D01*
X83174572Y-100285800D01*
X83174574Y-100285808D01*
X83234640Y-100483824D01*
X83234641Y-100483827D01*
X83234642Y-100483828D01*
X83332189Y-100666324D01*
X83463464Y-100826284D01*
X83623424Y-100957559D01*
X83805920Y-101055106D01*
X84003940Y-101115174D01*
X84003944Y-101115174D01*
X84003947Y-101115175D01*
X84209870Y-101135457D01*
X84209874Y-101135457D01*
X84209878Y-101135457D01*
X84415800Y-101115175D01*
X84415801Y-101115174D01*
X84415808Y-101115174D01*
X84613828Y-101055106D01*
X84796324Y-100957559D01*
X84956284Y-100826284D01*
X85087559Y-100666324D01*
X85185106Y-100483828D01*
X85245174Y-100285808D01*
X85265457Y-100079874D01*
X85247960Y-99902230D01*
X85245175Y-99873947D01*
X85245174Y-99873944D01*
X85245174Y-99873940D01*
X85185106Y-99675920D01*
X85087559Y-99493424D01*
X84956284Y-99333464D01*
X84796324Y-99202189D01*
X84613828Y-99104642D01*
X84613827Y-99104641D01*
X84613824Y-99104640D01*
X84427802Y-99048212D01*
X84379101Y-99011680D01*
X84365277Y-98952391D01*
X84392797Y-98898086D01*
X84441572Y-98876313D01*
X84441362Y-98875119D01*
X84445197Y-98874442D01*
X84673360Y-98813306D01*
X84673369Y-98813303D01*
X84887447Y-98713477D01*
X84887449Y-98713475D01*
X85080949Y-98577985D01*
X85247985Y-98410949D01*
X85383475Y-98217449D01*
X85383477Y-98217447D01*
X85483303Y-98003369D01*
X85483306Y-98003360D01*
X85544442Y-97775197D01*
X85545119Y-97771362D01*
X85546391Y-97771586D01*
X85570097Y-97720719D01*
X85625267Y-97694977D01*
X85684076Y-97710721D01*
X85718212Y-97757802D01*
X85774640Y-97943824D01*
X85774641Y-97943827D01*
X85774642Y-97943828D01*
X85872189Y-98126324D01*
X86003464Y-98286284D01*
X86163424Y-98417559D01*
X86345920Y-98515106D01*
X86543940Y-98575174D01*
X86543944Y-98575174D01*
X86543947Y-98575175D01*
X86749870Y-98595457D01*
X86749874Y-98595457D01*
X86749878Y-98595457D01*
X86955800Y-98575175D01*
X86955801Y-98575174D01*
X86955808Y-98575174D01*
X87153828Y-98515106D01*
X87336324Y-98417559D01*
X87496284Y-98286284D01*
X87627559Y-98126324D01*
X87725106Y-97943828D01*
X87737327Y-97903539D01*
X87773858Y-97854839D01*
X87822495Y-97840374D01*
X88938852Y-97840374D01*
X88996060Y-97861196D01*
X89001785Y-97866441D01*
X95214985Y-104079641D01*
X95240713Y-104134817D01*
X95224957Y-104193622D01*
X95175087Y-104228541D01*
X95152052Y-104231574D01*
X93161811Y-104231574D01*
X93104603Y-104210752D01*
X93098878Y-104205507D01*
X88805685Y-99912314D01*
X88797999Y-99901628D01*
X88797203Y-99902230D01*
X88792234Y-99895650D01*
X88792232Y-99895646D01*
X88756611Y-99863173D01*
X88755143Y-99861771D01*
X88741070Y-99847699D01*
X88737858Y-99845498D01*
X88733025Y-99841670D01*
X88709207Y-99819958D01*
X88698957Y-99815987D01*
X88680817Y-99806425D01*
X88671756Y-99800218D01*
X88671753Y-99800217D01*
X88640387Y-99792839D01*
X88634494Y-99791014D01*
X88604447Y-99779374D01*
X88593463Y-99779374D01*
X88573087Y-99777010D01*
X88562394Y-99774495D01*
X88562391Y-99774495D01*
X88554474Y-99775599D01*
X88530472Y-99778947D01*
X88524328Y-99779374D01*
X87822495Y-99779374D01*
X87765287Y-99758552D01*
X87737327Y-99716208D01*
X87731267Y-99696230D01*
X87725106Y-99675920D01*
X87627559Y-99493424D01*
X87496284Y-99333464D01*
X87336324Y-99202189D01*
X87153828Y-99104642D01*
X87153827Y-99104641D01*
X87153824Y-99104640D01*
X86955808Y-99044574D01*
X86955800Y-99044572D01*
X86749878Y-99024291D01*
X86749870Y-99024291D01*
X86543947Y-99044572D01*
X86543939Y-99044574D01*
X86345923Y-99104640D01*
X86163422Y-99202190D01*
X86003468Y-99333460D01*
X86003460Y-99333468D01*
X85872190Y-99493422D01*
X85774640Y-99675923D01*
X85714574Y-99873939D01*
X85714572Y-99873947D01*
X85694291Y-100079870D01*
X85694291Y-100079877D01*
X85714572Y-100285800D01*
X85714574Y-100285808D01*
X85774640Y-100483824D01*
X85774641Y-100483827D01*
X85774642Y-100483828D01*
X85872189Y-100666324D01*
X86003464Y-100826284D01*
X86163424Y-100957559D01*
X86345920Y-101055106D01*
X86531945Y-101111535D01*
X86580645Y-101148067D01*
X86594470Y-101207356D01*
X86566950Y-101261661D01*
X86518176Y-101283442D01*
X86518386Y-101284629D01*
X86514550Y-101285305D01*
X86286387Y-101346441D01*
X86286378Y-101346444D01*
X86072301Y-101446270D01*
X86072299Y-101446272D01*
X85878798Y-101581762D01*
X85711762Y-101748798D01*
X85576272Y-101942299D01*
X85576270Y-101942301D01*
X85476444Y-102156378D01*
X85476441Y-102156387D01*
X85415305Y-102384550D01*
X85414629Y-102388386D01*
X85413363Y-102388162D01*
X85389629Y-102439049D01*
X85334450Y-102464772D01*
X85275647Y-102449009D01*
X85241535Y-102401945D01*
X85236258Y-102384550D01*
X85185106Y-102215920D01*
X85087559Y-102033424D01*
X84956284Y-101873464D01*
X84796324Y-101742189D01*
X84613828Y-101644642D01*
X84613827Y-101644641D01*
X84613824Y-101644640D01*
X84415808Y-101584574D01*
X84415800Y-101584572D01*
X84209878Y-101564291D01*
X84209870Y-101564291D01*
X84003947Y-101584572D01*
X84003939Y-101584574D01*
X83805923Y-101644640D01*
X83623422Y-101742190D01*
X83463468Y-101873460D01*
X83463460Y-101873468D01*
X83332190Y-102033422D01*
X83234640Y-102215923D01*
X83174574Y-102413939D01*
X83174572Y-102413947D01*
X83154291Y-102619870D01*
X83154291Y-102619877D01*
X83174572Y-102825800D01*
X83174574Y-102825808D01*
X83234640Y-103023824D01*
X83234641Y-103023827D01*
X83234642Y-103023828D01*
X83332189Y-103206324D01*
X83463464Y-103366284D01*
X83623424Y-103497559D01*
X83805920Y-103595106D01*
X83805922Y-103595106D01*
X83805923Y-103595107D01*
X83825851Y-103601152D01*
X84003940Y-103655174D01*
X84003944Y-103655174D01*
X84003947Y-103655175D01*
X84209870Y-103675457D01*
X84209874Y-103675457D01*
X84209878Y-103675457D01*
X84415800Y-103655175D01*
X84415801Y-103655174D01*
X84415808Y-103655174D01*
X84613828Y-103595106D01*
X84796324Y-103497559D01*
X84956284Y-103366284D01*
X85087559Y-103206324D01*
X85185106Y-103023828D01*
X85241536Y-102837800D01*
X85278067Y-102789102D01*
X85337356Y-102775277D01*
X85391660Y-102802797D01*
X85413442Y-102851571D01*
X85414629Y-102851362D01*
X85415305Y-102855197D01*
X85476441Y-103083360D01*
X85476444Y-103083369D01*
X85576270Y-103297447D01*
X85576272Y-103297449D01*
X85711762Y-103490949D01*
X85878798Y-103657985D01*
X86072298Y-103793475D01*
X86072300Y-103793477D01*
X86286378Y-103893303D01*
X86286387Y-103893306D01*
X86514550Y-103954442D01*
X86518386Y-103955119D01*
X86518161Y-103956390D01*
X86569030Y-103980099D01*
X86594770Y-104035269D01*
X86579025Y-104094078D01*
X86531945Y-104128212D01*
X86345923Y-104184640D01*
X86163422Y-104282190D01*
X86003468Y-104413460D01*
X86003460Y-104413468D01*
X85872190Y-104573422D01*
X85774640Y-104755923D01*
X85714574Y-104953939D01*
X85714572Y-104953947D01*
X85694291Y-105159870D01*
X85694291Y-105159877D01*
X85714572Y-105365800D01*
X85714574Y-105365808D01*
X85774640Y-105563824D01*
X85774641Y-105563827D01*
X85774642Y-105563828D01*
X85872189Y-105746324D01*
X86003464Y-105906284D01*
X86163424Y-106037559D01*
X86345920Y-106135106D01*
X86543940Y-106195174D01*
X86543944Y-106195174D01*
X86543947Y-106195175D01*
X86749870Y-106215457D01*
X86749874Y-106215457D01*
X86749878Y-106215457D01*
X86955800Y-106195175D01*
X86955801Y-106195174D01*
X86955808Y-106195174D01*
X87153828Y-106135106D01*
X87336324Y-106037559D01*
X87496284Y-105906284D01*
X87627559Y-105746324D01*
X87725106Y-105563828D01*
X87737327Y-105523539D01*
X87773858Y-105474839D01*
X87822495Y-105460374D01*
X99417423Y-105460374D01*
X99474631Y-105481196D01*
X99480356Y-105486441D01*
X101241356Y-107247441D01*
X101267084Y-107302617D01*
X101251328Y-107361422D01*
X101201458Y-107396341D01*
X101178423Y-107399374D01*
X87822495Y-107399374D01*
X87765287Y-107378552D01*
X87737327Y-107336208D01*
X87725107Y-107295924D01*
X87725106Y-107295920D01*
X87627559Y-107113424D01*
X87496284Y-106953464D01*
X87336324Y-106822189D01*
X87153828Y-106724642D01*
X87153827Y-106724641D01*
X87153824Y-106724640D01*
X86955808Y-106664574D01*
X86955800Y-106664572D01*
X86749878Y-106644291D01*
X86749870Y-106644291D01*
X86543947Y-106664572D01*
X86543939Y-106664574D01*
X86345923Y-106724640D01*
X86163422Y-106822190D01*
X86003468Y-106953460D01*
X86003460Y-106953468D01*
X85872190Y-107113422D01*
X85774640Y-107295923D01*
X85714574Y-107493939D01*
X85714572Y-107493947D01*
X85694291Y-107699870D01*
X85694291Y-107699877D01*
X85714572Y-107905800D01*
X85714574Y-107905808D01*
X85774640Y-108103824D01*
X85774641Y-108103827D01*
X85774642Y-108103828D01*
X85872189Y-108286324D01*
X86003464Y-108446284D01*
X86163424Y-108577559D01*
X86345920Y-108675106D01*
X86543940Y-108735174D01*
X86543944Y-108735174D01*
X86543947Y-108735175D01*
X86749870Y-108755457D01*
X86749874Y-108755457D01*
X86749878Y-108755457D01*
X86955800Y-108735175D01*
X86955801Y-108735174D01*
X86955808Y-108735174D01*
X87153828Y-108675106D01*
X87336324Y-108577559D01*
X87496284Y-108446284D01*
X87627559Y-108286324D01*
X87725106Y-108103828D01*
X87737327Y-108063539D01*
X87773858Y-108014839D01*
X87822495Y-108000374D01*
X101391737Y-108000374D01*
X101448945Y-108021196D01*
X101454670Y-108026441D01*
X102242663Y-108814434D01*
X102250351Y-108825118D01*
X102251145Y-108824520D01*
X102256113Y-108831099D01*
X102256115Y-108831101D01*
X102256116Y-108831102D01*
X102266270Y-108840359D01*
X102294519Y-108894287D01*
X102281495Y-108953757D01*
X102242266Y-108987544D01*
X102230233Y-108992858D01*
X102230227Y-108992861D01*
X102222457Y-109000632D01*
X102206383Y-109013364D01*
X102197044Y-109019147D01*
X102177628Y-109044856D01*
X102173579Y-109049509D01*
X101309786Y-109913306D01*
X101254610Y-109939035D01*
X101246853Y-109939374D01*
X87822495Y-109939374D01*
X87765287Y-109918552D01*
X87737327Y-109876208D01*
X87725107Y-109835924D01*
X87725106Y-109835920D01*
X87627559Y-109653424D01*
X87496284Y-109493464D01*
X87336324Y-109362189D01*
X87153828Y-109264642D01*
X87153827Y-109264641D01*
X87153824Y-109264640D01*
X86955808Y-109204574D01*
X86955800Y-109204572D01*
X86749878Y-109184291D01*
X86749870Y-109184291D01*
X86543947Y-109204572D01*
X86543939Y-109204574D01*
X86345923Y-109264640D01*
X86163422Y-109362190D01*
X86003468Y-109493460D01*
X86003460Y-109493468D01*
X85872190Y-109653422D01*
X85774640Y-109835923D01*
X85718212Y-110021945D01*
X85681680Y-110070646D01*
X85622390Y-110084470D01*
X85568086Y-110056950D01*
X85546312Y-110008175D01*
X85545119Y-110008386D01*
X85544442Y-110004550D01*
X85483306Y-109776387D01*
X85483303Y-109776378D01*
X85383477Y-109562301D01*
X85383475Y-109562299D01*
X85247985Y-109368798D01*
X85080949Y-109201762D01*
X84887449Y-109066272D01*
X84887447Y-109066270D01*
X84673369Y-108966444D01*
X84673360Y-108966441D01*
X84445197Y-108905305D01*
X84441362Y-108904629D01*
X84441585Y-108903364D01*
X84390699Y-108879630D01*
X84364975Y-108824453D01*
X84380737Y-108765649D01*
X84427800Y-108731536D01*
X84613828Y-108675106D01*
X84796324Y-108577559D01*
X84956284Y-108446284D01*
X85087559Y-108286324D01*
X85185106Y-108103828D01*
X85245174Y-107905808D01*
X85245175Y-107905800D01*
X85265457Y-107699877D01*
X85265457Y-107699870D01*
X85245175Y-107493947D01*
X85245174Y-107493944D01*
X85245174Y-107493940D01*
X85191977Y-107318571D01*
X85185107Y-107295923D01*
X85185106Y-107295922D01*
X85185106Y-107295920D01*
X85087559Y-107113424D01*
X84956284Y-106953464D01*
X84796324Y-106822189D01*
X84613828Y-106724642D01*
X84613827Y-106724641D01*
X84613824Y-106724640D01*
X84415808Y-106664574D01*
X84415800Y-106664572D01*
X84209878Y-106644291D01*
X84209870Y-106644291D01*
X84003947Y-106664572D01*
X84003939Y-106664574D01*
X83805923Y-106724640D01*
X83623422Y-106822190D01*
X83463468Y-106953460D01*
X83463460Y-106953468D01*
X83332190Y-107113422D01*
X83234640Y-107295923D01*
X83174574Y-107493939D01*
X83174572Y-107493947D01*
X83154291Y-107699870D01*
X83154291Y-107699877D01*
X83174572Y-107905800D01*
X83174574Y-107905808D01*
X83234640Y-108103824D01*
X83234641Y-108103827D01*
X83234642Y-108103828D01*
X83332189Y-108286324D01*
X83463464Y-108446284D01*
X83623424Y-108577559D01*
X83805920Y-108675106D01*
X83991945Y-108731535D01*
X84040645Y-108768067D01*
X84054470Y-108827356D01*
X84026950Y-108881661D01*
X83978176Y-108903442D01*
X83978386Y-108904629D01*
X83974550Y-108905305D01*
X83746387Y-108966441D01*
X83746378Y-108966444D01*
X83532301Y-109066270D01*
X83532299Y-109066272D01*
X83338798Y-109201762D01*
X83171762Y-109368798D01*
X83036272Y-109562299D01*
X83036270Y-109562301D01*
X82936444Y-109776378D01*
X82936441Y-109776387D01*
X82879237Y-109989873D01*
X82879238Y-109989874D01*
X83643282Y-109989874D01*
X83700490Y-110010696D01*
X83730930Y-110063419D01*
X83728677Y-110103947D01*
X83709874Y-110167985D01*
X83709874Y-110311763D01*
X83712958Y-110322266D01*
X83728677Y-110375800D01*
X83724816Y-110436557D01*
X83682804Y-110480618D01*
X83643282Y-110489874D01*
X82879237Y-110489874D01*
X82936441Y-110703360D01*
X82936444Y-110703369D01*
X83036270Y-110917447D01*
X83036272Y-110917449D01*
X83171762Y-111110949D01*
X83338798Y-111277985D01*
X83532298Y-111413475D01*
X83532300Y-111413477D01*
X83746378Y-111513303D01*
X83746387Y-111513306D01*
X83974550Y-111574442D01*
X83978386Y-111575119D01*
X83978161Y-111576390D01*
X84029030Y-111600099D01*
X84054770Y-111655269D01*
X84039025Y-111714078D01*
X83991945Y-111748212D01*
X83805923Y-111804640D01*
X83623422Y-111902190D01*
X83463468Y-112033460D01*
X83463460Y-112033468D01*
X83332190Y-112193422D01*
X83234640Y-112375923D01*
X83174574Y-112573939D01*
X83174572Y-112573947D01*
X83154291Y-112779870D01*
X83154291Y-112779877D01*
X83174572Y-112985800D01*
X83174574Y-112985808D01*
X83234640Y-113183824D01*
X83234641Y-113183827D01*
X83234642Y-113183828D01*
X83332189Y-113366324D01*
X83463464Y-113526284D01*
X83623424Y-113657559D01*
X83805920Y-113755106D01*
X84003940Y-113815174D01*
X84003944Y-113815174D01*
X84003947Y-113815175D01*
X84209870Y-113835457D01*
X84209874Y-113835457D01*
X84209878Y-113835457D01*
X84415800Y-113815175D01*
X84415801Y-113815174D01*
X84415808Y-113815174D01*
X84613828Y-113755106D01*
X84796324Y-113657559D01*
X84956284Y-113526284D01*
X85087559Y-113366324D01*
X85185106Y-113183828D01*
X85245174Y-112985808D01*
X85245175Y-112985800D01*
X85265457Y-112779877D01*
X85694291Y-112779877D01*
X85714572Y-112985800D01*
X85714574Y-112985808D01*
X85774640Y-113183824D01*
X85774641Y-113183827D01*
X85774642Y-113183828D01*
X85872189Y-113366324D01*
X86003464Y-113526284D01*
X86163424Y-113657559D01*
X86345920Y-113755106D01*
X86543940Y-113815174D01*
X86543944Y-113815174D01*
X86543947Y-113815175D01*
X86749870Y-113835457D01*
X86749874Y-113835457D01*
X86749878Y-113835457D01*
X86955800Y-113815175D01*
X86955801Y-113815174D01*
X86955808Y-113815174D01*
X87153828Y-113755106D01*
X87336324Y-113657559D01*
X87496284Y-113526284D01*
X87627559Y-113366324D01*
X87725106Y-113183828D01*
X87785174Y-112985808D01*
X87785175Y-112985800D01*
X87805457Y-112779877D01*
X87805457Y-112779870D01*
X87785175Y-112573947D01*
X87785174Y-112573944D01*
X87785174Y-112573940D01*
X87725106Y-112375920D01*
X87627559Y-112193424D01*
X87496284Y-112033464D01*
X87336324Y-111902189D01*
X87153828Y-111804642D01*
X87153827Y-111804641D01*
X87153824Y-111804640D01*
X86955808Y-111744574D01*
X86955800Y-111744572D01*
X86749878Y-111724291D01*
X86749870Y-111724291D01*
X86543947Y-111744572D01*
X86543939Y-111744574D01*
X86345923Y-111804640D01*
X86163422Y-111902190D01*
X86003468Y-112033460D01*
X86003460Y-112033468D01*
X85872190Y-112193422D01*
X85774640Y-112375923D01*
X85714574Y-112573939D01*
X85714572Y-112573947D01*
X85694291Y-112779870D01*
X85694291Y-112779877D01*
X85265457Y-112779877D01*
X85265457Y-112779870D01*
X85245175Y-112573947D01*
X85245174Y-112573944D01*
X85245174Y-112573940D01*
X85185106Y-112375920D01*
X85087559Y-112193424D01*
X84956284Y-112033464D01*
X84796324Y-111902189D01*
X84613828Y-111804642D01*
X84613827Y-111804641D01*
X84613824Y-111804640D01*
X84427802Y-111748212D01*
X84379101Y-111711680D01*
X84365277Y-111652391D01*
X84392797Y-111598086D01*
X84441572Y-111576313D01*
X84441362Y-111575119D01*
X84445197Y-111574442D01*
X84673360Y-111513306D01*
X84673369Y-111513303D01*
X84887447Y-111413477D01*
X84887449Y-111413475D01*
X85080949Y-111277985D01*
X85247985Y-111110949D01*
X85383475Y-110917449D01*
X85383477Y-110917447D01*
X85483303Y-110703369D01*
X85483306Y-110703360D01*
X85544442Y-110475197D01*
X85545119Y-110471362D01*
X85546391Y-110471586D01*
X85570097Y-110420719D01*
X85625267Y-110394977D01*
X85684076Y-110410721D01*
X85718212Y-110457802D01*
X85774640Y-110643824D01*
X85774641Y-110643827D01*
X85774642Y-110643828D01*
X85872189Y-110826324D01*
X86003464Y-110986284D01*
X86163424Y-111117559D01*
X86345920Y-111215106D01*
X86543940Y-111275174D01*
X86543944Y-111275174D01*
X86543947Y-111275175D01*
X86749870Y-111295457D01*
X86749874Y-111295457D01*
X86749878Y-111295457D01*
X86955800Y-111275175D01*
X86955801Y-111275174D01*
X86955808Y-111275174D01*
X87153828Y-111215106D01*
X87336324Y-111117559D01*
X87496284Y-110986284D01*
X87627559Y-110826324D01*
X87725106Y-110643828D01*
X87737327Y-110603539D01*
X87773858Y-110554839D01*
X87822495Y-110540374D01*
X101033537Y-110540374D01*
X101090745Y-110561196D01*
X101121185Y-110613919D01*
X101110613Y-110673874D01*
X101096470Y-110692307D01*
X96795470Y-114993307D01*
X96740294Y-115019035D01*
X96732537Y-115019374D01*
X87822495Y-115019374D01*
X87765287Y-114998552D01*
X87737327Y-114956208D01*
X87725107Y-114915924D01*
X87725106Y-114915920D01*
X87627559Y-114733424D01*
X87496284Y-114573464D01*
X87336324Y-114442189D01*
X87153828Y-114344642D01*
X87153827Y-114344641D01*
X87153824Y-114344640D01*
X86955808Y-114284574D01*
X86955800Y-114284572D01*
X86749878Y-114264291D01*
X86749870Y-114264291D01*
X86543947Y-114284572D01*
X86543939Y-114284574D01*
X86345923Y-114344640D01*
X86163422Y-114442190D01*
X86003468Y-114573460D01*
X86003460Y-114573468D01*
X85872190Y-114733422D01*
X85774640Y-114915923D01*
X85714574Y-115113939D01*
X85714572Y-115113947D01*
X85694291Y-115319870D01*
X85694291Y-115319877D01*
X85714572Y-115525800D01*
X85714574Y-115525808D01*
X85774640Y-115723824D01*
X85774641Y-115723827D01*
X85774642Y-115723828D01*
X85872189Y-115906324D01*
X86003464Y-116066284D01*
X86163424Y-116197559D01*
X86345920Y-116295106D01*
X86543940Y-116355174D01*
X86543944Y-116355174D01*
X86543947Y-116355175D01*
X86749870Y-116375457D01*
X86749874Y-116375457D01*
X86749878Y-116375457D01*
X86955800Y-116355175D01*
X86955801Y-116355174D01*
X86955808Y-116355174D01*
X87153828Y-116295106D01*
X87336324Y-116197559D01*
X87496284Y-116066284D01*
X87627559Y-115906324D01*
X87725106Y-115723828D01*
X87737327Y-115683539D01*
X87773858Y-115634839D01*
X87822495Y-115620374D01*
X96830340Y-115620374D01*
X96843336Y-115622492D01*
X96843474Y-115621508D01*
X96851638Y-115622647D01*
X96851638Y-115622646D01*
X96851639Y-115622647D01*
X96899803Y-115620420D01*
X96901836Y-115620374D01*
X96921717Y-115620374D01*
X96921718Y-115620374D01*
X96925546Y-115619657D01*
X96931676Y-115618946D01*
X96963866Y-115617459D01*
X96973914Y-115613021D01*
X96993508Y-115606953D01*
X97004307Y-115604935D01*
X97031709Y-115587967D01*
X97037142Y-115585103D01*
X97066639Y-115572080D01*
X97074406Y-115564312D01*
X97090485Y-115551576D01*
X97099826Y-115545793D01*
X97119248Y-115520072D01*
X97123292Y-115515426D01*
X97318848Y-115319870D01*
X97780442Y-114858275D01*
X97835617Y-114832548D01*
X97894422Y-114848304D01*
X97929341Y-114898174D01*
X97932374Y-114921209D01*
X97932374Y-116461137D01*
X97911552Y-116518345D01*
X97906307Y-116524069D01*
X96897071Y-117533306D01*
X96841895Y-117559035D01*
X96834138Y-117559374D01*
X87822495Y-117559374D01*
X87765287Y-117538552D01*
X87737327Y-117496208D01*
X87725107Y-117455924D01*
X87725106Y-117455920D01*
X87627559Y-117273424D01*
X87496284Y-117113464D01*
X87336324Y-116982189D01*
X87153828Y-116884642D01*
X87153827Y-116884641D01*
X87153824Y-116884640D01*
X86955808Y-116824574D01*
X86955800Y-116824572D01*
X86749878Y-116804291D01*
X86749870Y-116804291D01*
X86543947Y-116824572D01*
X86543939Y-116824574D01*
X86345923Y-116884640D01*
X86163422Y-116982190D01*
X86003468Y-117113460D01*
X86003460Y-117113468D01*
X85872190Y-117273422D01*
X85774640Y-117455923D01*
X85718212Y-117641945D01*
X85681680Y-117690646D01*
X85622390Y-117704470D01*
X85568086Y-117676950D01*
X85546312Y-117628175D01*
X85545119Y-117628386D01*
X85544442Y-117624550D01*
X85483306Y-117396387D01*
X85483303Y-117396378D01*
X85383477Y-117182301D01*
X85383475Y-117182299D01*
X85247985Y-116988798D01*
X85080949Y-116821762D01*
X84887449Y-116686272D01*
X84887447Y-116686270D01*
X84673369Y-116586444D01*
X84673360Y-116586441D01*
X84445197Y-116525305D01*
X84441362Y-116524629D01*
X84441585Y-116523364D01*
X84390699Y-116499630D01*
X84364975Y-116444453D01*
X84380737Y-116385649D01*
X84427800Y-116351536D01*
X84613828Y-116295106D01*
X84796324Y-116197559D01*
X84956284Y-116066284D01*
X85087559Y-115906324D01*
X85185106Y-115723828D01*
X85245174Y-115525808D01*
X85245738Y-115520082D01*
X85265457Y-115319877D01*
X85265457Y-115319870D01*
X85245175Y-115113947D01*
X85245174Y-115113944D01*
X85245174Y-115113940D01*
X85185106Y-114915920D01*
X85087559Y-114733424D01*
X84956284Y-114573464D01*
X84796324Y-114442189D01*
X84613828Y-114344642D01*
X84613827Y-114344641D01*
X84613824Y-114344640D01*
X84415808Y-114284574D01*
X84415800Y-114284572D01*
X84209878Y-114264291D01*
X84209870Y-114264291D01*
X84003947Y-114284572D01*
X84003939Y-114284574D01*
X83805923Y-114344640D01*
X83623422Y-114442190D01*
X83463468Y-114573460D01*
X83463460Y-114573468D01*
X83332190Y-114733422D01*
X83234640Y-114915923D01*
X83174574Y-115113939D01*
X83174572Y-115113947D01*
X83154291Y-115319870D01*
X83154291Y-115319877D01*
X83174572Y-115525800D01*
X83174574Y-115525808D01*
X83234640Y-115723824D01*
X83234641Y-115723827D01*
X83234642Y-115723828D01*
X83332189Y-115906324D01*
X83463464Y-116066284D01*
X83623424Y-116197559D01*
X83805920Y-116295106D01*
X83991945Y-116351535D01*
X84040645Y-116388067D01*
X84054470Y-116447356D01*
X84026950Y-116501661D01*
X83978176Y-116523442D01*
X83978386Y-116524629D01*
X83974550Y-116525305D01*
X83746387Y-116586441D01*
X83746378Y-116586444D01*
X83532301Y-116686270D01*
X83532299Y-116686272D01*
X83338798Y-116821762D01*
X83171762Y-116988798D01*
X83036272Y-117182299D01*
X83036270Y-117182301D01*
X82936444Y-117396378D01*
X82936441Y-117396387D01*
X82879237Y-117609873D01*
X82879238Y-117609874D01*
X83643282Y-117609874D01*
X83700490Y-117630696D01*
X83730930Y-117683419D01*
X83728677Y-117723947D01*
X83709874Y-117787985D01*
X83709874Y-117931763D01*
X83720869Y-117969209D01*
X83728677Y-117995800D01*
X83724816Y-118056557D01*
X83682804Y-118100618D01*
X83643282Y-118109874D01*
X82879237Y-118109874D01*
X82936441Y-118323360D01*
X82936444Y-118323369D01*
X83036270Y-118537447D01*
X83036272Y-118537449D01*
X83171762Y-118730949D01*
X83338798Y-118897985D01*
X83532298Y-119033475D01*
X83532300Y-119033477D01*
X83746378Y-119133303D01*
X83746387Y-119133306D01*
X83974550Y-119194442D01*
X83978386Y-119195119D01*
X83978161Y-119196390D01*
X84029030Y-119220099D01*
X84054770Y-119275269D01*
X84039025Y-119334078D01*
X83991945Y-119368212D01*
X83805923Y-119424640D01*
X83623422Y-119522190D01*
X83463468Y-119653460D01*
X83463460Y-119653468D01*
X83332190Y-119813422D01*
X83234640Y-119995923D01*
X83174574Y-120193939D01*
X83174572Y-120193947D01*
X83154291Y-120399870D01*
X83154291Y-120399877D01*
X83174572Y-120605800D01*
X83174574Y-120605808D01*
X83234640Y-120803824D01*
X83234641Y-120803827D01*
X83234642Y-120803828D01*
X83332189Y-120986324D01*
X83463464Y-121146284D01*
X83623424Y-121277559D01*
X83805920Y-121375106D01*
X84003940Y-121435174D01*
X84003944Y-121435174D01*
X84003947Y-121435175D01*
X84209870Y-121455457D01*
X84209874Y-121455457D01*
X84209878Y-121455457D01*
X84415800Y-121435175D01*
X84415801Y-121435174D01*
X84415808Y-121435174D01*
X84613828Y-121375106D01*
X84796324Y-121277559D01*
X84956284Y-121146284D01*
X85087559Y-120986324D01*
X85185106Y-120803828D01*
X85245174Y-120605808D01*
X85245175Y-120605800D01*
X85265457Y-120399877D01*
X85265457Y-120399870D01*
X85245175Y-120193947D01*
X85245174Y-120193944D01*
X85245174Y-120193940D01*
X85185106Y-119995920D01*
X85087559Y-119813424D01*
X84956284Y-119653464D01*
X84796324Y-119522189D01*
X84613828Y-119424642D01*
X84613827Y-119424641D01*
X84613824Y-119424640D01*
X84427802Y-119368212D01*
X84379101Y-119331680D01*
X84365277Y-119272391D01*
X84392797Y-119218086D01*
X84441572Y-119196313D01*
X84441362Y-119195119D01*
X84445197Y-119194442D01*
X84673360Y-119133306D01*
X84673369Y-119133303D01*
X84887447Y-119033477D01*
X84887449Y-119033475D01*
X85080949Y-118897985D01*
X85247985Y-118730949D01*
X85383475Y-118537449D01*
X85383477Y-118537447D01*
X85483303Y-118323369D01*
X85483306Y-118323360D01*
X85544442Y-118095197D01*
X85545119Y-118091362D01*
X85546391Y-118091586D01*
X85570097Y-118040719D01*
X85625267Y-118014977D01*
X85684076Y-118030721D01*
X85718212Y-118077802D01*
X85774640Y-118263824D01*
X85774641Y-118263827D01*
X85774642Y-118263828D01*
X85872189Y-118446324D01*
X86003464Y-118606284D01*
X86163424Y-118737559D01*
X86345920Y-118835106D01*
X86543940Y-118895174D01*
X86543944Y-118895174D01*
X86543947Y-118895175D01*
X86749870Y-118915457D01*
X86749874Y-118915457D01*
X86749878Y-118915457D01*
X86955800Y-118895175D01*
X86955801Y-118895174D01*
X86955808Y-118895174D01*
X87153828Y-118835106D01*
X87336324Y-118737559D01*
X87496284Y-118606284D01*
X87627559Y-118446324D01*
X87725106Y-118263828D01*
X87737327Y-118223539D01*
X87773858Y-118174839D01*
X87822495Y-118160374D01*
X96931940Y-118160374D01*
X96944936Y-118162492D01*
X96945074Y-118161508D01*
X96953238Y-118162647D01*
X96953238Y-118162646D01*
X96953239Y-118162647D01*
X97001403Y-118160420D01*
X97003436Y-118160374D01*
X97023317Y-118160374D01*
X97023318Y-118160374D01*
X97027146Y-118159657D01*
X97033276Y-118158946D01*
X97065466Y-118157459D01*
X97075514Y-118153021D01*
X97095108Y-118146953D01*
X97105907Y-118144935D01*
X97133309Y-118127967D01*
X97138742Y-118125103D01*
X97168239Y-118112080D01*
X97176006Y-118104312D01*
X97192085Y-118091576D01*
X97201426Y-118085793D01*
X97220848Y-118060072D01*
X97224892Y-118055426D01*
X97791544Y-117488774D01*
X98400433Y-116879884D01*
X98411123Y-116872200D01*
X98410520Y-116871402D01*
X98417103Y-116866431D01*
X98418621Y-116864764D01*
X98449605Y-116830776D01*
X98450966Y-116829351D01*
X98465048Y-116815271D01*
X98467254Y-116812050D01*
X98471061Y-116807241D01*
X98488805Y-116787777D01*
X98542735Y-116759531D01*
X98602205Y-116772558D01*
X98639387Y-116820764D01*
X98643574Y-116847740D01*
X98643574Y-117324737D01*
X98622752Y-117381945D01*
X98617507Y-117387669D01*
X95931871Y-120073306D01*
X95876695Y-120099035D01*
X95868938Y-120099374D01*
X87822495Y-120099374D01*
X87765287Y-120078552D01*
X87737327Y-120036208D01*
X87725107Y-119995924D01*
X87725106Y-119995920D01*
X87627559Y-119813424D01*
X87496284Y-119653464D01*
X87336324Y-119522189D01*
X87153828Y-119424642D01*
X87153827Y-119424641D01*
X87153824Y-119424640D01*
X86955808Y-119364574D01*
X86955800Y-119364572D01*
X86749878Y-119344291D01*
X86749870Y-119344291D01*
X86543947Y-119364572D01*
X86543939Y-119364574D01*
X86345923Y-119424640D01*
X86163422Y-119522190D01*
X86003468Y-119653460D01*
X86003460Y-119653468D01*
X85872190Y-119813422D01*
X85774640Y-119995923D01*
X85714574Y-120193939D01*
X85714572Y-120193947D01*
X85694291Y-120399870D01*
X85694291Y-120399877D01*
X85714572Y-120605800D01*
X85714574Y-120605808D01*
X85774640Y-120803824D01*
X85774641Y-120803827D01*
X85774642Y-120803828D01*
X85872189Y-120986324D01*
X86003464Y-121146284D01*
X86163424Y-121277559D01*
X86345920Y-121375106D01*
X86531945Y-121431535D01*
X86580645Y-121468067D01*
X86594470Y-121527356D01*
X86566950Y-121581661D01*
X86518176Y-121603442D01*
X86518386Y-121604629D01*
X86514550Y-121605305D01*
X86286387Y-121666441D01*
X86286378Y-121666444D01*
X86072301Y-121766270D01*
X86072299Y-121766272D01*
X85878798Y-121901762D01*
X85711762Y-122068798D01*
X85576272Y-122262299D01*
X85576270Y-122262301D01*
X85476444Y-122476378D01*
X85476441Y-122476387D01*
X85415305Y-122704550D01*
X85414629Y-122708386D01*
X85413363Y-122708162D01*
X85389629Y-122759049D01*
X85334450Y-122784772D01*
X85275647Y-122769009D01*
X85241535Y-122721945D01*
X85236258Y-122704550D01*
X85185106Y-122535920D01*
X85087559Y-122353424D01*
X84956284Y-122193464D01*
X84796324Y-122062189D01*
X84613828Y-121964642D01*
X84613827Y-121964641D01*
X84613824Y-121964640D01*
X84415808Y-121904574D01*
X84415800Y-121904572D01*
X84209878Y-121884291D01*
X84209870Y-121884291D01*
X84003947Y-121904572D01*
X84003939Y-121904574D01*
X83805923Y-121964640D01*
X83623422Y-122062190D01*
X83463468Y-122193460D01*
X83463460Y-122193468D01*
X83332190Y-122353422D01*
X83234640Y-122535923D01*
X83174574Y-122733939D01*
X83174572Y-122733947D01*
X83154291Y-122939870D01*
X83154291Y-122939877D01*
X83174572Y-123145800D01*
X83174574Y-123145808D01*
X83234640Y-123343824D01*
X83234641Y-123343827D01*
X83234642Y-123343828D01*
X83332189Y-123526324D01*
X83463464Y-123686284D01*
X83623424Y-123817559D01*
X83805920Y-123915106D01*
X84003940Y-123975174D01*
X84003944Y-123975174D01*
X84003947Y-123975175D01*
X84209870Y-123995457D01*
X84209874Y-123995457D01*
X84209878Y-123995457D01*
X84415800Y-123975175D01*
X84415801Y-123975174D01*
X84415808Y-123975174D01*
X84613828Y-123915106D01*
X84796324Y-123817559D01*
X84956284Y-123686284D01*
X85087559Y-123526324D01*
X85185106Y-123343828D01*
X85241536Y-123157800D01*
X85278067Y-123109102D01*
X85337356Y-123095277D01*
X85391660Y-123122797D01*
X85413442Y-123171571D01*
X85414629Y-123171362D01*
X85415305Y-123175197D01*
X85476441Y-123403360D01*
X85476444Y-123403369D01*
X85576270Y-123617447D01*
X85576272Y-123617449D01*
X85711762Y-123810949D01*
X85878798Y-123977985D01*
X86072298Y-124113475D01*
X86072300Y-124113477D01*
X86286378Y-124213303D01*
X86286387Y-124213306D01*
X86514550Y-124274442D01*
X86518386Y-124275119D01*
X86518161Y-124276390D01*
X86569030Y-124300099D01*
X86594770Y-124355269D01*
X86579025Y-124414078D01*
X86531945Y-124448212D01*
X86345923Y-124504640D01*
X86163422Y-124602190D01*
X86003468Y-124733460D01*
X86003460Y-124733468D01*
X85872190Y-124893422D01*
X85774640Y-125075923D01*
X85714574Y-125273939D01*
X85714572Y-125273947D01*
X85694291Y-125479870D01*
X85694291Y-125479877D01*
X85714572Y-125685800D01*
X85714574Y-125685808D01*
X85774640Y-125883824D01*
X85774641Y-125883827D01*
X85774642Y-125883828D01*
X85872189Y-126066324D01*
X86003464Y-126226284D01*
X86163424Y-126357559D01*
X86345920Y-126455106D01*
X86543940Y-126515174D01*
X86543944Y-126515174D01*
X86543947Y-126515175D01*
X86749870Y-126535457D01*
X86749874Y-126535457D01*
X86749878Y-126535457D01*
X86955800Y-126515175D01*
X86955801Y-126515174D01*
X86955808Y-126515174D01*
X87153828Y-126455106D01*
X87336324Y-126357559D01*
X87496284Y-126226284D01*
X87627559Y-126066324D01*
X87725106Y-125883828D01*
X87737327Y-125843539D01*
X87773858Y-125794839D01*
X87822495Y-125780374D01*
X88714536Y-125780374D01*
X88771744Y-125801196D01*
X88802184Y-125853919D01*
X88791612Y-125913874D01*
X88777468Y-125932307D01*
X87520382Y-127189392D01*
X87465207Y-127215120D01*
X87406402Y-127199364D01*
X87400990Y-127195257D01*
X87336328Y-127142192D01*
X87336327Y-127142191D01*
X87336324Y-127142189D01*
X87153828Y-127044642D01*
X87153827Y-127044641D01*
X87153824Y-127044640D01*
X86955808Y-126984574D01*
X86955800Y-126984572D01*
X86749878Y-126964291D01*
X86749870Y-126964291D01*
X86543947Y-126984572D01*
X86543939Y-126984574D01*
X86345923Y-127044640D01*
X86163422Y-127142190D01*
X86003468Y-127273460D01*
X86003460Y-127273468D01*
X85872190Y-127433422D01*
X85774640Y-127615923D01*
X85718212Y-127801945D01*
X85681680Y-127850646D01*
X85622390Y-127864470D01*
X85568086Y-127836950D01*
X85546312Y-127788175D01*
X85545119Y-127788386D01*
X85544442Y-127784550D01*
X85483306Y-127556387D01*
X85483303Y-127556378D01*
X85383477Y-127342301D01*
X85383475Y-127342299D01*
X85247985Y-127148798D01*
X85080949Y-126981762D01*
X84887449Y-126846272D01*
X84887447Y-126846270D01*
X84673369Y-126746444D01*
X84673360Y-126746441D01*
X84445197Y-126685305D01*
X84441362Y-126684629D01*
X84441585Y-126683364D01*
X84390699Y-126659630D01*
X84364975Y-126604453D01*
X84380737Y-126545649D01*
X84427800Y-126511536D01*
X84613828Y-126455106D01*
X84796324Y-126357559D01*
X84956284Y-126226284D01*
X85087559Y-126066324D01*
X85185106Y-125883828D01*
X85245174Y-125685808D01*
X85265457Y-125479874D01*
X85262622Y-125451094D01*
X85245175Y-125273947D01*
X85245174Y-125273944D01*
X85245174Y-125273940D01*
X85185106Y-125075920D01*
X85087559Y-124893424D01*
X84956284Y-124733464D01*
X84796324Y-124602189D01*
X84613828Y-124504642D01*
X84613827Y-124504641D01*
X84613824Y-124504640D01*
X84415808Y-124444574D01*
X84415800Y-124444572D01*
X84209878Y-124424291D01*
X84209870Y-124424291D01*
X84003947Y-124444572D01*
X84003939Y-124444574D01*
X83805923Y-124504640D01*
X83623422Y-124602190D01*
X83463468Y-124733460D01*
X83463460Y-124733468D01*
X83332190Y-124893422D01*
X83234640Y-125075923D01*
X83174574Y-125273939D01*
X83174572Y-125273947D01*
X83154291Y-125479870D01*
X83154291Y-125479877D01*
X83174572Y-125685800D01*
X83174574Y-125685808D01*
X83234640Y-125883824D01*
X83234641Y-125883827D01*
X83234642Y-125883828D01*
X83332189Y-126066324D01*
X83463464Y-126226284D01*
X83623424Y-126357559D01*
X83805920Y-126455106D01*
X83991945Y-126511535D01*
X84040645Y-126548067D01*
X84054470Y-126607356D01*
X84026950Y-126661661D01*
X83978176Y-126683442D01*
X83978386Y-126684629D01*
X83974550Y-126685305D01*
X83746387Y-126746441D01*
X83746378Y-126746444D01*
X83532301Y-126846270D01*
X83532299Y-126846272D01*
X83338798Y-126981762D01*
X83171762Y-127148798D01*
X83036272Y-127342299D01*
X83036270Y-127342301D01*
X82936444Y-127556378D01*
X82936441Y-127556387D01*
X82879237Y-127769873D01*
X82879238Y-127769874D01*
X83643282Y-127769874D01*
X83700490Y-127790696D01*
X83730930Y-127843419D01*
X83728677Y-127883948D01*
X83709874Y-127947985D01*
X83709874Y-128091762D01*
X83728677Y-128155800D01*
X83724816Y-128216557D01*
X83682804Y-128260618D01*
X83643282Y-128269874D01*
X82879237Y-128269874D01*
X81500500Y-128269874D01*
X81500500Y-105159877D01*
X83154291Y-105159877D01*
X83174572Y-105365800D01*
X83174574Y-105365808D01*
X83234640Y-105563824D01*
X83234641Y-105563827D01*
X83234642Y-105563828D01*
X83332189Y-105746324D01*
X83463464Y-105906284D01*
X83623424Y-106037559D01*
X83805920Y-106135106D01*
X84003940Y-106195174D01*
X84003944Y-106195174D01*
X84003947Y-106195175D01*
X84209870Y-106215457D01*
X84209874Y-106215457D01*
X84209878Y-106215457D01*
X84415800Y-106195175D01*
X84415801Y-106195174D01*
X84415808Y-106195174D01*
X84613828Y-106135106D01*
X84796324Y-106037559D01*
X84956284Y-105906284D01*
X85087559Y-105746324D01*
X85185106Y-105563828D01*
X85245174Y-105365808D01*
X85247426Y-105342948D01*
X85265457Y-105159877D01*
X85265457Y-105159870D01*
X85245175Y-104953947D01*
X85245174Y-104953944D01*
X85245174Y-104953940D01*
X85185106Y-104755920D01*
X85087559Y-104573424D01*
X84956284Y-104413464D01*
X84796324Y-104282189D01*
X84613828Y-104184642D01*
X84613827Y-104184641D01*
X84613824Y-104184640D01*
X84415808Y-104124574D01*
X84415800Y-104124572D01*
X84209878Y-104104291D01*
X84209870Y-104104291D01*
X84003947Y-104124572D01*
X84003939Y-104124574D01*
X83805923Y-104184640D01*
X83623422Y-104282190D01*
X83463468Y-104413460D01*
X83463460Y-104413468D01*
X83332190Y-104573422D01*
X83234640Y-104755923D01*
X83174574Y-104953939D01*
X83174572Y-104953947D01*
X83154291Y-105159870D01*
X83154291Y-105159877D01*
X81500500Y-105159877D01*
X81500500Y-87379877D01*
X83154291Y-87379877D01*
X83174572Y-87585800D01*
X83174574Y-87585808D01*
X83234640Y-87783824D01*
X83234641Y-87783827D01*
X83234642Y-87783828D01*
X83332189Y-87966324D01*
X83463464Y-88126284D01*
X83623424Y-88257559D01*
X83805920Y-88355106D01*
X84003940Y-88415174D01*
X84003944Y-88415174D01*
X84003947Y-88415175D01*
X84209870Y-88435457D01*
X84209874Y-88435457D01*
X84209878Y-88435457D01*
X84415800Y-88415175D01*
X84415801Y-88415174D01*
X84415808Y-88415174D01*
X84613828Y-88355106D01*
X84796324Y-88257559D01*
X84956284Y-88126284D01*
X85087559Y-87966324D01*
X85185106Y-87783828D01*
X85245174Y-87585808D01*
X85245175Y-87585800D01*
X85265457Y-87379877D01*
X85265457Y-87379870D01*
X85245175Y-87173947D01*
X85245174Y-87173944D01*
X85245174Y-87173940D01*
X85185106Y-86975920D01*
X85087559Y-86793424D01*
X84956284Y-86633464D01*
X84796324Y-86502189D01*
X84613828Y-86404642D01*
X84613827Y-86404641D01*
X84613824Y-86404640D01*
X84415808Y-86344574D01*
X84415800Y-86344572D01*
X84209878Y-86324291D01*
X84209870Y-86324291D01*
X84003947Y-86344572D01*
X84003939Y-86344574D01*
X83805923Y-86404640D01*
X83623422Y-86502190D01*
X83463468Y-86633460D01*
X83463460Y-86633468D01*
X83332190Y-86793422D01*
X83234640Y-86975923D01*
X83174574Y-87173939D01*
X83174572Y-87173947D01*
X83154291Y-87379870D01*
X83154291Y-87379877D01*
X81500500Y-87379877D01*
X81500500Y-81489500D01*
X81521322Y-81432292D01*
X81574045Y-81401852D01*
X81589500Y-81400500D01*
X123385874Y-81400500D01*
X123443082Y-81421322D01*
G37*
%TD.AperFunction*%
%TD*%
M02*
