%TF.GenerationSoftware,KiCad,Pcbnew,7.0.7*%
%TF.CreationDate,2024-02-26T19:43:43+01:00*%
%TF.ProjectId,rpi_cm4_bb,7270695f-636d-4345-9f62-622e6b696361,rev?*%
%TF.SameCoordinates,Original*%
%TF.FileFunction,Copper,L3,Inr*%
%TF.FilePolarity,Positive*%
%FSLAX46Y46*%
G04 Gerber Fmt 4.6, Leading zero omitted, Abs format (unit mm)*
G04 Created by KiCad (PCBNEW 7.0.7) date 2024-02-26 19:43:43*
%MOMM*%
%LPD*%
G01*
G04 APERTURE LIST*
G04 Aperture macros list*
%AMRoundRect*
0 Rectangle with rounded corners*
0 $1 Rounding radius*
0 $2 $3 $4 $5 $6 $7 $8 $9 X,Y pos of 4 corners*
0 Add a 4 corners polygon primitive as box body*
4,1,4,$2,$3,$4,$5,$6,$7,$8,$9,$2,$3,0*
0 Add four circle primitives for the rounded corners*
1,1,$1+$1,$2,$3*
1,1,$1+$1,$4,$5*
1,1,$1+$1,$6,$7*
1,1,$1+$1,$8,$9*
0 Add four rect primitives between the rounded corners*
20,1,$1+$1,$2,$3,$4,$5,0*
20,1,$1+$1,$4,$5,$6,$7,0*
20,1,$1+$1,$6,$7,$8,$9,0*
20,1,$1+$1,$8,$9,$2,$3,0*%
G04 Aperture macros list end*
%TA.AperFunction,ComponentPad*%
%ADD10O,1.700000X1.300000*%
%TD*%
%TA.AperFunction,ComponentPad*%
%ADD11O,1.400000X1.000000*%
%TD*%
%TA.AperFunction,ComponentPad*%
%ADD12R,1.700000X1.700000*%
%TD*%
%TA.AperFunction,ComponentPad*%
%ADD13O,1.700000X1.700000*%
%TD*%
%TA.AperFunction,ComponentPad*%
%ADD14O,1.000000X2.100000*%
%TD*%
%TA.AperFunction,ComponentPad*%
%ADD15RoundRect,0.250000X-0.250000X-0.650000X0.250000X-0.650000X0.250000X0.650000X-0.250000X0.650000X0*%
%TD*%
%TA.AperFunction,ViaPad*%
%ADD16C,0.508000*%
%TD*%
G04 APERTURE END LIST*
D10*
%TO.N,GND*%
%TO.C,J2*%
X159774874Y-103967374D03*
D11*
X156744874Y-103667374D03*
X156744874Y-98817374D03*
D10*
X159774874Y-98517374D03*
%TD*%
D12*
%TO.N,+3.3V*%
%TO.C,J3*%
X86749874Y-133099874D03*
D13*
%TO.N,+5V*%
X84209874Y-133099874D03*
%TO.N,/CM4 GPIO/GPIO2*%
X86749874Y-130559874D03*
%TO.N,+5V*%
X84209874Y-130559874D03*
%TO.N,/CM4 GPIO/GPIO3*%
X86749874Y-128019874D03*
%TO.N,GND*%
X84209874Y-128019874D03*
%TO.N,/CM4 GPIO/GPIO4*%
X86749874Y-125479874D03*
%TO.N,/CM4 GPIO/GPIO14*%
X84209874Y-125479874D03*
%TO.N,GND*%
X86749874Y-122939874D03*
%TO.N,/CM4 GPIO/GPIO15*%
X84209874Y-122939874D03*
%TO.N,/CM4 GPIO/GPIO17*%
X86749874Y-120399874D03*
%TO.N,/CM4 GPIO/GPIO18*%
X84209874Y-120399874D03*
%TO.N,/CM4 GPIO/GPIO27*%
X86749874Y-117859874D03*
%TO.N,GND*%
X84209874Y-117859874D03*
%TO.N,/CM4 GPIO/GPIO22*%
X86749874Y-115319874D03*
%TO.N,/CM4 GPIO/GPIO23*%
X84209874Y-115319874D03*
%TO.N,+3.3V*%
X86749874Y-112779874D03*
%TO.N,/CM4 GPIO/GPIO24*%
X84209874Y-112779874D03*
%TO.N,/CM4 GPIO/GPIO10*%
X86749874Y-110239874D03*
%TO.N,GND*%
X84209874Y-110239874D03*
%TO.N,/CM4 GPIO/GPIO9*%
X86749874Y-107699874D03*
%TO.N,/CM4 GPIO/GPIO25*%
X84209874Y-107699874D03*
%TO.N,/CM4 GPIO/GPIO11*%
X86749874Y-105159874D03*
%TO.N,/CM4 GPIO/GPIO8*%
X84209874Y-105159874D03*
%TO.N,GND*%
X86749874Y-102619874D03*
%TO.N,/CM4 GPIO/GPIO7*%
X84209874Y-102619874D03*
%TO.N,/CM4 GPIO/ID_SD*%
X86749874Y-100079874D03*
%TO.N,/CM4 GPIO/ID_SC*%
X84209874Y-100079874D03*
%TO.N,/CM4 GPIO/GPIO5*%
X86749874Y-97539874D03*
%TO.N,GND*%
X84209874Y-97539874D03*
%TO.N,/CM4 GPIO/GPIO6*%
X86749874Y-94999874D03*
%TO.N,/CM4 GPIO/GPIO12*%
X84209874Y-94999874D03*
%TO.N,/CM4 GPIO/GPIO13*%
X86749874Y-92459874D03*
%TO.N,GND*%
X84209874Y-92459874D03*
%TO.N,/CM4 GPIO/GPIO19*%
X86749874Y-89919874D03*
%TO.N,/CM4 GPIO/GPIO16*%
X84209874Y-89919874D03*
%TO.N,/CM4 GPIO/GPIO26*%
X86749874Y-87379874D03*
%TO.N,/CM4 GPIO/GPIO20*%
X84209874Y-87379874D03*
%TO.N,GND*%
X86749874Y-84839874D03*
%TO.N,/CM4 GPIO/GPIO21*%
X84209874Y-84839874D03*
%TD*%
D14*
%TO.N,GND*%
%TO.C,J1*%
X93453674Y-129460474D03*
X102093674Y-129460474D03*
D15*
X93453674Y-133640474D03*
X102093674Y-133640474D03*
%TD*%
D16*
%TO.N,+3.3V*%
X100994874Y-96904874D03*
X110272474Y-117943274D03*
X102294874Y-89464874D03*
X98994874Y-89434874D03*
X110272474Y-116774874D03*
%TO.N,GND*%
X127950874Y-88580874D03*
X130998874Y-88580874D03*
X122870874Y-88072874D03*
X90358874Y-104328874D03*
X128966874Y-88580874D03*
X135062874Y-82992874D03*
X135062874Y-88072874D03*
X135062874Y-87056874D03*
X125918874Y-88580874D03*
X135062874Y-86040874D03*
X88580874Y-94168874D03*
X135062874Y-81976874D03*
X92898874Y-108392874D03*
X135062874Y-84008874D03*
X92898874Y-121092874D03*
X122870874Y-84008874D03*
X92898874Y-116774874D03*
X134046874Y-88580874D03*
X132014874Y-88580874D03*
X122870874Y-85024874D03*
X97284874Y-130814874D03*
X122870874Y-87056874D03*
X92898874Y-98994874D03*
X122870874Y-81976874D03*
X124902874Y-88580874D03*
X92898874Y-112710874D03*
X122870874Y-82992874D03*
X133030874Y-88580874D03*
X122870874Y-86040874D03*
X154894874Y-101604874D03*
X129982874Y-88580874D03*
X88580874Y-88834874D03*
X123886874Y-88580874D03*
X126934874Y-88580874D03*
X135062874Y-85024874D03*
X97826474Y-127392074D03*
%TO.N,/CM4 GPIO/GPIO2*%
X107962233Y-112952167D03*
%TO.N,/CM4 GPIO/GPIO3*%
X108342074Y-112355274D03*
%TO.N,/CM4 GPIO/GPIO4*%
X108225761Y-111657398D03*
%TO.N,/CM4 GPIO/GPIO17*%
X107427674Y-111103898D03*
%TO.N,/CM4 GPIO/GPIO27*%
X111796474Y-111644074D03*
%TO.N,/CM4 GPIO/GPIO22*%
X112417587Y-111305285D03*
%TO.N,/CM4 GPIO/GPIO10*%
X112842970Y-110739945D03*
%TO.N,/CM4 GPIO/GPIO9*%
X107478474Y-108646874D03*
%TO.N,/CM4 GPIO/GPIO11*%
X113157974Y-108596074D03*
%TO.N,/CM4 GPIO/ID_SD*%
X112050474Y-108545274D03*
%TO.N,/CM4 GPIO/GPIO5*%
X111898074Y-107834074D03*
%TO.N,/CM4 GPIO/GPIO6*%
X112710874Y-106056074D03*
%TO.N,/CM4 GPIO/GPIO13*%
X111999674Y-106056074D03*
%TO.N,/CM4 GPIO/GPIO19*%
X111237674Y-105903674D03*
%TO.N,/CM4 GPIO/GPIO26*%
X107732474Y-104227274D03*
%TO.N,/CM4 GPIO/nLED_PWR*%
X101634874Y-100874874D03*
X107580074Y-120330874D03*
%TD*%
%TA.AperFunction,Conductor*%
%TO.N,+3.3V*%
G36*
X122681162Y-81421322D02*
G01*
X122711602Y-81474045D01*
X122701030Y-81534000D01*
X122672072Y-81564370D01*
X122617433Y-81599484D01*
X122570180Y-81629852D01*
X122484590Y-81728628D01*
X122430300Y-81847507D01*
X122411700Y-81976873D01*
X122411700Y-81976874D01*
X122430300Y-82106240D01*
X122484590Y-82225119D01*
X122484591Y-82225120D01*
X122484592Y-82225122D01*
X122570179Y-82323895D01*
X122680126Y-82394553D01*
X122680128Y-82394554D01*
X122680127Y-82394554D01*
X122696901Y-82399479D01*
X122745926Y-82435575D01*
X122760279Y-82494738D01*
X122733244Y-82549286D01*
X122696901Y-82570269D01*
X122680128Y-82575193D01*
X122570180Y-82645852D01*
X122484590Y-82744628D01*
X122430300Y-82863507D01*
X122411700Y-82992873D01*
X122411700Y-82992874D01*
X122430300Y-83122240D01*
X122484590Y-83241119D01*
X122484591Y-83241120D01*
X122484592Y-83241122D01*
X122570179Y-83339895D01*
X122680126Y-83410553D01*
X122680128Y-83410554D01*
X122680127Y-83410554D01*
X122696901Y-83415479D01*
X122745926Y-83451575D01*
X122760279Y-83510738D01*
X122733244Y-83565286D01*
X122696901Y-83586269D01*
X122680128Y-83591193D01*
X122570180Y-83661852D01*
X122484590Y-83760628D01*
X122430300Y-83879507D01*
X122411700Y-84008873D01*
X122411700Y-84008874D01*
X122430300Y-84138240D01*
X122484590Y-84257119D01*
X122484591Y-84257120D01*
X122484592Y-84257122D01*
X122570179Y-84355895D01*
X122662400Y-84415161D01*
X122680128Y-84426554D01*
X122680127Y-84426554D01*
X122696901Y-84431479D01*
X122745926Y-84467575D01*
X122760279Y-84526738D01*
X122733244Y-84581286D01*
X122696901Y-84602269D01*
X122680128Y-84607193D01*
X122570180Y-84677852D01*
X122484590Y-84776628D01*
X122430300Y-84895507D01*
X122411700Y-85024873D01*
X122411700Y-85024874D01*
X122430300Y-85154240D01*
X122484590Y-85273119D01*
X122484591Y-85273120D01*
X122484592Y-85273122D01*
X122570179Y-85371895D01*
X122654875Y-85426325D01*
X122680128Y-85442554D01*
X122680127Y-85442554D01*
X122696901Y-85447479D01*
X122745926Y-85483575D01*
X122760279Y-85542738D01*
X122733244Y-85597286D01*
X122696901Y-85618269D01*
X122680128Y-85623193D01*
X122570180Y-85693852D01*
X122484590Y-85792628D01*
X122430300Y-85911507D01*
X122411700Y-86040873D01*
X122411700Y-86040874D01*
X122430300Y-86170240D01*
X122484590Y-86289119D01*
X122484591Y-86289120D01*
X122484592Y-86289122D01*
X122570179Y-86387895D01*
X122680126Y-86458553D01*
X122680128Y-86458554D01*
X122680127Y-86458554D01*
X122696901Y-86463479D01*
X122745926Y-86499575D01*
X122760279Y-86558738D01*
X122733244Y-86613286D01*
X122696901Y-86634269D01*
X122680128Y-86639193D01*
X122570180Y-86709852D01*
X122484590Y-86808628D01*
X122430300Y-86927507D01*
X122411700Y-87056873D01*
X122411700Y-87056874D01*
X122430300Y-87186240D01*
X122484590Y-87305119D01*
X122484591Y-87305120D01*
X122484592Y-87305122D01*
X122570179Y-87403895D01*
X122680126Y-87474553D01*
X122680128Y-87474554D01*
X122680127Y-87474554D01*
X122696901Y-87479479D01*
X122745926Y-87515575D01*
X122760279Y-87574738D01*
X122733244Y-87629286D01*
X122696901Y-87650269D01*
X122680128Y-87655193D01*
X122570180Y-87725852D01*
X122570179Y-87725852D01*
X122570179Y-87725853D01*
X122568499Y-87727792D01*
X122484590Y-87824628D01*
X122430300Y-87943507D01*
X122411700Y-88072873D01*
X122411700Y-88072874D01*
X122430300Y-88202240D01*
X122484590Y-88321119D01*
X122484591Y-88321120D01*
X122484592Y-88321122D01*
X122570179Y-88419895D01*
X122675925Y-88487853D01*
X122680128Y-88490554D01*
X122716764Y-88501311D01*
X122805527Y-88527374D01*
X122805528Y-88527374D01*
X122936220Y-88527374D01*
X122936221Y-88527374D01*
X123061622Y-88490553D01*
X123171569Y-88419895D01*
X123257156Y-88321122D01*
X123311448Y-88202238D01*
X123330048Y-88072874D01*
X123327327Y-88053952D01*
X123339795Y-87994364D01*
X123366105Y-87973671D01*
X123341374Y-87969311D01*
X123304917Y-87929207D01*
X123257157Y-87824628D01*
X123257156Y-87824627D01*
X123257156Y-87824626D01*
X123171569Y-87725853D01*
X123061622Y-87655195D01*
X123061620Y-87655194D01*
X123061618Y-87655193D01*
X123044847Y-87650269D01*
X122995822Y-87614174D01*
X122981468Y-87555011D01*
X123008502Y-87500463D01*
X123044847Y-87479479D01*
X123056720Y-87475992D01*
X123061622Y-87474553D01*
X123171569Y-87403895D01*
X123257156Y-87305122D01*
X123288917Y-87235575D01*
X123304917Y-87200540D01*
X123347622Y-87157152D01*
X123408226Y-87151365D01*
X123458371Y-87185887D01*
X123474874Y-87237512D01*
X123474874Y-87892235D01*
X123454052Y-87949443D01*
X123438628Y-87958347D01*
X123448497Y-87958661D01*
X123473079Y-87974874D01*
X123718479Y-87974874D01*
X123775687Y-87995696D01*
X123806127Y-88048419D01*
X123795555Y-88108374D01*
X123748919Y-88147507D01*
X123743553Y-88149269D01*
X123696128Y-88163193D01*
X123586180Y-88233852D01*
X123500590Y-88332628D01*
X123446300Y-88451507D01*
X123427700Y-88580873D01*
X123427700Y-88580874D01*
X123446300Y-88710240D01*
X123500590Y-88829119D01*
X123500591Y-88829120D01*
X123500592Y-88829122D01*
X123586179Y-88927895D01*
X123696126Y-88998553D01*
X123696128Y-88998554D01*
X123732764Y-89009311D01*
X123821527Y-89035374D01*
X123821528Y-89035374D01*
X123952220Y-89035374D01*
X123952221Y-89035374D01*
X124077622Y-88998553D01*
X124187569Y-88927895D01*
X124273156Y-88829122D01*
X124313917Y-88739866D01*
X124356620Y-88696480D01*
X124417224Y-88690692D01*
X124467370Y-88725214D01*
X124475830Y-88739867D01*
X124516591Y-88829119D01*
X124516592Y-88829122D01*
X124602179Y-88927895D01*
X124712126Y-88998553D01*
X124712128Y-88998554D01*
X124748764Y-89009311D01*
X124837527Y-89035374D01*
X124837528Y-89035374D01*
X124968220Y-89035374D01*
X124968221Y-89035374D01*
X125093622Y-88998553D01*
X125203569Y-88927895D01*
X125289156Y-88829122D01*
X125329917Y-88739866D01*
X125372620Y-88696480D01*
X125433224Y-88690692D01*
X125483370Y-88725214D01*
X125491830Y-88739867D01*
X125532591Y-88829119D01*
X125532592Y-88829122D01*
X125618179Y-88927895D01*
X125728126Y-88998553D01*
X125728128Y-88998554D01*
X125764764Y-89009311D01*
X125853527Y-89035374D01*
X125853528Y-89035374D01*
X125984220Y-89035374D01*
X125984221Y-89035374D01*
X126109622Y-88998553D01*
X126219569Y-88927895D01*
X126305156Y-88829122D01*
X126345917Y-88739866D01*
X126388620Y-88696480D01*
X126449224Y-88690692D01*
X126499370Y-88725214D01*
X126507830Y-88739867D01*
X126548591Y-88829119D01*
X126548592Y-88829122D01*
X126634179Y-88927895D01*
X126744126Y-88998553D01*
X126744128Y-88998554D01*
X126780764Y-89009311D01*
X126869527Y-89035374D01*
X126869528Y-89035374D01*
X127000220Y-89035374D01*
X127000221Y-89035374D01*
X127125622Y-88998553D01*
X127235569Y-88927895D01*
X127321156Y-88829122D01*
X127361917Y-88739866D01*
X127404620Y-88696480D01*
X127465224Y-88690692D01*
X127515370Y-88725214D01*
X127523830Y-88739867D01*
X127564591Y-88829119D01*
X127564592Y-88829122D01*
X127650179Y-88927895D01*
X127760126Y-88998553D01*
X127760128Y-88998554D01*
X127796764Y-89009311D01*
X127885527Y-89035374D01*
X127885528Y-89035374D01*
X128016220Y-89035374D01*
X128016221Y-89035374D01*
X128141622Y-88998553D01*
X128251569Y-88927895D01*
X128337156Y-88829122D01*
X128377917Y-88739866D01*
X128420620Y-88696480D01*
X128481224Y-88690692D01*
X128531370Y-88725214D01*
X128539830Y-88739867D01*
X128580591Y-88829119D01*
X128580592Y-88829122D01*
X128666179Y-88927895D01*
X128776126Y-88998553D01*
X128776128Y-88998554D01*
X128812764Y-89009311D01*
X128901527Y-89035374D01*
X128901528Y-89035374D01*
X129032220Y-89035374D01*
X129032221Y-89035374D01*
X129157622Y-88998553D01*
X129267569Y-88927895D01*
X129353156Y-88829122D01*
X129393917Y-88739866D01*
X129436620Y-88696480D01*
X129497224Y-88690692D01*
X129547370Y-88725214D01*
X129555830Y-88739867D01*
X129596591Y-88829119D01*
X129596592Y-88829122D01*
X129682179Y-88927895D01*
X129792126Y-88998553D01*
X129792128Y-88998554D01*
X129828764Y-89009311D01*
X129917527Y-89035374D01*
X129917528Y-89035374D01*
X130048220Y-89035374D01*
X130048221Y-89035374D01*
X130173622Y-88998553D01*
X130283569Y-88927895D01*
X130369156Y-88829122D01*
X130409917Y-88739866D01*
X130452620Y-88696480D01*
X130513224Y-88690692D01*
X130563370Y-88725214D01*
X130571830Y-88739867D01*
X130612591Y-88829119D01*
X130612592Y-88829122D01*
X130698179Y-88927895D01*
X130808126Y-88998553D01*
X130808128Y-88998554D01*
X130844764Y-89009311D01*
X130933527Y-89035374D01*
X130933528Y-89035374D01*
X131064220Y-89035374D01*
X131064221Y-89035374D01*
X131189622Y-88998553D01*
X131299569Y-88927895D01*
X131385156Y-88829122D01*
X131425917Y-88739866D01*
X131468620Y-88696480D01*
X131529224Y-88690692D01*
X131579370Y-88725214D01*
X131587830Y-88739867D01*
X131628591Y-88829119D01*
X131628592Y-88829122D01*
X131714179Y-88927895D01*
X131824126Y-88998553D01*
X131824128Y-88998554D01*
X131860764Y-89009311D01*
X131949527Y-89035374D01*
X131949528Y-89035374D01*
X132080220Y-89035374D01*
X132080221Y-89035374D01*
X132205622Y-88998553D01*
X132315569Y-88927895D01*
X132401156Y-88829122D01*
X132441917Y-88739866D01*
X132484620Y-88696480D01*
X132545224Y-88690692D01*
X132595370Y-88725214D01*
X132603830Y-88739867D01*
X132644591Y-88829119D01*
X132644592Y-88829122D01*
X132730179Y-88927895D01*
X132840126Y-88998553D01*
X132840128Y-88998554D01*
X132876764Y-89009311D01*
X132965527Y-89035374D01*
X132965528Y-89035374D01*
X133096220Y-89035374D01*
X133096221Y-89035374D01*
X133221622Y-88998553D01*
X133331569Y-88927895D01*
X133417156Y-88829122D01*
X133457917Y-88739866D01*
X133500620Y-88696480D01*
X133561224Y-88690692D01*
X133611370Y-88725214D01*
X133619830Y-88739867D01*
X133660591Y-88829119D01*
X133660592Y-88829122D01*
X133746179Y-88927895D01*
X133856126Y-88998553D01*
X133856128Y-88998554D01*
X133892764Y-89009311D01*
X133981527Y-89035374D01*
X133981528Y-89035374D01*
X134112220Y-89035374D01*
X134112221Y-89035374D01*
X134237622Y-88998553D01*
X134347569Y-88927895D01*
X134433156Y-88829122D01*
X134487448Y-88710238D01*
X134506048Y-88580874D01*
X134487448Y-88451510D01*
X134480607Y-88436531D01*
X134433157Y-88332628D01*
X134433156Y-88332627D01*
X134433156Y-88332626D01*
X134347569Y-88233853D01*
X134237622Y-88163195D01*
X134237619Y-88163193D01*
X134190195Y-88149269D01*
X134141171Y-88113173D01*
X134126817Y-88054010D01*
X134153852Y-87999462D01*
X134209624Y-87975053D01*
X134215269Y-87974874D01*
X134500237Y-87974874D01*
X134507871Y-87971313D01*
X134566678Y-87987062D01*
X134601603Y-88036927D01*
X134603370Y-88066509D01*
X134603700Y-88066509D01*
X134603700Y-88072042D01*
X134603735Y-88072629D01*
X134603700Y-88072872D01*
X134603700Y-88072874D01*
X134622300Y-88202240D01*
X134676590Y-88321119D01*
X134676591Y-88321120D01*
X134676592Y-88321122D01*
X134762179Y-88419895D01*
X134867925Y-88487853D01*
X134872128Y-88490554D01*
X134908764Y-88501311D01*
X134997527Y-88527374D01*
X134997528Y-88527374D01*
X135128220Y-88527374D01*
X135128221Y-88527374D01*
X135253622Y-88490553D01*
X135363569Y-88419895D01*
X135449156Y-88321122D01*
X135503448Y-88202238D01*
X135522048Y-88072874D01*
X135521928Y-88072042D01*
X135518294Y-88046765D01*
X135503448Y-87943510D01*
X135500731Y-87937561D01*
X135449157Y-87824628D01*
X135449156Y-87824627D01*
X135449156Y-87824626D01*
X135363569Y-87725853D01*
X135253622Y-87655195D01*
X135253620Y-87655194D01*
X135253618Y-87655193D01*
X135236847Y-87650269D01*
X135187822Y-87614174D01*
X135173468Y-87555011D01*
X135200502Y-87500463D01*
X135236847Y-87479479D01*
X135248720Y-87475992D01*
X135253622Y-87474553D01*
X135363569Y-87403895D01*
X135449156Y-87305122D01*
X135503448Y-87186238D01*
X135522048Y-87056874D01*
X135503448Y-86927510D01*
X135500731Y-86921561D01*
X135449157Y-86808628D01*
X135449156Y-86808627D01*
X135449156Y-86808626D01*
X135363569Y-86709853D01*
X135253622Y-86639195D01*
X135253620Y-86639194D01*
X135253618Y-86639193D01*
X135236847Y-86634269D01*
X135187822Y-86598174D01*
X135173468Y-86539011D01*
X135200502Y-86484463D01*
X135236847Y-86463479D01*
X135248720Y-86459992D01*
X135253622Y-86458553D01*
X135363569Y-86387895D01*
X135449156Y-86289122D01*
X135503448Y-86170238D01*
X135522048Y-86040874D01*
X135503448Y-85911510D01*
X135500731Y-85905561D01*
X135449157Y-85792628D01*
X135449156Y-85792627D01*
X135449156Y-85792626D01*
X135363569Y-85693853D01*
X135253622Y-85623195D01*
X135253620Y-85623194D01*
X135253618Y-85623193D01*
X135236847Y-85618269D01*
X135187822Y-85582174D01*
X135173468Y-85523011D01*
X135200502Y-85468463D01*
X135236847Y-85447479D01*
X135248720Y-85443992D01*
X135253622Y-85442553D01*
X135363569Y-85371895D01*
X135449156Y-85273122D01*
X135503448Y-85154238D01*
X135522048Y-85024874D01*
X135509450Y-84937253D01*
X138295763Y-84937253D01*
X138324610Y-85273122D01*
X138325617Y-85284838D01*
X138325619Y-85284851D01*
X138394899Y-85626762D01*
X138502704Y-85958551D01*
X138502706Y-85958555D01*
X138647628Y-86275892D01*
X138647630Y-86275894D01*
X138827781Y-86574641D01*
X138827785Y-86574647D01*
X139040814Y-86850908D01*
X139040826Y-86850923D01*
X139240977Y-87056873D01*
X139283959Y-87101100D01*
X139352508Y-87157152D01*
X139554025Y-87321933D01*
X139554029Y-87321935D01*
X139554032Y-87321938D01*
X139847518Y-87510550D01*
X140160592Y-87664478D01*
X140160598Y-87664480D01*
X140160600Y-87664481D01*
X140160605Y-87664483D01*
X140489159Y-87781710D01*
X140489163Y-87781711D01*
X140489171Y-87781714D01*
X140828968Y-87860731D01*
X140828972Y-87860732D01*
X141102061Y-87892066D01*
X141175565Y-87900500D01*
X141175566Y-87900500D01*
X141437138Y-87900500D01*
X141437145Y-87900500D01*
X141665654Y-87887433D01*
X141698300Y-87885567D01*
X142042051Y-87826078D01*
X142042050Y-87826078D01*
X142042057Y-87826077D01*
X142269900Y-87759175D01*
X142376784Y-87727792D01*
X142376786Y-87727790D01*
X142376793Y-87727789D01*
X142698144Y-87591986D01*
X142698154Y-87591980D01*
X142698157Y-87591979D01*
X143001914Y-87420439D01*
X143001915Y-87420438D01*
X143001919Y-87420436D01*
X143284159Y-87215377D01*
X143541184Y-86979481D01*
X143769644Y-86715824D01*
X143966560Y-86427844D01*
X144129365Y-86119294D01*
X144255937Y-85794196D01*
X144344626Y-85456790D01*
X144394275Y-85111473D01*
X144404237Y-84762747D01*
X144374383Y-84415159D01*
X144305101Y-84073240D01*
X144197295Y-83741447D01*
X144116845Y-83565286D01*
X144052371Y-83424107D01*
X144052369Y-83424105D01*
X144047167Y-83415479D01*
X143872215Y-83125353D01*
X143659180Y-82849084D01*
X143659176Y-82849080D01*
X143659173Y-82849076D01*
X143416042Y-82598901D01*
X143145974Y-82378066D01*
X143145968Y-82378062D01*
X142852482Y-82189450D01*
X142539408Y-82035522D01*
X142539404Y-82035520D01*
X142539399Y-82035518D01*
X142539394Y-82035516D01*
X142210840Y-81918289D01*
X142210830Y-81918286D01*
X141871029Y-81839268D01*
X141871032Y-81839268D01*
X141524435Y-81799500D01*
X141524434Y-81799500D01*
X141262855Y-81799500D01*
X141193845Y-81803446D01*
X141001699Y-81814432D01*
X140657948Y-81873921D01*
X140323215Y-81972207D01*
X140323201Y-81972213D01*
X140001856Y-82108014D01*
X140001842Y-82108020D01*
X139698085Y-82279560D01*
X139415843Y-82484621D01*
X139158818Y-82720516D01*
X138930357Y-82984174D01*
X138930355Y-82984177D01*
X138733440Y-83272155D01*
X138646744Y-83436463D01*
X138570635Y-83580706D01*
X138539042Y-83661852D01*
X138444060Y-83905811D01*
X138355374Y-84243208D01*
X138355373Y-84243211D01*
X138305725Y-84588519D01*
X138305725Y-84588526D01*
X138305725Y-84588527D01*
X138295763Y-84937253D01*
X135509450Y-84937253D01*
X135503448Y-84895510D01*
X135500731Y-84889561D01*
X135449157Y-84776628D01*
X135449156Y-84776627D01*
X135449156Y-84776626D01*
X135363569Y-84677853D01*
X135253622Y-84607195D01*
X135253620Y-84607194D01*
X135253618Y-84607193D01*
X135236847Y-84602269D01*
X135187822Y-84566174D01*
X135173468Y-84507011D01*
X135200502Y-84452463D01*
X135236847Y-84431479D01*
X135248720Y-84427992D01*
X135253622Y-84426553D01*
X135363569Y-84355895D01*
X135449156Y-84257122D01*
X135503448Y-84138238D01*
X135522048Y-84008874D01*
X135503448Y-83879510D01*
X135500731Y-83873561D01*
X135449157Y-83760628D01*
X135449156Y-83760627D01*
X135449156Y-83760626D01*
X135363569Y-83661853D01*
X135253622Y-83591195D01*
X135253620Y-83591194D01*
X135253618Y-83591193D01*
X135236847Y-83586269D01*
X135187822Y-83550174D01*
X135173468Y-83491011D01*
X135200502Y-83436463D01*
X135236847Y-83415479D01*
X135248720Y-83411992D01*
X135253622Y-83410553D01*
X135363569Y-83339895D01*
X135449156Y-83241122D01*
X135503448Y-83122238D01*
X135522048Y-82992874D01*
X135503448Y-82863510D01*
X135500731Y-82857561D01*
X135449157Y-82744628D01*
X135449156Y-82744627D01*
X135449156Y-82744626D01*
X135363569Y-82645853D01*
X135253622Y-82575195D01*
X135253620Y-82575194D01*
X135253618Y-82575193D01*
X135236847Y-82570269D01*
X135187822Y-82534174D01*
X135173468Y-82475011D01*
X135200502Y-82420463D01*
X135236847Y-82399479D01*
X135248720Y-82395992D01*
X135253622Y-82394553D01*
X135363569Y-82323895D01*
X135449156Y-82225122D01*
X135503448Y-82106238D01*
X135522048Y-81976874D01*
X135503448Y-81847510D01*
X135500731Y-81841561D01*
X135449157Y-81728628D01*
X135449156Y-81728627D01*
X135449156Y-81728626D01*
X135363569Y-81629853D01*
X135261676Y-81564371D01*
X135224808Y-81515926D01*
X135227704Y-81455116D01*
X135269012Y-81410394D01*
X135309794Y-81400500D01*
X161410500Y-81400500D01*
X161467708Y-81421322D01*
X161498148Y-81474045D01*
X161499500Y-81489500D01*
X161499500Y-136310500D01*
X161478678Y-136367708D01*
X161425955Y-136398148D01*
X161410500Y-136399500D01*
X81589500Y-136399500D01*
X81532292Y-136378678D01*
X81501852Y-136325955D01*
X81500500Y-136310500D01*
X81500500Y-133099877D01*
X83154291Y-133099877D01*
X83174572Y-133305800D01*
X83174574Y-133305808D01*
X83234640Y-133503824D01*
X83234641Y-133503827D01*
X83234642Y-133503828D01*
X83332189Y-133686324D01*
X83463464Y-133846284D01*
X83623424Y-133977559D01*
X83805920Y-134075106D01*
X84003940Y-134135174D01*
X84003944Y-134135174D01*
X84003947Y-134135175D01*
X84209870Y-134155457D01*
X84209874Y-134155457D01*
X84209878Y-134155457D01*
X84415800Y-134135175D01*
X84415801Y-134135174D01*
X84415808Y-134135174D01*
X84613828Y-134075106D01*
X84796324Y-133977559D01*
X84956284Y-133846284D01*
X85087559Y-133686324D01*
X85185106Y-133503828D01*
X85225706Y-133369984D01*
X85262238Y-133321285D01*
X85321527Y-133307460D01*
X85375831Y-133334980D01*
X85399742Y-133390968D01*
X85399874Y-133395820D01*
X85399874Y-133997711D01*
X85406275Y-134057247D01*
X85456521Y-134191963D01*
X85456522Y-134191965D01*
X85542682Y-134307059D01*
X85542688Y-134307065D01*
X85657782Y-134393225D01*
X85657784Y-134393226D01*
X85792500Y-134443472D01*
X85852036Y-134449873D01*
X85852052Y-134449874D01*
X86499873Y-134449874D01*
X86499873Y-133671782D01*
X86520695Y-133614574D01*
X86573418Y-133584134D01*
X86601539Y-133583688D01*
X86607557Y-133584553D01*
X86607559Y-133584554D01*
X86714111Y-133599874D01*
X86714118Y-133599874D01*
X86785630Y-133599874D01*
X86785637Y-133599874D01*
X86892189Y-133584554D01*
X86892190Y-133584553D01*
X86898208Y-133583688D01*
X86957797Y-133596156D01*
X86995430Y-133644011D01*
X86999874Y-133671782D01*
X86999874Y-134449873D01*
X86999875Y-134449874D01*
X87647696Y-134449874D01*
X87647711Y-134449873D01*
X87707247Y-134443472D01*
X87841963Y-134393226D01*
X87841965Y-134393225D01*
X87906733Y-134344739D01*
X92753174Y-134344739D01*
X92756026Y-134375163D01*
X92756028Y-134375173D01*
X92782166Y-134449873D01*
X92800881Y-134503356D01*
X92881524Y-134612624D01*
X92990792Y-134693267D01*
X93118975Y-134738120D01*
X93118982Y-134738120D01*
X93118984Y-134738121D01*
X93137985Y-134739902D01*
X93149408Y-134740974D01*
X93149409Y-134740974D01*
X93757939Y-134740974D01*
X93757940Y-134740974D01*
X93776230Y-134739258D01*
X93788363Y-134738121D01*
X93788363Y-134738120D01*
X93788373Y-134738120D01*
X93916556Y-134693267D01*
X94025824Y-134612624D01*
X94106467Y-134503356D01*
X94151320Y-134375173D01*
X94154174Y-134344740D01*
X94154174Y-134344739D01*
X101393174Y-134344739D01*
X101396026Y-134375163D01*
X101396028Y-134375173D01*
X101422166Y-134449873D01*
X101440881Y-134503356D01*
X101521524Y-134612624D01*
X101630792Y-134693267D01*
X101758975Y-134738120D01*
X101758982Y-134738120D01*
X101758984Y-134738121D01*
X101777985Y-134739902D01*
X101789408Y-134740974D01*
X101789409Y-134740974D01*
X102397939Y-134740974D01*
X102397940Y-134740974D01*
X102416230Y-134739258D01*
X102428363Y-134738121D01*
X102428363Y-134738120D01*
X102428373Y-134738120D01*
X102556556Y-134693267D01*
X102665824Y-134612624D01*
X102746467Y-134503356D01*
X102791320Y-134375173D01*
X102794174Y-134344740D01*
X102794174Y-132937253D01*
X105295763Y-132937253D01*
X105325617Y-133284838D01*
X105325619Y-133284851D01*
X105394899Y-133626762D01*
X105502704Y-133958551D01*
X105502706Y-133958555D01*
X105647628Y-134275892D01*
X105647630Y-134275894D01*
X105827781Y-134574641D01*
X105827785Y-134574647D01*
X106040814Y-134850908D01*
X106040826Y-134850923D01*
X106283957Y-135101098D01*
X106554025Y-135321933D01*
X106554029Y-135321935D01*
X106554032Y-135321938D01*
X106847518Y-135510550D01*
X107160592Y-135664478D01*
X107160598Y-135664480D01*
X107160600Y-135664481D01*
X107160605Y-135664483D01*
X107489159Y-135781710D01*
X107489163Y-135781711D01*
X107489171Y-135781714D01*
X107828968Y-135860731D01*
X107828972Y-135860732D01*
X108102061Y-135892066D01*
X108175565Y-135900500D01*
X108175566Y-135900500D01*
X108437138Y-135900500D01*
X108437145Y-135900500D01*
X108665654Y-135887433D01*
X108698300Y-135885567D01*
X109042051Y-135826078D01*
X109042050Y-135826078D01*
X109042057Y-135826077D01*
X109269900Y-135759175D01*
X109376784Y-135727792D01*
X109376786Y-135727790D01*
X109376793Y-135727789D01*
X109698144Y-135591986D01*
X109698154Y-135591980D01*
X109698157Y-135591979D01*
X110001914Y-135420439D01*
X110001915Y-135420438D01*
X110001919Y-135420436D01*
X110284159Y-135215377D01*
X110541184Y-134979481D01*
X110769644Y-134715824D01*
X110966560Y-134427844D01*
X111129365Y-134119294D01*
X111255937Y-133794196D01*
X111344626Y-133456790D01*
X111394275Y-133111473D01*
X111399252Y-132937253D01*
X138295763Y-132937253D01*
X138325617Y-133284838D01*
X138325619Y-133284851D01*
X138394899Y-133626762D01*
X138502704Y-133958551D01*
X138502706Y-133958555D01*
X138647628Y-134275892D01*
X138647630Y-134275894D01*
X138827781Y-134574641D01*
X138827785Y-134574647D01*
X139040814Y-134850908D01*
X139040826Y-134850923D01*
X139283957Y-135101098D01*
X139554025Y-135321933D01*
X139554029Y-135321935D01*
X139554032Y-135321938D01*
X139847518Y-135510550D01*
X140160592Y-135664478D01*
X140160598Y-135664480D01*
X140160600Y-135664481D01*
X140160605Y-135664483D01*
X140489159Y-135781710D01*
X140489163Y-135781711D01*
X140489171Y-135781714D01*
X140828968Y-135860731D01*
X140828972Y-135860732D01*
X141102061Y-135892066D01*
X141175565Y-135900500D01*
X141175566Y-135900500D01*
X141437138Y-135900500D01*
X141437145Y-135900500D01*
X141665654Y-135887433D01*
X141698300Y-135885567D01*
X142042051Y-135826078D01*
X142042050Y-135826078D01*
X142042057Y-135826077D01*
X142269900Y-135759175D01*
X142376784Y-135727792D01*
X142376786Y-135727790D01*
X142376793Y-135727789D01*
X142698144Y-135591986D01*
X142698154Y-135591980D01*
X142698157Y-135591979D01*
X143001914Y-135420439D01*
X143001915Y-135420438D01*
X143001919Y-135420436D01*
X143284159Y-135215377D01*
X143541184Y-134979481D01*
X143769644Y-134715824D01*
X143966560Y-134427844D01*
X144129365Y-134119294D01*
X144255937Y-133794196D01*
X144344626Y-133456790D01*
X144394275Y-133111473D01*
X144404237Y-132762747D01*
X144374383Y-132415159D01*
X144305101Y-132073240D01*
X144197295Y-131741447D01*
X144058513Y-131437557D01*
X144052371Y-131424107D01*
X144052369Y-131424105D01*
X143981320Y-131306284D01*
X143872215Y-131125353D01*
X143659180Y-130849084D01*
X143659176Y-130849080D01*
X143659173Y-130849076D01*
X143416042Y-130598901D01*
X143145974Y-130378066D01*
X143084259Y-130338404D01*
X142852482Y-130189450D01*
X142539408Y-130035522D01*
X142539404Y-130035520D01*
X142539399Y-130035518D01*
X142539394Y-130035516D01*
X142210840Y-129918289D01*
X142210830Y-129918286D01*
X141871029Y-129839268D01*
X141871032Y-129839268D01*
X141524435Y-129799500D01*
X141524434Y-129799500D01*
X141262855Y-129799500D01*
X141193845Y-129803446D01*
X141001699Y-129814432D01*
X140657948Y-129873921D01*
X140323215Y-129972207D01*
X140323201Y-129972213D01*
X140001856Y-130108014D01*
X140001842Y-130108020D01*
X139698085Y-130279560D01*
X139415843Y-130484621D01*
X139158818Y-130720516D01*
X138930357Y-130984174D01*
X138930355Y-130984177D01*
X138733440Y-131272155D01*
X138594695Y-131535107D01*
X138570635Y-131580706D01*
X138512879Y-131729052D01*
X138444060Y-131905811D01*
X138355374Y-132243208D01*
X138355373Y-132243211D01*
X138305725Y-132588519D01*
X138305725Y-132588526D01*
X138295763Y-132937253D01*
X111399252Y-132937253D01*
X111404237Y-132762747D01*
X111374383Y-132415159D01*
X111305101Y-132073240D01*
X111197295Y-131741447D01*
X111058513Y-131437557D01*
X111052371Y-131424107D01*
X111052369Y-131424105D01*
X110981320Y-131306284D01*
X110872215Y-131125353D01*
X110659180Y-130849084D01*
X110659176Y-130849080D01*
X110659173Y-130849076D01*
X110416042Y-130598901D01*
X110145974Y-130378066D01*
X110084259Y-130338404D01*
X109852482Y-130189450D01*
X109539408Y-130035522D01*
X109539404Y-130035520D01*
X109539399Y-130035518D01*
X109539394Y-130035516D01*
X109210840Y-129918289D01*
X109210830Y-129918286D01*
X108871029Y-129839268D01*
X108871032Y-129839268D01*
X108524435Y-129799500D01*
X108524434Y-129799500D01*
X108262855Y-129799500D01*
X108193845Y-129803446D01*
X108001699Y-129814432D01*
X107657948Y-129873921D01*
X107323215Y-129972207D01*
X107323201Y-129972213D01*
X107001856Y-130108014D01*
X107001842Y-130108020D01*
X106698085Y-130279560D01*
X106415843Y-130484621D01*
X106158818Y-130720516D01*
X105930357Y-130984174D01*
X105930355Y-130984177D01*
X105733440Y-131272155D01*
X105594695Y-131535107D01*
X105570635Y-131580706D01*
X105512879Y-131729052D01*
X105444060Y-131905811D01*
X105355374Y-132243208D01*
X105355373Y-132243211D01*
X105305725Y-132588519D01*
X105305725Y-132588526D01*
X105295763Y-132937253D01*
X102794174Y-132937253D01*
X102794174Y-132936208D01*
X102791320Y-132905775D01*
X102746467Y-132777592D01*
X102665824Y-132668324D01*
X102556556Y-132587681D01*
X102556554Y-132587680D01*
X102428373Y-132542828D01*
X102428363Y-132542826D01*
X102400407Y-132540205D01*
X102397940Y-132539974D01*
X101789408Y-132539974D01*
X101787125Y-132540188D01*
X101758984Y-132542826D01*
X101758974Y-132542828D01*
X101630793Y-132587680D01*
X101630790Y-132587682D01*
X101521528Y-132668320D01*
X101521520Y-132668328D01*
X101440882Y-132777590D01*
X101440880Y-132777593D01*
X101396028Y-132905774D01*
X101396026Y-132905784D01*
X101393174Y-132936208D01*
X101393174Y-134344739D01*
X94154174Y-134344739D01*
X94154174Y-132936208D01*
X94151320Y-132905775D01*
X94106467Y-132777592D01*
X94025824Y-132668324D01*
X93916556Y-132587681D01*
X93916554Y-132587680D01*
X93788373Y-132542828D01*
X93788363Y-132542826D01*
X93760407Y-132540205D01*
X93757940Y-132539974D01*
X93149408Y-132539974D01*
X93147125Y-132540188D01*
X93118984Y-132542826D01*
X93118974Y-132542828D01*
X92990793Y-132587680D01*
X92990790Y-132587682D01*
X92881528Y-132668320D01*
X92881520Y-132668328D01*
X92800882Y-132777590D01*
X92800880Y-132777593D01*
X92756028Y-132905774D01*
X92756026Y-132905784D01*
X92753174Y-132936208D01*
X92753174Y-134344739D01*
X87906733Y-134344739D01*
X87957059Y-134307065D01*
X87957065Y-134307059D01*
X88043225Y-134191965D01*
X88043226Y-134191963D01*
X88093472Y-134057247D01*
X88099873Y-133997711D01*
X88099874Y-133997695D01*
X88099874Y-133349875D01*
X88099873Y-133349874D01*
X87316466Y-133349874D01*
X87259258Y-133329052D01*
X87228818Y-133276329D01*
X87231071Y-133235800D01*
X87249874Y-133171763D01*
X87249874Y-133027985D01*
X87231071Y-132963947D01*
X87234932Y-132903191D01*
X87276944Y-132859130D01*
X87316466Y-132849874D01*
X88099873Y-132849874D01*
X88099874Y-132849872D01*
X88099874Y-132202052D01*
X88099873Y-132202036D01*
X88093472Y-132142500D01*
X88043226Y-132007784D01*
X88043225Y-132007782D01*
X87957065Y-131892688D01*
X87957059Y-131892682D01*
X87841965Y-131806522D01*
X87841963Y-131806521D01*
X87707247Y-131756275D01*
X87647711Y-131749874D01*
X87045821Y-131749874D01*
X86988613Y-131729052D01*
X86958173Y-131676329D01*
X86968745Y-131616374D01*
X87015381Y-131577241D01*
X87019986Y-131575706D01*
X87153828Y-131535106D01*
X87336324Y-131437559D01*
X87496284Y-131306284D01*
X87627559Y-131146324D01*
X87725106Y-130963828D01*
X87770290Y-130814874D01*
X96825700Y-130814874D01*
X96844300Y-130944240D01*
X96898590Y-131063119D01*
X96898591Y-131063120D01*
X96898592Y-131063122D01*
X96984179Y-131161895D01*
X97094126Y-131232553D01*
X97094128Y-131232554D01*
X97130764Y-131243311D01*
X97219527Y-131269374D01*
X97219528Y-131269374D01*
X97350220Y-131269374D01*
X97350221Y-131269374D01*
X97475622Y-131232553D01*
X97585569Y-131161895D01*
X97671156Y-131063122D01*
X97725448Y-130944238D01*
X97744048Y-130814874D01*
X97725448Y-130685510D01*
X97718485Y-130670264D01*
X97671157Y-130566628D01*
X97671156Y-130566627D01*
X97671156Y-130566626D01*
X97585569Y-130467853D01*
X97475622Y-130397195D01*
X97475619Y-130397193D01*
X97364627Y-130364604D01*
X97350221Y-130360374D01*
X97219527Y-130360374D01*
X97094128Y-130397193D01*
X96984180Y-130467852D01*
X96984179Y-130467852D01*
X96984179Y-130467853D01*
X96969648Y-130484623D01*
X96898590Y-130566628D01*
X96844300Y-130685507D01*
X96825700Y-130814873D01*
X96825700Y-130814874D01*
X87770290Y-130814874D01*
X87785174Y-130765808D01*
X87793083Y-130685507D01*
X87805457Y-130559877D01*
X87805457Y-130559870D01*
X87785175Y-130353947D01*
X87785174Y-130353944D01*
X87785174Y-130353940D01*
X87725106Y-130155920D01*
X87670011Y-130052846D01*
X92753174Y-130052846D01*
X92768534Y-130179346D01*
X92806540Y-130279560D01*
X92828857Y-130338406D01*
X92925487Y-130478398D01*
X92925489Y-130478401D01*
X92925490Y-130478402D01*
X92925491Y-130478403D01*
X93052822Y-130591208D01*
X93203449Y-130670264D01*
X93368618Y-130710974D01*
X93368619Y-130710974D01*
X93538729Y-130710974D01*
X93538730Y-130710974D01*
X93703899Y-130670264D01*
X93854526Y-130591208D01*
X93981857Y-130478403D01*
X94078492Y-130338404D01*
X94138814Y-130179346D01*
X94154174Y-130052846D01*
X94154174Y-130028841D01*
X94408174Y-130028841D01*
X94416180Y-130056107D01*
X94446694Y-130160032D01*
X94520619Y-130275063D01*
X94623954Y-130364603D01*
X94623957Y-130364605D01*
X94653433Y-130378066D01*
X94748332Y-130421405D01*
X94849663Y-130435974D01*
X94849670Y-130435974D01*
X94917678Y-130435974D01*
X94917685Y-130435974D01*
X95019016Y-130421405D01*
X95143392Y-130364604D01*
X95246729Y-130275063D01*
X95320652Y-130160035D01*
X95359174Y-130028841D01*
X100188174Y-130028841D01*
X100196180Y-130056107D01*
X100226694Y-130160032D01*
X100300619Y-130275063D01*
X100403954Y-130364603D01*
X100403957Y-130364605D01*
X100433433Y-130378066D01*
X100528332Y-130421405D01*
X100629663Y-130435974D01*
X100629670Y-130435974D01*
X100697678Y-130435974D01*
X100697685Y-130435974D01*
X100799016Y-130421405D01*
X100923392Y-130364604D01*
X101026729Y-130275063D01*
X101100652Y-130160035D01*
X101132126Y-130052846D01*
X101393174Y-130052846D01*
X101408534Y-130179346D01*
X101446540Y-130279560D01*
X101468857Y-130338406D01*
X101565487Y-130478398D01*
X101565489Y-130478401D01*
X101565490Y-130478402D01*
X101565491Y-130478403D01*
X101692822Y-130591208D01*
X101843449Y-130670264D01*
X102008618Y-130710974D01*
X102008619Y-130710974D01*
X102178729Y-130710974D01*
X102178730Y-130710974D01*
X102343899Y-130670264D01*
X102494526Y-130591208D01*
X102621857Y-130478403D01*
X102718492Y-130338404D01*
X102778814Y-130179346D01*
X102794174Y-130052846D01*
X102794174Y-128868102D01*
X102778814Y-128741602D01*
X102718492Y-128582544D01*
X102621857Y-128442545D01*
X102494526Y-128329740D01*
X102494521Y-128329737D01*
X102494519Y-128329736D01*
X102343898Y-128250683D01*
X102219438Y-128220007D01*
X102178730Y-128209974D01*
X102008618Y-128209974D01*
X101843449Y-128250683D01*
X101692828Y-128329736D01*
X101692825Y-128329738D01*
X101692823Y-128329739D01*
X101692822Y-128329740D01*
X101634237Y-128381641D01*
X101565489Y-128442546D01*
X101565487Y-128442549D01*
X101468857Y-128582541D01*
X101459837Y-128606325D01*
X101408534Y-128741602D01*
X101393174Y-128868102D01*
X101393174Y-130052846D01*
X101132126Y-130052846D01*
X101139174Y-130028841D01*
X101139174Y-129892107D01*
X101100652Y-129760913D01*
X101026729Y-129645885D01*
X101026728Y-129645884D01*
X100923393Y-129556344D01*
X100923390Y-129556342D01*
X100835819Y-129516350D01*
X100799016Y-129499543D01*
X100765239Y-129494686D01*
X100697687Y-129484974D01*
X100697685Y-129484974D01*
X100629663Y-129484974D01*
X100629660Y-129484974D01*
X100528332Y-129499543D01*
X100403957Y-129556342D01*
X100403954Y-129556344D01*
X100300619Y-129645884D01*
X100226694Y-129760915D01*
X100193514Y-129873921D01*
X100188174Y-129892107D01*
X100188174Y-130028841D01*
X95359174Y-130028841D01*
X95359174Y-129892107D01*
X95320652Y-129760913D01*
X95246729Y-129645885D01*
X95246728Y-129645884D01*
X95143393Y-129556344D01*
X95143390Y-129556342D01*
X95055819Y-129516350D01*
X95019016Y-129499543D01*
X94985239Y-129494686D01*
X94917687Y-129484974D01*
X94917685Y-129484974D01*
X94849663Y-129484974D01*
X94849660Y-129484974D01*
X94748332Y-129499543D01*
X94623957Y-129556342D01*
X94623954Y-129556344D01*
X94520619Y-129645884D01*
X94446694Y-129760915D01*
X94413514Y-129873921D01*
X94408174Y-129892107D01*
X94408174Y-130028841D01*
X94154174Y-130028841D01*
X94154174Y-128868102D01*
X94138814Y-128741602D01*
X94078492Y-128582544D01*
X93981857Y-128442545D01*
X93854526Y-128329740D01*
X93854521Y-128329737D01*
X93854519Y-128329736D01*
X93703898Y-128250683D01*
X93579438Y-128220007D01*
X93538730Y-128209974D01*
X93368618Y-128209974D01*
X93203449Y-128250683D01*
X93052828Y-128329736D01*
X93052825Y-128329738D01*
X93052823Y-128329739D01*
X93052822Y-128329740D01*
X92994237Y-128381641D01*
X92925489Y-128442546D01*
X92925487Y-128442549D01*
X92828857Y-128582541D01*
X92819837Y-128606325D01*
X92768534Y-128741602D01*
X92753174Y-128868102D01*
X92753174Y-130052846D01*
X87670011Y-130052846D01*
X87627559Y-129973424D01*
X87496284Y-129813464D01*
X87336324Y-129682189D01*
X87153828Y-129584642D01*
X87153827Y-129584641D01*
X87153824Y-129584640D01*
X86955808Y-129524574D01*
X86955800Y-129524572D01*
X86749878Y-129504291D01*
X86749870Y-129504291D01*
X86543947Y-129524572D01*
X86543939Y-129524574D01*
X86345923Y-129584640D01*
X86163422Y-129682190D01*
X86003468Y-129813460D01*
X86003460Y-129813468D01*
X85872190Y-129973422D01*
X85774640Y-130155923D01*
X85714574Y-130353939D01*
X85714572Y-130353947D01*
X85694291Y-130559870D01*
X85694291Y-130559877D01*
X85714572Y-130765800D01*
X85714574Y-130765808D01*
X85774640Y-130963824D01*
X85774641Y-130963827D01*
X85774642Y-130963828D01*
X85872189Y-131146324D01*
X86003464Y-131306284D01*
X86163424Y-131437559D01*
X86345920Y-131535106D01*
X86345922Y-131535106D01*
X86345923Y-131535107D01*
X86479762Y-131575706D01*
X86528463Y-131612238D01*
X86542287Y-131671527D01*
X86514767Y-131725832D01*
X86458779Y-131749742D01*
X86453927Y-131749874D01*
X85852036Y-131749874D01*
X85792500Y-131756275D01*
X85657784Y-131806521D01*
X85657782Y-131806522D01*
X85542688Y-131892682D01*
X85542682Y-131892688D01*
X85456522Y-132007782D01*
X85456521Y-132007784D01*
X85406275Y-132142500D01*
X85399874Y-132202036D01*
X85399874Y-132803927D01*
X85379052Y-132861135D01*
X85326329Y-132891575D01*
X85266374Y-132881003D01*
X85227241Y-132834367D01*
X85225706Y-132829762D01*
X85185107Y-132695923D01*
X85185106Y-132695922D01*
X85185106Y-132695920D01*
X85087559Y-132513424D01*
X84956284Y-132353464D01*
X84796324Y-132222189D01*
X84613828Y-132124642D01*
X84613827Y-132124641D01*
X84613824Y-132124640D01*
X84415808Y-132064574D01*
X84415800Y-132064572D01*
X84209878Y-132044291D01*
X84209870Y-132044291D01*
X84003947Y-132064572D01*
X84003939Y-132064574D01*
X83805923Y-132124640D01*
X83623422Y-132222190D01*
X83463468Y-132353460D01*
X83463460Y-132353468D01*
X83332190Y-132513422D01*
X83234640Y-132695923D01*
X83174574Y-132893939D01*
X83174572Y-132893947D01*
X83154291Y-133099870D01*
X83154291Y-133099877D01*
X81500500Y-133099877D01*
X81500500Y-130559877D01*
X83154291Y-130559877D01*
X83174572Y-130765800D01*
X83174574Y-130765808D01*
X83234640Y-130963824D01*
X83234641Y-130963827D01*
X83234642Y-130963828D01*
X83332189Y-131146324D01*
X83463464Y-131306284D01*
X83623424Y-131437559D01*
X83805920Y-131535106D01*
X84003940Y-131595174D01*
X84003944Y-131595174D01*
X84003947Y-131595175D01*
X84209870Y-131615457D01*
X84209874Y-131615457D01*
X84209878Y-131615457D01*
X84415800Y-131595175D01*
X84415801Y-131595174D01*
X84415808Y-131595174D01*
X84613828Y-131535106D01*
X84796324Y-131437559D01*
X84956284Y-131306284D01*
X85087559Y-131146324D01*
X85185106Y-130963828D01*
X85245174Y-130765808D01*
X85253083Y-130685507D01*
X85265457Y-130559877D01*
X85265457Y-130559870D01*
X85245175Y-130353947D01*
X85245174Y-130353944D01*
X85245174Y-130353940D01*
X85185106Y-130155920D01*
X85087559Y-129973424D01*
X84956284Y-129813464D01*
X84796324Y-129682189D01*
X84613828Y-129584642D01*
X84613827Y-129584641D01*
X84613824Y-129584640D01*
X84415808Y-129524574D01*
X84415800Y-129524572D01*
X84209878Y-129504291D01*
X84209870Y-129504291D01*
X84003947Y-129524572D01*
X84003939Y-129524574D01*
X83805923Y-129584640D01*
X83623422Y-129682190D01*
X83463468Y-129813460D01*
X83463460Y-129813468D01*
X83332190Y-129973422D01*
X83234640Y-130155923D01*
X83174574Y-130353939D01*
X83174572Y-130353947D01*
X83154291Y-130559870D01*
X83154291Y-130559877D01*
X81500500Y-130559877D01*
X81500500Y-128019877D01*
X83154291Y-128019877D01*
X83174572Y-128225800D01*
X83174574Y-128225808D01*
X83234640Y-128423824D01*
X83234641Y-128423827D01*
X83234642Y-128423828D01*
X83332189Y-128606324D01*
X83463464Y-128766284D01*
X83623424Y-128897559D01*
X83805920Y-128995106D01*
X84003940Y-129055174D01*
X84003944Y-129055174D01*
X84003947Y-129055175D01*
X84209870Y-129075457D01*
X84209874Y-129075457D01*
X84209878Y-129075457D01*
X84415800Y-129055175D01*
X84415801Y-129055174D01*
X84415808Y-129055174D01*
X84613828Y-128995106D01*
X84796324Y-128897559D01*
X84956284Y-128766284D01*
X85087559Y-128606324D01*
X85185106Y-128423828D01*
X85245174Y-128225808D01*
X85265457Y-128019877D01*
X85694291Y-128019877D01*
X85714572Y-128225800D01*
X85714574Y-128225808D01*
X85774640Y-128423824D01*
X85774641Y-128423827D01*
X85774642Y-128423828D01*
X85872189Y-128606324D01*
X86003464Y-128766284D01*
X86163424Y-128897559D01*
X86345920Y-128995106D01*
X86543940Y-129055174D01*
X86543944Y-129055174D01*
X86543947Y-129055175D01*
X86749870Y-129075457D01*
X86749874Y-129075457D01*
X86749878Y-129075457D01*
X86955800Y-129055175D01*
X86955801Y-129055174D01*
X86955808Y-129055174D01*
X87153828Y-128995106D01*
X87336324Y-128897559D01*
X87496284Y-128766284D01*
X87627559Y-128606324D01*
X87725106Y-128423828D01*
X87785174Y-128225808D01*
X87805457Y-128019874D01*
X87788388Y-127846574D01*
X87785175Y-127813947D01*
X87785174Y-127813944D01*
X87785174Y-127813940D01*
X87725106Y-127615920D01*
X87627559Y-127433424D01*
X87593624Y-127392074D01*
X97367300Y-127392074D01*
X97385900Y-127521440D01*
X97440190Y-127640319D01*
X97440191Y-127640320D01*
X97440192Y-127640322D01*
X97525779Y-127739095D01*
X97635726Y-127809753D01*
X97635728Y-127809754D01*
X97650009Y-127813947D01*
X97761127Y-127846574D01*
X97761128Y-127846574D01*
X97891820Y-127846574D01*
X97891821Y-127846574D01*
X98017222Y-127809753D01*
X98127169Y-127739095D01*
X98212756Y-127640322D01*
X98267048Y-127521438D01*
X98285648Y-127392074D01*
X98267048Y-127262710D01*
X98212756Y-127143826D01*
X98127169Y-127045053D01*
X98017222Y-126974395D01*
X98017219Y-126974393D01*
X97917882Y-126945226D01*
X97891821Y-126937574D01*
X97761127Y-126937574D01*
X97635728Y-126974393D01*
X97525780Y-127045052D01*
X97440190Y-127143828D01*
X97385900Y-127262707D01*
X97367300Y-127392073D01*
X97367300Y-127392074D01*
X87593624Y-127392074D01*
X87496284Y-127273464D01*
X87336324Y-127142189D01*
X87153828Y-127044642D01*
X87153827Y-127044641D01*
X87153824Y-127044640D01*
X86955808Y-126984574D01*
X86955800Y-126984572D01*
X86749878Y-126964291D01*
X86749870Y-126964291D01*
X86543947Y-126984572D01*
X86543939Y-126984574D01*
X86345923Y-127044640D01*
X86163422Y-127142190D01*
X86003468Y-127273460D01*
X86003460Y-127273468D01*
X85872190Y-127433422D01*
X85774640Y-127615923D01*
X85714574Y-127813939D01*
X85714572Y-127813947D01*
X85694291Y-128019870D01*
X85694291Y-128019877D01*
X85265457Y-128019877D01*
X85265457Y-128019874D01*
X85248388Y-127846574D01*
X85245175Y-127813947D01*
X85245174Y-127813944D01*
X85245174Y-127813940D01*
X85185106Y-127615920D01*
X85087559Y-127433424D01*
X84956284Y-127273464D01*
X84796324Y-127142189D01*
X84613828Y-127044642D01*
X84613827Y-127044641D01*
X84613824Y-127044640D01*
X84415808Y-126984574D01*
X84415800Y-126984572D01*
X84209878Y-126964291D01*
X84209870Y-126964291D01*
X84003947Y-126984572D01*
X84003939Y-126984574D01*
X83805923Y-127044640D01*
X83623422Y-127142190D01*
X83463468Y-127273460D01*
X83463460Y-127273468D01*
X83332190Y-127433422D01*
X83234640Y-127615923D01*
X83174574Y-127813939D01*
X83174572Y-127813947D01*
X83154291Y-128019870D01*
X83154291Y-128019877D01*
X81500500Y-128019877D01*
X81500500Y-125479877D01*
X83154291Y-125479877D01*
X83174572Y-125685800D01*
X83174574Y-125685808D01*
X83234640Y-125883824D01*
X83234641Y-125883827D01*
X83234642Y-125883828D01*
X83332189Y-126066324D01*
X83463464Y-126226284D01*
X83623424Y-126357559D01*
X83805920Y-126455106D01*
X84003940Y-126515174D01*
X84003944Y-126515174D01*
X84003947Y-126515175D01*
X84209870Y-126535457D01*
X84209874Y-126535457D01*
X84209878Y-126535457D01*
X84415800Y-126515175D01*
X84415801Y-126515174D01*
X84415808Y-126515174D01*
X84613828Y-126455106D01*
X84796324Y-126357559D01*
X84956284Y-126226284D01*
X85087559Y-126066324D01*
X85185106Y-125883828D01*
X85245174Y-125685808D01*
X85265457Y-125479877D01*
X85694291Y-125479877D01*
X85714572Y-125685800D01*
X85714574Y-125685808D01*
X85774640Y-125883824D01*
X85774641Y-125883827D01*
X85774642Y-125883828D01*
X85872189Y-126066324D01*
X86003464Y-126226284D01*
X86163424Y-126357559D01*
X86345920Y-126455106D01*
X86543940Y-126515174D01*
X86543944Y-126515174D01*
X86543947Y-126515175D01*
X86749870Y-126535457D01*
X86749874Y-126535457D01*
X86749878Y-126535457D01*
X86955800Y-126515175D01*
X86955801Y-126515174D01*
X86955808Y-126515174D01*
X87153828Y-126455106D01*
X87336324Y-126357559D01*
X87437564Y-126274474D01*
X92875691Y-126274474D01*
X92895471Y-126386653D01*
X92934993Y-126455106D01*
X92952424Y-126485297D01*
X93012202Y-126535457D01*
X93039683Y-126558517D01*
X93146720Y-126597474D01*
X93260627Y-126597474D01*
X93260628Y-126597474D01*
X93367666Y-126558516D01*
X93451265Y-126488366D01*
X93508473Y-126467544D01*
X93565679Y-126488364D01*
X93565683Y-126488367D01*
X93649280Y-126558515D01*
X93649281Y-126558515D01*
X93649282Y-126558516D01*
X93756320Y-126597474D01*
X93870227Y-126597474D01*
X93870228Y-126597474D01*
X93931477Y-126575181D01*
X93977264Y-126558517D01*
X93977264Y-126558516D01*
X93977266Y-126558516D01*
X94064524Y-126485297D01*
X94121477Y-126386651D01*
X94141257Y-126274474D01*
X94121477Y-126162297D01*
X94121476Y-126162295D01*
X94121476Y-126162294D01*
X94074773Y-126081403D01*
X94064524Y-126063651D01*
X93977266Y-125990432D01*
X93977265Y-125990431D01*
X93971301Y-125985427D01*
X93972485Y-125984015D01*
X93939305Y-125944464D01*
X93939311Y-125883585D01*
X93965733Y-125845855D01*
X94051250Y-125774097D01*
X94108203Y-125675451D01*
X94127983Y-125563274D01*
X94108203Y-125451097D01*
X94108202Y-125451095D01*
X94108202Y-125451094D01*
X94076361Y-125395946D01*
X94051250Y-125352451D01*
X93963992Y-125279232D01*
X93963990Y-125279230D01*
X93856955Y-125240274D01*
X93856954Y-125240274D01*
X93743046Y-125240274D01*
X93743045Y-125240274D01*
X93636010Y-125279230D01*
X93559043Y-125343813D01*
X93501835Y-125364634D01*
X93444627Y-125343811D01*
X93367667Y-125279232D01*
X93367664Y-125279231D01*
X93260629Y-125240274D01*
X93260628Y-125240274D01*
X93146720Y-125240274D01*
X93146719Y-125240274D01*
X93039684Y-125279230D01*
X92952425Y-125352449D01*
X92952423Y-125352452D01*
X92895471Y-125451094D01*
X92875691Y-125563274D01*
X92895471Y-125675453D01*
X92952423Y-125774095D01*
X92952425Y-125774098D01*
X93043710Y-125850696D01*
X93074150Y-125903420D01*
X93063578Y-125963374D01*
X93043710Y-125987052D01*
X92952425Y-126063649D01*
X92952423Y-126063652D01*
X92895471Y-126162294D01*
X92875691Y-126274474D01*
X87437564Y-126274474D01*
X87496284Y-126226284D01*
X87627559Y-126066324D01*
X87725106Y-125883828D01*
X87785174Y-125685808D01*
X87805457Y-125479874D01*
X87802622Y-125451094D01*
X87785175Y-125273947D01*
X87785174Y-125273944D01*
X87785174Y-125273940D01*
X87725106Y-125075920D01*
X87627559Y-124893424D01*
X87496284Y-124733464D01*
X87336324Y-124602189D01*
X87153828Y-124504642D01*
X87153827Y-124504641D01*
X87153824Y-124504640D01*
X86955808Y-124444574D01*
X86955800Y-124444572D01*
X86749878Y-124424291D01*
X86749870Y-124424291D01*
X86543947Y-124444572D01*
X86543939Y-124444574D01*
X86345923Y-124504640D01*
X86163422Y-124602190D01*
X86003468Y-124733460D01*
X86003460Y-124733468D01*
X85872190Y-124893422D01*
X85774640Y-125075923D01*
X85714574Y-125273939D01*
X85714572Y-125273947D01*
X85694291Y-125479870D01*
X85694291Y-125479877D01*
X85265457Y-125479877D01*
X85265457Y-125479874D01*
X85262622Y-125451094D01*
X85245175Y-125273947D01*
X85245174Y-125273944D01*
X85245174Y-125273940D01*
X85185106Y-125075920D01*
X85087559Y-124893424D01*
X84956284Y-124733464D01*
X84796324Y-124602189D01*
X84613828Y-124504642D01*
X84613827Y-124504641D01*
X84613824Y-124504640D01*
X84415808Y-124444574D01*
X84415800Y-124444572D01*
X84209878Y-124424291D01*
X84209870Y-124424291D01*
X84003947Y-124444572D01*
X84003939Y-124444574D01*
X83805923Y-124504640D01*
X83623422Y-124602190D01*
X83463468Y-124733460D01*
X83463460Y-124733468D01*
X83332190Y-124893422D01*
X83234640Y-125075923D01*
X83174574Y-125273939D01*
X83174572Y-125273947D01*
X83154291Y-125479870D01*
X83154291Y-125479877D01*
X81500500Y-125479877D01*
X81500500Y-122939877D01*
X83154291Y-122939877D01*
X83174572Y-123145800D01*
X83174574Y-123145808D01*
X83234640Y-123343824D01*
X83234641Y-123343827D01*
X83234642Y-123343828D01*
X83332189Y-123526324D01*
X83463464Y-123686284D01*
X83623424Y-123817559D01*
X83805920Y-123915106D01*
X84003940Y-123975174D01*
X84003944Y-123975174D01*
X84003947Y-123975175D01*
X84209870Y-123995457D01*
X84209874Y-123995457D01*
X84209878Y-123995457D01*
X84415800Y-123975175D01*
X84415801Y-123975174D01*
X84415808Y-123975174D01*
X84613828Y-123915106D01*
X84796324Y-123817559D01*
X84956284Y-123686284D01*
X85087559Y-123526324D01*
X85185106Y-123343828D01*
X85245174Y-123145808D01*
X85265457Y-122939877D01*
X85694291Y-122939877D01*
X85714572Y-123145800D01*
X85714574Y-123145808D01*
X85774640Y-123343824D01*
X85774641Y-123343827D01*
X85774642Y-123343828D01*
X85872189Y-123526324D01*
X86003464Y-123686284D01*
X86163424Y-123817559D01*
X86345920Y-123915106D01*
X86543940Y-123975174D01*
X86543944Y-123975174D01*
X86543947Y-123975175D01*
X86749870Y-123995457D01*
X86749874Y-123995457D01*
X86749878Y-123995457D01*
X86955800Y-123975175D01*
X86955801Y-123975174D01*
X86955808Y-123975174D01*
X87153828Y-123915106D01*
X87336324Y-123817559D01*
X87496284Y-123686284D01*
X87627559Y-123526324D01*
X87725106Y-123343828D01*
X87785174Y-123145808D01*
X87805457Y-122939874D01*
X87785174Y-122733940D01*
X87725106Y-122535920D01*
X87627559Y-122353424D01*
X87496284Y-122193464D01*
X87336324Y-122062189D01*
X87153828Y-121964642D01*
X87153827Y-121964641D01*
X87153824Y-121964640D01*
X86955808Y-121904574D01*
X86955800Y-121904572D01*
X86749878Y-121884291D01*
X86749870Y-121884291D01*
X86543947Y-121904572D01*
X86543939Y-121904574D01*
X86345923Y-121964640D01*
X86163422Y-122062190D01*
X86003468Y-122193460D01*
X86003460Y-122193468D01*
X85872190Y-122353422D01*
X85774640Y-122535923D01*
X85714574Y-122733939D01*
X85714572Y-122733947D01*
X85694291Y-122939870D01*
X85694291Y-122939877D01*
X85265457Y-122939877D01*
X85265457Y-122939874D01*
X85245174Y-122733940D01*
X85185106Y-122535920D01*
X85087559Y-122353424D01*
X84956284Y-122193464D01*
X84796324Y-122062189D01*
X84613828Y-121964642D01*
X84613827Y-121964641D01*
X84613824Y-121964640D01*
X84415808Y-121904574D01*
X84415800Y-121904572D01*
X84209878Y-121884291D01*
X84209870Y-121884291D01*
X84003947Y-121904572D01*
X84003939Y-121904574D01*
X83805923Y-121964640D01*
X83623422Y-122062190D01*
X83463468Y-122193460D01*
X83463460Y-122193468D01*
X83332190Y-122353422D01*
X83234640Y-122535923D01*
X83174574Y-122733939D01*
X83174572Y-122733947D01*
X83154291Y-122939870D01*
X83154291Y-122939877D01*
X81500500Y-122939877D01*
X81500500Y-120399877D01*
X83154291Y-120399877D01*
X83174572Y-120605800D01*
X83174574Y-120605808D01*
X83234640Y-120803824D01*
X83234641Y-120803827D01*
X83234642Y-120803828D01*
X83332189Y-120986324D01*
X83463464Y-121146284D01*
X83623424Y-121277559D01*
X83805920Y-121375106D01*
X84003940Y-121435174D01*
X84003944Y-121435174D01*
X84003947Y-121435175D01*
X84209870Y-121455457D01*
X84209874Y-121455457D01*
X84209878Y-121455457D01*
X84415800Y-121435175D01*
X84415801Y-121435174D01*
X84415808Y-121435174D01*
X84613828Y-121375106D01*
X84796324Y-121277559D01*
X84956284Y-121146284D01*
X85087559Y-120986324D01*
X85185106Y-120803828D01*
X85245174Y-120605808D01*
X85245175Y-120605800D01*
X85265457Y-120399877D01*
X85694291Y-120399877D01*
X85714572Y-120605800D01*
X85714574Y-120605808D01*
X85774640Y-120803824D01*
X85774641Y-120803827D01*
X85774642Y-120803828D01*
X85872189Y-120986324D01*
X86003464Y-121146284D01*
X86163424Y-121277559D01*
X86345920Y-121375106D01*
X86543940Y-121435174D01*
X86543944Y-121435174D01*
X86543947Y-121435175D01*
X86749870Y-121455457D01*
X86749874Y-121455457D01*
X86749878Y-121455457D01*
X86955800Y-121435175D01*
X86955801Y-121435174D01*
X86955808Y-121435174D01*
X87153828Y-121375106D01*
X87336324Y-121277559D01*
X87496284Y-121146284D01*
X87540116Y-121092874D01*
X92439700Y-121092874D01*
X92458300Y-121222240D01*
X92512590Y-121341119D01*
X92512591Y-121341120D01*
X92512592Y-121341122D01*
X92598179Y-121439895D01*
X92708126Y-121510553D01*
X92708128Y-121510554D01*
X92744764Y-121521311D01*
X92833527Y-121547374D01*
X92833528Y-121547374D01*
X92964220Y-121547374D01*
X92964221Y-121547374D01*
X93089622Y-121510553D01*
X93199569Y-121439895D01*
X93285156Y-121341122D01*
X93339448Y-121222238D01*
X93358048Y-121092874D01*
X93339448Y-120963510D01*
X93285156Y-120844626D01*
X93199569Y-120745853D01*
X93089622Y-120675195D01*
X93089619Y-120675193D01*
X92990282Y-120646026D01*
X92964221Y-120638374D01*
X92833527Y-120638374D01*
X92708128Y-120675193D01*
X92598180Y-120745852D01*
X92598179Y-120745852D01*
X92598179Y-120745853D01*
X92595839Y-120748554D01*
X92512590Y-120844628D01*
X92458300Y-120963507D01*
X92439700Y-121092873D01*
X92439700Y-121092874D01*
X87540116Y-121092874D01*
X87627559Y-120986324D01*
X87725106Y-120803828D01*
X87785174Y-120605808D01*
X87785175Y-120605800D01*
X87805457Y-120399877D01*
X87805457Y-120399870D01*
X87798661Y-120330874D01*
X107120900Y-120330874D01*
X107139500Y-120460240D01*
X107193790Y-120579119D01*
X107193791Y-120579120D01*
X107193792Y-120579122D01*
X107279379Y-120677895D01*
X107385125Y-120745853D01*
X107389328Y-120748554D01*
X107425964Y-120759311D01*
X107514727Y-120785374D01*
X107514728Y-120785374D01*
X107645420Y-120785374D01*
X107645421Y-120785374D01*
X107770822Y-120748553D01*
X107880769Y-120677895D01*
X107966356Y-120579122D01*
X108020648Y-120460238D01*
X108039248Y-120330874D01*
X108020648Y-120201510D01*
X108017190Y-120193939D01*
X107966357Y-120082628D01*
X107966356Y-120082627D01*
X107966356Y-120082626D01*
X107880769Y-119983853D01*
X107770822Y-119913195D01*
X107770819Y-119913193D01*
X107671482Y-119884026D01*
X107645421Y-119876374D01*
X107514727Y-119876374D01*
X107389328Y-119913193D01*
X107279380Y-119983852D01*
X107193790Y-120082628D01*
X107139500Y-120201507D01*
X107120900Y-120330873D01*
X107120900Y-120330874D01*
X87798661Y-120330874D01*
X87785175Y-120193947D01*
X87785174Y-120193944D01*
X87785174Y-120193940D01*
X87725106Y-119995920D01*
X87627559Y-119813424D01*
X87496284Y-119653464D01*
X87336324Y-119522189D01*
X87153828Y-119424642D01*
X87153827Y-119424641D01*
X87153824Y-119424640D01*
X86955808Y-119364574D01*
X86955800Y-119364572D01*
X86749878Y-119344291D01*
X86749870Y-119344291D01*
X86543947Y-119364572D01*
X86543939Y-119364574D01*
X86345923Y-119424640D01*
X86163422Y-119522190D01*
X86003468Y-119653460D01*
X86003460Y-119653468D01*
X85872190Y-119813422D01*
X85774640Y-119995923D01*
X85714574Y-120193939D01*
X85714572Y-120193947D01*
X85694291Y-120399870D01*
X85694291Y-120399877D01*
X85265457Y-120399877D01*
X85265457Y-120399870D01*
X85245175Y-120193947D01*
X85245174Y-120193944D01*
X85245174Y-120193940D01*
X85185106Y-119995920D01*
X85087559Y-119813424D01*
X84956284Y-119653464D01*
X84796324Y-119522189D01*
X84613828Y-119424642D01*
X84613827Y-119424641D01*
X84613824Y-119424640D01*
X84415808Y-119364574D01*
X84415800Y-119364572D01*
X84209878Y-119344291D01*
X84209870Y-119344291D01*
X84003947Y-119364572D01*
X84003939Y-119364574D01*
X83805923Y-119424640D01*
X83623422Y-119522190D01*
X83463468Y-119653460D01*
X83463460Y-119653468D01*
X83332190Y-119813422D01*
X83234640Y-119995923D01*
X83174574Y-120193939D01*
X83174572Y-120193947D01*
X83154291Y-120399870D01*
X83154291Y-120399877D01*
X81500500Y-120399877D01*
X81500500Y-117859877D01*
X83154291Y-117859877D01*
X83174572Y-118065800D01*
X83174574Y-118065808D01*
X83234640Y-118263824D01*
X83234641Y-118263827D01*
X83234642Y-118263828D01*
X83332189Y-118446324D01*
X83463464Y-118606284D01*
X83623424Y-118737559D01*
X83805920Y-118835106D01*
X84003940Y-118895174D01*
X84003944Y-118895174D01*
X84003947Y-118895175D01*
X84209870Y-118915457D01*
X84209874Y-118915457D01*
X84209878Y-118915457D01*
X84415800Y-118895175D01*
X84415801Y-118895174D01*
X84415808Y-118895174D01*
X84613828Y-118835106D01*
X84796324Y-118737559D01*
X84956284Y-118606284D01*
X85087559Y-118446324D01*
X85185106Y-118263828D01*
X85245174Y-118065808D01*
X85265457Y-117859877D01*
X85694291Y-117859877D01*
X85714572Y-118065800D01*
X85714574Y-118065808D01*
X85774640Y-118263824D01*
X85774641Y-118263827D01*
X85774642Y-118263828D01*
X85872189Y-118446324D01*
X86003464Y-118606284D01*
X86163424Y-118737559D01*
X86345920Y-118835106D01*
X86543940Y-118895174D01*
X86543944Y-118895174D01*
X86543947Y-118895175D01*
X86749870Y-118915457D01*
X86749874Y-118915457D01*
X86749878Y-118915457D01*
X86955800Y-118895175D01*
X86955801Y-118895174D01*
X86955808Y-118895174D01*
X87153828Y-118835106D01*
X87336324Y-118737559D01*
X87496284Y-118606284D01*
X87627559Y-118446324D01*
X87725106Y-118263828D01*
X87785174Y-118065808D01*
X87805457Y-117859874D01*
X87785174Y-117653940D01*
X87725106Y-117455920D01*
X87627559Y-117273424D01*
X87496284Y-117113464D01*
X87336324Y-116982189D01*
X87153828Y-116884642D01*
X87153827Y-116884641D01*
X87153824Y-116884640D01*
X86955808Y-116824574D01*
X86955800Y-116824572D01*
X86749878Y-116804291D01*
X86749870Y-116804291D01*
X86543947Y-116824572D01*
X86543939Y-116824574D01*
X86345923Y-116884640D01*
X86163422Y-116982190D01*
X86003468Y-117113460D01*
X86003460Y-117113468D01*
X85872190Y-117273422D01*
X85774640Y-117455923D01*
X85714574Y-117653939D01*
X85714572Y-117653947D01*
X85694291Y-117859870D01*
X85694291Y-117859877D01*
X85265457Y-117859877D01*
X85265457Y-117859874D01*
X85245174Y-117653940D01*
X85185106Y-117455920D01*
X85087559Y-117273424D01*
X84956284Y-117113464D01*
X84796324Y-116982189D01*
X84613828Y-116884642D01*
X84613827Y-116884641D01*
X84613824Y-116884640D01*
X84415808Y-116824574D01*
X84415800Y-116824572D01*
X84209878Y-116804291D01*
X84209870Y-116804291D01*
X84003947Y-116824572D01*
X84003939Y-116824574D01*
X83805923Y-116884640D01*
X83623422Y-116982190D01*
X83463468Y-117113460D01*
X83463460Y-117113468D01*
X83332190Y-117273422D01*
X83234640Y-117455923D01*
X83174574Y-117653939D01*
X83174572Y-117653947D01*
X83154291Y-117859870D01*
X83154291Y-117859877D01*
X81500500Y-117859877D01*
X81500500Y-116774874D01*
X92439700Y-116774874D01*
X92458300Y-116904240D01*
X92512590Y-117023119D01*
X92512591Y-117023120D01*
X92512592Y-117023122D01*
X92598179Y-117121895D01*
X92708126Y-117192553D01*
X92708128Y-117192554D01*
X92744764Y-117203311D01*
X92833527Y-117229374D01*
X92833528Y-117229374D01*
X92964220Y-117229374D01*
X92964221Y-117229374D01*
X93089622Y-117192553D01*
X93199569Y-117121895D01*
X93285156Y-117023122D01*
X93339448Y-116904238D01*
X93358048Y-116774874D01*
X93339448Y-116645510D01*
X93285156Y-116526626D01*
X93199569Y-116427853D01*
X93089622Y-116357195D01*
X93089619Y-116357193D01*
X92990282Y-116328026D01*
X92964221Y-116320374D01*
X92833527Y-116320374D01*
X92708128Y-116357193D01*
X92598180Y-116427852D01*
X92512590Y-116526628D01*
X92458300Y-116645507D01*
X92439700Y-116774873D01*
X92439700Y-116774874D01*
X81500500Y-116774874D01*
X81500500Y-115319877D01*
X83154291Y-115319877D01*
X83174572Y-115525800D01*
X83174574Y-115525808D01*
X83234640Y-115723824D01*
X83234641Y-115723827D01*
X83234642Y-115723828D01*
X83332189Y-115906324D01*
X83463464Y-116066284D01*
X83623424Y-116197559D01*
X83805920Y-116295106D01*
X84003940Y-116355174D01*
X84003944Y-116355174D01*
X84003947Y-116355175D01*
X84209870Y-116375457D01*
X84209874Y-116375457D01*
X84209878Y-116375457D01*
X84415800Y-116355175D01*
X84415801Y-116355174D01*
X84415808Y-116355174D01*
X84613828Y-116295106D01*
X84796324Y-116197559D01*
X84956284Y-116066284D01*
X85087559Y-115906324D01*
X85185106Y-115723828D01*
X85245174Y-115525808D01*
X85265457Y-115319874D01*
X85245174Y-115113940D01*
X85185106Y-114915920D01*
X85087559Y-114733424D01*
X84956284Y-114573464D01*
X84796324Y-114442189D01*
X84613828Y-114344642D01*
X84613827Y-114344641D01*
X84613824Y-114344640D01*
X84415808Y-114284574D01*
X84415800Y-114284572D01*
X84209878Y-114264291D01*
X84209870Y-114264291D01*
X84003947Y-114284572D01*
X84003939Y-114284574D01*
X83805923Y-114344640D01*
X83623422Y-114442190D01*
X83463468Y-114573460D01*
X83463460Y-114573468D01*
X83332190Y-114733422D01*
X83234640Y-114915923D01*
X83174574Y-115113939D01*
X83174572Y-115113947D01*
X83154291Y-115319870D01*
X83154291Y-115319877D01*
X81500500Y-115319877D01*
X81500500Y-112779877D01*
X83154291Y-112779877D01*
X83174572Y-112985800D01*
X83174574Y-112985808D01*
X83234640Y-113183824D01*
X83234641Y-113183827D01*
X83234642Y-113183828D01*
X83332189Y-113366324D01*
X83463464Y-113526284D01*
X83623424Y-113657559D01*
X83805920Y-113755106D01*
X84003940Y-113815174D01*
X84003944Y-113815174D01*
X84003947Y-113815175D01*
X84209870Y-113835457D01*
X84209874Y-113835457D01*
X84209878Y-113835457D01*
X84415800Y-113815175D01*
X84415801Y-113815174D01*
X84415808Y-113815174D01*
X84613828Y-113755106D01*
X84796324Y-113657559D01*
X84956284Y-113526284D01*
X85087559Y-113366324D01*
X85185106Y-113183828D01*
X85241536Y-112997800D01*
X85278067Y-112949102D01*
X85337356Y-112935277D01*
X85391660Y-112962797D01*
X85413442Y-113011571D01*
X85414629Y-113011362D01*
X85415305Y-113015197D01*
X85476441Y-113243360D01*
X85476444Y-113243369D01*
X85576270Y-113457447D01*
X85576272Y-113457449D01*
X85711762Y-113650949D01*
X85878798Y-113817985D01*
X86072298Y-113953475D01*
X86072300Y-113953477D01*
X86286378Y-114053303D01*
X86286387Y-114053306D01*
X86514550Y-114114442D01*
X86518386Y-114115119D01*
X86518161Y-114116390D01*
X86569030Y-114140099D01*
X86594770Y-114195269D01*
X86579025Y-114254078D01*
X86531945Y-114288212D01*
X86345923Y-114344640D01*
X86163422Y-114442190D01*
X86003468Y-114573460D01*
X86003460Y-114573468D01*
X85872190Y-114733422D01*
X85774640Y-114915923D01*
X85714574Y-115113939D01*
X85714572Y-115113947D01*
X85694291Y-115319870D01*
X85694291Y-115319877D01*
X85714572Y-115525800D01*
X85714574Y-115525808D01*
X85774640Y-115723824D01*
X85774641Y-115723827D01*
X85774642Y-115723828D01*
X85872189Y-115906324D01*
X86003464Y-116066284D01*
X86163424Y-116197559D01*
X86345920Y-116295106D01*
X86543940Y-116355174D01*
X86543944Y-116355174D01*
X86543947Y-116355175D01*
X86749870Y-116375457D01*
X86749874Y-116375457D01*
X86749878Y-116375457D01*
X86955800Y-116355175D01*
X86955801Y-116355174D01*
X86955808Y-116355174D01*
X87153828Y-116295106D01*
X87336324Y-116197559D01*
X87496284Y-116066284D01*
X87627559Y-115906324D01*
X87725106Y-115723828D01*
X87785174Y-115525808D01*
X87805457Y-115319874D01*
X87785174Y-115113940D01*
X87725106Y-114915920D01*
X87627559Y-114733424D01*
X87496284Y-114573464D01*
X87336324Y-114442189D01*
X87153828Y-114344642D01*
X87153827Y-114344641D01*
X87153824Y-114344640D01*
X86967802Y-114288212D01*
X86919101Y-114251680D01*
X86905277Y-114192391D01*
X86932797Y-114138086D01*
X86981572Y-114116313D01*
X86981362Y-114115119D01*
X86985197Y-114114442D01*
X87213360Y-114053306D01*
X87213369Y-114053303D01*
X87427447Y-113953477D01*
X87427449Y-113953475D01*
X87620949Y-113817985D01*
X87787985Y-113650949D01*
X87923475Y-113457449D01*
X87923477Y-113457447D01*
X88023303Y-113243369D01*
X88023306Y-113243360D01*
X88080510Y-113029874D01*
X87316466Y-113029874D01*
X87259258Y-113009052D01*
X87228818Y-112956329D01*
X87231071Y-112915800D01*
X87249874Y-112851763D01*
X87249874Y-112710874D01*
X92439700Y-112710874D01*
X92458300Y-112840240D01*
X92512590Y-112959119D01*
X92512591Y-112959120D01*
X92512592Y-112959122D01*
X92598179Y-113057895D01*
X92708126Y-113128553D01*
X92708128Y-113128554D01*
X92744764Y-113139311D01*
X92833527Y-113165374D01*
X92833528Y-113165374D01*
X92964220Y-113165374D01*
X92964221Y-113165374D01*
X93089622Y-113128553D01*
X93199569Y-113057895D01*
X93285156Y-112959122D01*
X93339448Y-112840238D01*
X93358048Y-112710874D01*
X93339448Y-112581510D01*
X93335990Y-112573939D01*
X93285157Y-112462628D01*
X93285156Y-112462627D01*
X93285156Y-112462626D01*
X93199569Y-112363853D01*
X93089622Y-112293195D01*
X93089619Y-112293193D01*
X92990282Y-112264026D01*
X92964221Y-112256374D01*
X92833527Y-112256374D01*
X92708128Y-112293193D01*
X92598180Y-112363852D01*
X92512590Y-112462628D01*
X92458300Y-112581507D01*
X92439700Y-112710873D01*
X92439700Y-112710874D01*
X87249874Y-112710874D01*
X87249874Y-112707985D01*
X87231071Y-112643947D01*
X87234932Y-112583191D01*
X87276944Y-112539130D01*
X87316466Y-112529874D01*
X88080510Y-112529874D01*
X88080510Y-112529873D01*
X88023306Y-112316387D01*
X88023303Y-112316378D01*
X87923477Y-112102301D01*
X87923475Y-112102299D01*
X87787985Y-111908798D01*
X87620949Y-111741762D01*
X87427449Y-111606272D01*
X87427447Y-111606270D01*
X87213369Y-111506444D01*
X87213360Y-111506441D01*
X86985197Y-111445305D01*
X86981362Y-111444629D01*
X86981585Y-111443364D01*
X86930699Y-111419630D01*
X86904975Y-111364453D01*
X86920737Y-111305649D01*
X86967800Y-111271536D01*
X87153828Y-111215106D01*
X87336324Y-111117559D01*
X87352970Y-111103898D01*
X106968500Y-111103898D01*
X106987100Y-111233264D01*
X107041390Y-111352143D01*
X107041391Y-111352144D01*
X107041392Y-111352146D01*
X107126979Y-111450919D01*
X107226236Y-111514707D01*
X107236928Y-111521578D01*
X107273564Y-111532335D01*
X107362327Y-111558398D01*
X107362328Y-111558398D01*
X107493020Y-111558398D01*
X107493021Y-111558398D01*
X107618422Y-111521577D01*
X107639242Y-111508196D01*
X107698625Y-111494784D01*
X107752737Y-111522680D01*
X107776258Y-111578832D01*
X107775453Y-111595734D01*
X107766587Y-111657397D01*
X107766587Y-111657398D01*
X107785187Y-111786764D01*
X107839477Y-111905643D01*
X107839478Y-111905644D01*
X107839479Y-111905646D01*
X107925066Y-112004419D01*
X107925069Y-112004421D01*
X107925071Y-112004423D01*
X107929878Y-112008589D01*
X107927674Y-112011132D01*
X107957040Y-112049721D01*
X107954142Y-112110531D01*
X107953010Y-112113116D01*
X107901500Y-112225906D01*
X107901500Y-112225907D01*
X107882900Y-112355273D01*
X107882900Y-112355274D01*
X107892135Y-112419505D01*
X107879667Y-112479094D01*
X107831812Y-112516727D01*
X107829115Y-112517566D01*
X107771487Y-112534486D01*
X107661539Y-112605145D01*
X107575949Y-112703921D01*
X107521659Y-112822800D01*
X107503059Y-112952166D01*
X107503059Y-112952167D01*
X107521659Y-113081533D01*
X107575949Y-113200412D01*
X107575950Y-113200413D01*
X107575951Y-113200415D01*
X107661538Y-113299188D01*
X107771485Y-113369846D01*
X107771487Y-113369847D01*
X107808123Y-113380604D01*
X107896886Y-113406667D01*
X107896887Y-113406667D01*
X108027579Y-113406667D01*
X108027580Y-113406667D01*
X108152981Y-113369846D01*
X108262928Y-113299188D01*
X108348515Y-113200415D01*
X108402807Y-113081531D01*
X108421407Y-112952167D01*
X108412171Y-112887933D01*
X108424639Y-112828347D01*
X108472493Y-112790713D01*
X108475171Y-112789880D01*
X108499039Y-112782872D01*
X108532817Y-112772955D01*
X108532819Y-112772954D01*
X108532819Y-112772953D01*
X108532822Y-112772953D01*
X108642769Y-112702295D01*
X108728356Y-112603522D01*
X108782648Y-112484638D01*
X108801248Y-112355274D01*
X108801197Y-112354922D01*
X108795657Y-112316387D01*
X108782648Y-112225910D01*
X108782646Y-112225906D01*
X108728357Y-112107028D01*
X108728356Y-112107027D01*
X108728356Y-112107026D01*
X108642769Y-112008253D01*
X108642765Y-112008250D01*
X108642763Y-112008248D01*
X108637957Y-112004083D01*
X108640153Y-112001547D01*
X108610779Y-111962904D01*
X108613711Y-111902095D01*
X108614808Y-111899589D01*
X108666335Y-111786762D01*
X108684935Y-111657398D01*
X108683019Y-111644074D01*
X111337300Y-111644074D01*
X111355900Y-111773440D01*
X111410190Y-111892319D01*
X111410191Y-111892320D01*
X111410192Y-111892322D01*
X111495779Y-111991095D01*
X111605726Y-112061753D01*
X111605728Y-112061754D01*
X111642364Y-112072511D01*
X111731127Y-112098574D01*
X111731128Y-112098574D01*
X111861820Y-112098574D01*
X111861821Y-112098574D01*
X111987222Y-112061753D01*
X112097169Y-111991095D01*
X112182756Y-111892322D01*
X112224130Y-111801723D01*
X112266835Y-111758336D01*
X112327438Y-111752548D01*
X112330117Y-111753289D01*
X112352240Y-111759785D01*
X112352242Y-111759785D01*
X112482933Y-111759785D01*
X112482934Y-111759785D01*
X112608335Y-111722964D01*
X112718282Y-111652306D01*
X112803869Y-111553533D01*
X112858161Y-111434649D01*
X112876761Y-111305285D01*
X112873723Y-111284158D01*
X112886190Y-111224572D01*
X112934044Y-111186937D01*
X112936720Y-111186104D01*
X113033718Y-111157624D01*
X113143665Y-111086966D01*
X113229252Y-110988193D01*
X113283544Y-110869309D01*
X113302144Y-110739945D01*
X113283544Y-110610581D01*
X113229252Y-110491697D01*
X113143665Y-110392924D01*
X113033718Y-110322266D01*
X113033715Y-110322264D01*
X112934378Y-110293097D01*
X112908317Y-110285445D01*
X112777623Y-110285445D01*
X112652224Y-110322264D01*
X112542276Y-110392923D01*
X112456686Y-110491699D01*
X112402396Y-110610578D01*
X112383796Y-110739944D01*
X112383796Y-110739946D01*
X112386833Y-110761070D01*
X112374364Y-110820659D01*
X112326510Y-110858292D01*
X112323813Y-110859131D01*
X112226841Y-110887604D01*
X112116893Y-110958263D01*
X112116892Y-110958263D01*
X112116892Y-110958264D01*
X112074098Y-111007650D01*
X112031304Y-111057038D01*
X111989930Y-111147634D01*
X111947224Y-111191022D01*
X111886620Y-111196808D01*
X111883901Y-111196057D01*
X111866752Y-111191022D01*
X111861821Y-111189574D01*
X111731127Y-111189574D01*
X111605728Y-111226393D01*
X111495780Y-111297052D01*
X111410190Y-111395828D01*
X111355900Y-111514707D01*
X111337300Y-111644073D01*
X111337300Y-111644074D01*
X108683019Y-111644074D01*
X108666335Y-111528034D01*
X108663386Y-111521577D01*
X108612044Y-111409152D01*
X108612043Y-111409151D01*
X108612043Y-111409150D01*
X108526456Y-111310377D01*
X108416509Y-111239719D01*
X108416506Y-111239717D01*
X108317169Y-111210550D01*
X108291108Y-111202898D01*
X108160414Y-111202898D01*
X108035014Y-111239718D01*
X108035009Y-111239720D01*
X108014189Y-111253100D01*
X107954805Y-111266511D01*
X107900694Y-111238612D01*
X107877176Y-111182459D01*
X107877980Y-111165573D01*
X107886848Y-111103898D01*
X107868248Y-110974534D01*
X107860817Y-110958263D01*
X107813957Y-110855652D01*
X107813956Y-110855651D01*
X107813956Y-110855650D01*
X107728369Y-110756877D01*
X107618422Y-110686219D01*
X107618419Y-110686217D01*
X107519082Y-110657050D01*
X107493021Y-110649398D01*
X107362327Y-110649398D01*
X107236928Y-110686217D01*
X107126980Y-110756876D01*
X107041390Y-110855652D01*
X106987100Y-110974531D01*
X106968500Y-111103897D01*
X106968500Y-111103898D01*
X87352970Y-111103898D01*
X87496284Y-110986284D01*
X87627559Y-110826324D01*
X87725106Y-110643828D01*
X87785174Y-110445808D01*
X87805457Y-110239874D01*
X87785174Y-110033940D01*
X87725106Y-109835920D01*
X87627559Y-109653424D01*
X87496284Y-109493464D01*
X87336324Y-109362189D01*
X87153828Y-109264642D01*
X87153827Y-109264641D01*
X87153824Y-109264640D01*
X86955808Y-109204574D01*
X86955800Y-109204572D01*
X86749878Y-109184291D01*
X86749870Y-109184291D01*
X86543947Y-109204572D01*
X86543939Y-109204574D01*
X86345923Y-109264640D01*
X86163422Y-109362190D01*
X86003468Y-109493460D01*
X86003460Y-109493468D01*
X85872190Y-109653422D01*
X85774640Y-109835923D01*
X85714574Y-110033939D01*
X85714572Y-110033947D01*
X85694291Y-110239870D01*
X85694291Y-110239877D01*
X85714572Y-110445800D01*
X85714574Y-110445808D01*
X85774640Y-110643824D01*
X85774641Y-110643827D01*
X85774642Y-110643828D01*
X85872189Y-110826324D01*
X86003464Y-110986284D01*
X86163424Y-111117559D01*
X86345920Y-111215106D01*
X86531945Y-111271535D01*
X86580645Y-111308067D01*
X86594470Y-111367356D01*
X86566950Y-111421661D01*
X86518176Y-111443442D01*
X86518386Y-111444629D01*
X86514550Y-111445305D01*
X86286387Y-111506441D01*
X86286378Y-111506444D01*
X86072301Y-111606270D01*
X86072299Y-111606272D01*
X85878798Y-111741762D01*
X85711762Y-111908798D01*
X85576272Y-112102299D01*
X85576270Y-112102301D01*
X85476444Y-112316378D01*
X85476441Y-112316387D01*
X85415305Y-112544550D01*
X85414629Y-112548386D01*
X85413363Y-112548162D01*
X85389629Y-112599049D01*
X85334450Y-112624772D01*
X85275647Y-112609009D01*
X85241535Y-112561945D01*
X85236258Y-112544550D01*
X85185106Y-112375920D01*
X85087559Y-112193424D01*
X84956284Y-112033464D01*
X84796324Y-111902189D01*
X84613828Y-111804642D01*
X84613827Y-111804641D01*
X84613824Y-111804640D01*
X84415808Y-111744574D01*
X84415800Y-111744572D01*
X84209878Y-111724291D01*
X84209870Y-111724291D01*
X84003947Y-111744572D01*
X84003939Y-111744574D01*
X83805923Y-111804640D01*
X83623422Y-111902190D01*
X83463468Y-112033460D01*
X83463460Y-112033468D01*
X83332190Y-112193422D01*
X83234640Y-112375923D01*
X83174574Y-112573939D01*
X83174572Y-112573947D01*
X83154291Y-112779870D01*
X83154291Y-112779877D01*
X81500500Y-112779877D01*
X81500500Y-110239877D01*
X83154291Y-110239877D01*
X83174572Y-110445800D01*
X83174574Y-110445808D01*
X83234640Y-110643824D01*
X83234641Y-110643827D01*
X83234642Y-110643828D01*
X83332189Y-110826324D01*
X83463464Y-110986284D01*
X83623424Y-111117559D01*
X83805920Y-111215106D01*
X84003940Y-111275174D01*
X84003944Y-111275174D01*
X84003947Y-111275175D01*
X84209870Y-111295457D01*
X84209874Y-111295457D01*
X84209878Y-111295457D01*
X84415800Y-111275175D01*
X84415801Y-111275174D01*
X84415808Y-111275174D01*
X84613828Y-111215106D01*
X84796324Y-111117559D01*
X84956284Y-110986284D01*
X85087559Y-110826324D01*
X85185106Y-110643828D01*
X85245174Y-110445808D01*
X85265457Y-110239874D01*
X85245174Y-110033940D01*
X85185106Y-109835920D01*
X85087559Y-109653424D01*
X84956284Y-109493464D01*
X84796324Y-109362189D01*
X84613828Y-109264642D01*
X84613827Y-109264641D01*
X84613824Y-109264640D01*
X84415808Y-109204574D01*
X84415800Y-109204572D01*
X84209878Y-109184291D01*
X84209870Y-109184291D01*
X84003947Y-109204572D01*
X84003939Y-109204574D01*
X83805923Y-109264640D01*
X83623422Y-109362190D01*
X83463468Y-109493460D01*
X83463460Y-109493468D01*
X83332190Y-109653422D01*
X83234640Y-109835923D01*
X83174574Y-110033939D01*
X83174572Y-110033947D01*
X83154291Y-110239870D01*
X83154291Y-110239877D01*
X81500500Y-110239877D01*
X81500500Y-107699877D01*
X83154291Y-107699877D01*
X83174572Y-107905800D01*
X83174574Y-107905808D01*
X83234640Y-108103824D01*
X83234641Y-108103827D01*
X83234642Y-108103828D01*
X83332189Y-108286324D01*
X83463464Y-108446284D01*
X83623424Y-108577559D01*
X83805920Y-108675106D01*
X84003940Y-108735174D01*
X84003944Y-108735174D01*
X84003947Y-108735175D01*
X84209870Y-108755457D01*
X84209874Y-108755457D01*
X84209878Y-108755457D01*
X84415800Y-108735175D01*
X84415801Y-108735174D01*
X84415808Y-108735174D01*
X84613828Y-108675106D01*
X84796324Y-108577559D01*
X84956284Y-108446284D01*
X85087559Y-108286324D01*
X85185106Y-108103828D01*
X85245174Y-107905808D01*
X85245175Y-107905800D01*
X85265457Y-107699877D01*
X85694291Y-107699877D01*
X85714572Y-107905800D01*
X85714574Y-107905808D01*
X85774640Y-108103824D01*
X85774641Y-108103827D01*
X85774642Y-108103828D01*
X85872189Y-108286324D01*
X86003464Y-108446284D01*
X86163424Y-108577559D01*
X86345920Y-108675106D01*
X86543940Y-108735174D01*
X86543944Y-108735174D01*
X86543947Y-108735175D01*
X86749870Y-108755457D01*
X86749874Y-108755457D01*
X86749878Y-108755457D01*
X86955800Y-108735175D01*
X86955801Y-108735174D01*
X86955808Y-108735174D01*
X87153828Y-108675106D01*
X87336324Y-108577559D01*
X87496284Y-108446284D01*
X87540116Y-108392874D01*
X92439700Y-108392874D01*
X92458300Y-108522240D01*
X92512590Y-108641119D01*
X92512591Y-108641120D01*
X92512592Y-108641122D01*
X92598179Y-108739895D01*
X92708126Y-108810553D01*
X92708128Y-108810554D01*
X92744764Y-108821311D01*
X92833527Y-108847374D01*
X92833528Y-108847374D01*
X92964220Y-108847374D01*
X92964221Y-108847374D01*
X93089622Y-108810553D01*
X93199569Y-108739895D01*
X93280172Y-108646874D01*
X107019300Y-108646874D01*
X107037900Y-108776240D01*
X107092190Y-108895119D01*
X107092191Y-108895120D01*
X107092192Y-108895122D01*
X107177779Y-108993895D01*
X107287726Y-109064553D01*
X107287728Y-109064554D01*
X107324364Y-109075311D01*
X107413127Y-109101374D01*
X107413128Y-109101374D01*
X107543820Y-109101374D01*
X107543821Y-109101374D01*
X107669222Y-109064553D01*
X107779169Y-108993895D01*
X107864756Y-108895122D01*
X107919048Y-108776238D01*
X107937648Y-108646874D01*
X107919048Y-108517510D01*
X107895847Y-108466707D01*
X107864757Y-108398628D01*
X107864756Y-108398627D01*
X107864756Y-108398626D01*
X107779169Y-108299853D01*
X107669222Y-108229195D01*
X107669219Y-108229193D01*
X107563836Y-108198251D01*
X107543821Y-108192374D01*
X107413127Y-108192374D01*
X107287728Y-108229193D01*
X107177780Y-108299852D01*
X107092190Y-108398628D01*
X107037900Y-108517507D01*
X107019300Y-108646873D01*
X107019300Y-108646874D01*
X93280172Y-108646874D01*
X93285156Y-108641122D01*
X93339448Y-108522238D01*
X93358048Y-108392874D01*
X93339448Y-108263510D01*
X93332845Y-108249052D01*
X93285157Y-108144628D01*
X93285156Y-108144627D01*
X93285156Y-108144626D01*
X93199569Y-108045853D01*
X93089622Y-107975195D01*
X93089619Y-107975193D01*
X92990282Y-107946026D01*
X92964221Y-107938374D01*
X92833527Y-107938374D01*
X92708128Y-107975193D01*
X92598180Y-108045852D01*
X92512590Y-108144628D01*
X92458300Y-108263507D01*
X92439700Y-108392873D01*
X92439700Y-108392874D01*
X87540116Y-108392874D01*
X87627559Y-108286324D01*
X87725106Y-108103828D01*
X87785174Y-107905808D01*
X87785175Y-107905800D01*
X87792240Y-107834074D01*
X111438900Y-107834074D01*
X111457500Y-107963440D01*
X111511790Y-108082319D01*
X111511791Y-108082320D01*
X111511792Y-108082322D01*
X111597379Y-108181095D01*
X111597381Y-108181096D01*
X111625087Y-108198902D01*
X111661955Y-108247348D01*
X111659058Y-108308158D01*
X111657926Y-108310745D01*
X111609900Y-108415906D01*
X111609900Y-108415907D01*
X111591300Y-108545273D01*
X111591300Y-108545274D01*
X111609900Y-108674640D01*
X111664190Y-108793519D01*
X111664191Y-108793520D01*
X111664192Y-108793522D01*
X111749779Y-108892295D01*
X111859726Y-108962953D01*
X111859728Y-108962954D01*
X111896364Y-108973711D01*
X111985127Y-108999774D01*
X111985128Y-108999774D01*
X112115820Y-108999774D01*
X112115821Y-108999774D01*
X112241222Y-108962953D01*
X112351169Y-108892295D01*
X112436756Y-108793522D01*
X112491048Y-108674638D01*
X112502344Y-108596074D01*
X112698800Y-108596074D01*
X112717400Y-108725440D01*
X112771690Y-108844319D01*
X112771691Y-108844320D01*
X112771692Y-108844322D01*
X112857279Y-108943095D01*
X112967226Y-109013753D01*
X112967228Y-109013754D01*
X113003864Y-109024511D01*
X113092627Y-109050574D01*
X113092628Y-109050574D01*
X113223320Y-109050574D01*
X113223321Y-109050574D01*
X113348722Y-109013753D01*
X113458669Y-108943095D01*
X113544256Y-108844322D01*
X113598548Y-108725438D01*
X113617148Y-108596074D01*
X113598548Y-108466710D01*
X113589221Y-108446287D01*
X113544257Y-108347828D01*
X113544256Y-108347827D01*
X113544256Y-108347826D01*
X113458669Y-108249053D01*
X113348722Y-108178395D01*
X113348719Y-108178393D01*
X113249382Y-108149226D01*
X113223321Y-108141574D01*
X113092627Y-108141574D01*
X112967228Y-108178393D01*
X112857280Y-108249052D01*
X112771690Y-108347828D01*
X112717400Y-108466707D01*
X112698800Y-108596073D01*
X112698800Y-108596074D01*
X112502344Y-108596074D01*
X112509648Y-108545274D01*
X112491048Y-108415910D01*
X112491046Y-108415906D01*
X112436757Y-108297028D01*
X112436756Y-108297027D01*
X112436756Y-108297026D01*
X112351169Y-108198253D01*
X112342021Y-108192374D01*
X112323460Y-108180445D01*
X112286591Y-108131999D01*
X112289489Y-108071188D01*
X112290595Y-108068659D01*
X112338648Y-107963438D01*
X112357248Y-107834074D01*
X112338648Y-107704710D01*
X112336439Y-107699874D01*
X112284357Y-107585828D01*
X112284356Y-107585827D01*
X112284356Y-107585826D01*
X112198769Y-107487053D01*
X112088822Y-107416395D01*
X112088819Y-107416393D01*
X111989482Y-107387226D01*
X111963421Y-107379574D01*
X111832727Y-107379574D01*
X111707328Y-107416393D01*
X111597380Y-107487052D01*
X111597379Y-107487052D01*
X111597379Y-107487053D01*
X111591405Y-107493947D01*
X111511790Y-107585828D01*
X111457500Y-107704707D01*
X111438900Y-107834073D01*
X111438900Y-107834074D01*
X87792240Y-107834074D01*
X87805457Y-107699877D01*
X87805457Y-107699870D01*
X87785175Y-107493947D01*
X87785174Y-107493944D01*
X87785174Y-107493940D01*
X87725106Y-107295920D01*
X87627559Y-107113424D01*
X87496284Y-106953464D01*
X87336324Y-106822189D01*
X87153828Y-106724642D01*
X87153827Y-106724641D01*
X87153824Y-106724640D01*
X86955808Y-106664574D01*
X86955800Y-106664572D01*
X86749878Y-106644291D01*
X86749870Y-106644291D01*
X86543947Y-106664572D01*
X86543939Y-106664574D01*
X86345923Y-106724640D01*
X86163422Y-106822190D01*
X86003468Y-106953460D01*
X86003460Y-106953468D01*
X85872190Y-107113422D01*
X85774640Y-107295923D01*
X85714574Y-107493939D01*
X85714572Y-107493947D01*
X85694291Y-107699870D01*
X85694291Y-107699877D01*
X85265457Y-107699877D01*
X85265457Y-107699870D01*
X85245175Y-107493947D01*
X85245174Y-107493944D01*
X85245174Y-107493940D01*
X85185106Y-107295920D01*
X85087559Y-107113424D01*
X84956284Y-106953464D01*
X84796324Y-106822189D01*
X84613828Y-106724642D01*
X84613827Y-106724641D01*
X84613824Y-106724640D01*
X84415808Y-106664574D01*
X84415800Y-106664572D01*
X84209878Y-106644291D01*
X84209870Y-106644291D01*
X84003947Y-106664572D01*
X84003939Y-106664574D01*
X83805923Y-106724640D01*
X83623422Y-106822190D01*
X83463468Y-106953460D01*
X83463460Y-106953468D01*
X83332190Y-107113422D01*
X83234640Y-107295923D01*
X83174574Y-107493939D01*
X83174572Y-107493947D01*
X83154291Y-107699870D01*
X83154291Y-107699877D01*
X81500500Y-107699877D01*
X81500500Y-105159877D01*
X83154291Y-105159877D01*
X83174572Y-105365800D01*
X83174574Y-105365808D01*
X83234640Y-105563824D01*
X83234641Y-105563827D01*
X83234642Y-105563828D01*
X83332189Y-105746324D01*
X83463464Y-105906284D01*
X83623424Y-106037559D01*
X83805920Y-106135106D01*
X84003940Y-106195174D01*
X84003944Y-106195174D01*
X84003947Y-106195175D01*
X84209870Y-106215457D01*
X84209874Y-106215457D01*
X84209878Y-106215457D01*
X84415800Y-106195175D01*
X84415801Y-106195174D01*
X84415808Y-106195174D01*
X84613828Y-106135106D01*
X84796324Y-106037559D01*
X84956284Y-105906284D01*
X85087559Y-105746324D01*
X85185106Y-105563828D01*
X85245174Y-105365808D01*
X85265457Y-105159877D01*
X85694291Y-105159877D01*
X85714572Y-105365800D01*
X85714574Y-105365808D01*
X85774640Y-105563824D01*
X85774641Y-105563827D01*
X85774642Y-105563828D01*
X85872189Y-105746324D01*
X86003464Y-105906284D01*
X86163424Y-106037559D01*
X86345920Y-106135106D01*
X86543940Y-106195174D01*
X86543944Y-106195174D01*
X86543947Y-106195175D01*
X86749870Y-106215457D01*
X86749874Y-106215457D01*
X86749878Y-106215457D01*
X86955800Y-106195175D01*
X86955801Y-106195174D01*
X86955808Y-106195174D01*
X87153828Y-106135106D01*
X87336324Y-106037559D01*
X87496284Y-105906284D01*
X87498426Y-105903674D01*
X110778500Y-105903674D01*
X110797100Y-106033040D01*
X110851390Y-106151919D01*
X110851391Y-106151920D01*
X110851392Y-106151922D01*
X110936979Y-106250695D01*
X111046926Y-106321353D01*
X111046928Y-106321354D01*
X111083564Y-106332111D01*
X111172327Y-106358174D01*
X111172328Y-106358174D01*
X111303020Y-106358174D01*
X111303021Y-106358174D01*
X111428422Y-106321353D01*
X111461070Y-106300372D01*
X111492201Y-106280365D01*
X111551584Y-106266952D01*
X111605696Y-106294848D01*
X111609970Y-106300372D01*
X111613391Y-106304320D01*
X111613392Y-106304322D01*
X111698979Y-106403095D01*
X111808926Y-106473753D01*
X111808928Y-106473754D01*
X111845564Y-106484511D01*
X111934327Y-106510574D01*
X111934328Y-106510574D01*
X112065020Y-106510574D01*
X112065021Y-106510574D01*
X112190422Y-106473753D01*
X112300369Y-106403095D01*
X112300370Y-106403093D01*
X112305724Y-106399653D01*
X112307293Y-106402094D01*
X112353820Y-106384295D01*
X112403631Y-106401509D01*
X112404824Y-106399653D01*
X112410177Y-106403093D01*
X112410179Y-106403095D01*
X112520126Y-106473753D01*
X112520128Y-106473754D01*
X112556764Y-106484511D01*
X112645527Y-106510574D01*
X112645528Y-106510574D01*
X112776220Y-106510574D01*
X112776221Y-106510574D01*
X112901622Y-106473753D01*
X113011569Y-106403095D01*
X113097156Y-106304322D01*
X113151448Y-106185438D01*
X113170048Y-106056074D01*
X113151448Y-105926710D01*
X113142121Y-105906287D01*
X113097157Y-105807828D01*
X113097156Y-105807827D01*
X113097156Y-105807826D01*
X113011569Y-105709053D01*
X112901622Y-105638395D01*
X112901619Y-105638393D01*
X112802282Y-105609226D01*
X112776221Y-105601574D01*
X112645527Y-105601574D01*
X112520128Y-105638393D01*
X112456574Y-105679236D01*
X112410179Y-105709053D01*
X112410177Y-105709054D01*
X112404824Y-105712495D01*
X112403262Y-105710064D01*
X112356661Y-105727853D01*
X112306926Y-105710624D01*
X112305724Y-105712495D01*
X112300370Y-105709054D01*
X112300369Y-105709053D01*
X112190422Y-105638395D01*
X112190419Y-105638393D01*
X112091082Y-105609226D01*
X112065021Y-105601574D01*
X111934327Y-105601574D01*
X111808927Y-105638394D01*
X111808925Y-105638395D01*
X111745145Y-105679383D01*
X111685761Y-105692795D01*
X111631649Y-105664897D01*
X111627382Y-105659380D01*
X111623956Y-105655426D01*
X111538369Y-105556653D01*
X111428422Y-105485995D01*
X111428419Y-105485993D01*
X111329082Y-105456826D01*
X111303021Y-105449174D01*
X111172327Y-105449174D01*
X111046928Y-105485993D01*
X110936980Y-105556652D01*
X110851390Y-105655428D01*
X110797100Y-105774307D01*
X110778500Y-105903673D01*
X110778500Y-105903674D01*
X87498426Y-105903674D01*
X87627559Y-105746324D01*
X87725106Y-105563828D01*
X87785174Y-105365808D01*
X87805457Y-105159874D01*
X87785174Y-104953940D01*
X87725106Y-104755920D01*
X87627559Y-104573424D01*
X87496284Y-104413464D01*
X87393210Y-104328874D01*
X89899700Y-104328874D01*
X89918300Y-104458240D01*
X89972590Y-104577119D01*
X89972591Y-104577120D01*
X89972592Y-104577122D01*
X90058179Y-104675895D01*
X90168126Y-104746553D01*
X90168128Y-104746554D01*
X90200027Y-104755920D01*
X90293527Y-104783374D01*
X90293528Y-104783374D01*
X90424220Y-104783374D01*
X90424221Y-104783374D01*
X90549622Y-104746553D01*
X90659569Y-104675895D01*
X90745156Y-104577122D01*
X90799448Y-104458238D01*
X90818048Y-104328874D01*
X90803440Y-104227274D01*
X107273300Y-104227274D01*
X107291900Y-104356640D01*
X107346190Y-104475519D01*
X107346191Y-104475520D01*
X107346192Y-104475522D01*
X107431779Y-104574295D01*
X107541726Y-104644953D01*
X107541728Y-104644954D01*
X107578364Y-104655711D01*
X107667127Y-104681774D01*
X107667128Y-104681774D01*
X107797820Y-104681774D01*
X107797821Y-104681774D01*
X107923222Y-104644953D01*
X108033169Y-104574295D01*
X108118756Y-104475522D01*
X108173048Y-104356638D01*
X108191648Y-104227274D01*
X108173048Y-104097910D01*
X108118756Y-103979026D01*
X108033169Y-103880253D01*
X107923222Y-103809595D01*
X107923219Y-103809593D01*
X107823882Y-103780426D01*
X107797821Y-103772774D01*
X107667127Y-103772774D01*
X107541728Y-103809593D01*
X107431780Y-103880252D01*
X107346190Y-103979028D01*
X107291900Y-104097907D01*
X107273300Y-104227273D01*
X107273300Y-104227274D01*
X90803440Y-104227274D01*
X90799448Y-104199510D01*
X90797643Y-104195558D01*
X90745157Y-104080628D01*
X90745156Y-104080627D01*
X90745156Y-104080626D01*
X90659569Y-103981853D01*
X90549622Y-103911195D01*
X90549619Y-103911193D01*
X90444243Y-103880253D01*
X90424221Y-103874374D01*
X90293527Y-103874374D01*
X90168128Y-103911193D01*
X90058180Y-103981852D01*
X89972590Y-104080628D01*
X89918300Y-104199507D01*
X89899700Y-104328873D01*
X89899700Y-104328874D01*
X87393210Y-104328874D01*
X87336324Y-104282189D01*
X87153828Y-104184642D01*
X87153827Y-104184641D01*
X87153824Y-104184640D01*
X86955808Y-104124574D01*
X86955800Y-104124572D01*
X86749878Y-104104291D01*
X86749870Y-104104291D01*
X86543947Y-104124572D01*
X86543939Y-104124574D01*
X86345923Y-104184640D01*
X86163422Y-104282190D01*
X86003468Y-104413460D01*
X86003460Y-104413468D01*
X85872190Y-104573422D01*
X85774640Y-104755923D01*
X85714574Y-104953939D01*
X85714572Y-104953947D01*
X85694291Y-105159870D01*
X85694291Y-105159877D01*
X85265457Y-105159877D01*
X85265457Y-105159874D01*
X85245174Y-104953940D01*
X85185106Y-104755920D01*
X85087559Y-104573424D01*
X84956284Y-104413464D01*
X84796324Y-104282189D01*
X84613828Y-104184642D01*
X84613827Y-104184641D01*
X84613824Y-104184640D01*
X84415808Y-104124574D01*
X84415800Y-104124572D01*
X84209878Y-104104291D01*
X84209870Y-104104291D01*
X84003947Y-104124572D01*
X84003939Y-104124574D01*
X83805923Y-104184640D01*
X83623422Y-104282190D01*
X83463468Y-104413460D01*
X83463460Y-104413468D01*
X83332190Y-104573422D01*
X83234640Y-104755923D01*
X83174574Y-104953939D01*
X83174572Y-104953947D01*
X83154291Y-105159870D01*
X83154291Y-105159877D01*
X81500500Y-105159877D01*
X81500500Y-103752429D01*
X155844374Y-103752429D01*
X155885083Y-103917598D01*
X155964136Y-104068219D01*
X155964140Y-104068226D01*
X156067275Y-104184642D01*
X156076946Y-104195558D01*
X156076949Y-104195560D01*
X156202452Y-104282189D01*
X156216944Y-104292192D01*
X156376002Y-104352514D01*
X156502502Y-104367874D01*
X156502504Y-104367874D01*
X156987244Y-104367874D01*
X156987246Y-104367874D01*
X157113746Y-104352514D01*
X157272804Y-104292192D01*
X157412803Y-104195557D01*
X157525608Y-104068226D01*
X157602846Y-103921063D01*
X158720613Y-103921063D01*
X158730628Y-104105776D01*
X158730629Y-104105782D01*
X158780120Y-104284034D01*
X158818613Y-104356638D01*
X158866774Y-104447478D01*
X158986537Y-104588474D01*
X159133810Y-104700428D01*
X159301707Y-104778106D01*
X159301708Y-104778106D01*
X159301710Y-104778107D01*
X159482369Y-104817873D01*
X159482377Y-104817874D01*
X160020979Y-104817874D01*
X160020987Y-104817874D01*
X160069732Y-104812572D01*
X160158781Y-104802889D01*
X160158784Y-104802888D01*
X160334095Y-104743818D01*
X160492610Y-104648444D01*
X160626915Y-104521223D01*
X160730732Y-104368104D01*
X160799205Y-104196249D01*
X160829134Y-104013691D01*
X160819119Y-103828967D01*
X160769628Y-103650715D01*
X160682974Y-103487270D01*
X160563211Y-103346274D01*
X160563210Y-103346273D01*
X160563209Y-103346272D01*
X160415937Y-103234319D01*
X160248041Y-103156642D01*
X160248037Y-103156640D01*
X160067378Y-103116874D01*
X160067371Y-103116874D01*
X159528761Y-103116874D01*
X159528756Y-103116874D01*
X159528745Y-103116875D01*
X159390966Y-103131858D01*
X159215655Y-103190929D01*
X159057138Y-103286303D01*
X158922833Y-103413524D01*
X158819017Y-103566641D01*
X158819014Y-103566647D01*
X158750543Y-103738496D01*
X158750543Y-103738498D01*
X158720613Y-103921063D01*
X157602846Y-103921063D01*
X157604664Y-103917599D01*
X157645374Y-103752430D01*
X157645374Y-103582318D01*
X157604664Y-103417149D01*
X157525608Y-103266522D01*
X157412803Y-103139191D01*
X157412802Y-103139190D01*
X157412801Y-103139189D01*
X157412798Y-103139187D01*
X157272806Y-103042557D01*
X157272804Y-103042556D01*
X157113746Y-102982234D01*
X156987246Y-102966874D01*
X156502502Y-102966874D01*
X156376002Y-102982234D01*
X156216941Y-103042557D01*
X156076949Y-103139187D01*
X156076946Y-103139189D01*
X156031109Y-103190929D01*
X155964140Y-103266522D01*
X155964139Y-103266523D01*
X155964138Y-103266525D01*
X155964136Y-103266528D01*
X155885083Y-103417149D01*
X155844374Y-103582318D01*
X155844374Y-103752429D01*
X81500500Y-103752429D01*
X81500500Y-102619877D01*
X83154291Y-102619877D01*
X83174572Y-102825800D01*
X83174574Y-102825808D01*
X83234640Y-103023824D01*
X83234641Y-103023827D01*
X83234642Y-103023828D01*
X83332189Y-103206324D01*
X83463464Y-103366284D01*
X83623424Y-103497559D01*
X83805920Y-103595106D01*
X84003940Y-103655174D01*
X84003944Y-103655174D01*
X84003947Y-103655175D01*
X84209870Y-103675457D01*
X84209874Y-103675457D01*
X84209878Y-103675457D01*
X84415800Y-103655175D01*
X84415801Y-103655174D01*
X84415808Y-103655174D01*
X84613828Y-103595106D01*
X84796324Y-103497559D01*
X84956284Y-103366284D01*
X85087559Y-103206324D01*
X85185106Y-103023828D01*
X85245174Y-102825808D01*
X85265457Y-102619877D01*
X85694291Y-102619877D01*
X85714572Y-102825800D01*
X85714574Y-102825808D01*
X85774640Y-103023824D01*
X85774641Y-103023827D01*
X85774642Y-103023828D01*
X85872189Y-103206324D01*
X86003464Y-103366284D01*
X86163424Y-103497559D01*
X86345920Y-103595106D01*
X86543940Y-103655174D01*
X86543944Y-103655174D01*
X86543947Y-103655175D01*
X86749870Y-103675457D01*
X86749874Y-103675457D01*
X86749878Y-103675457D01*
X86955800Y-103655175D01*
X86955801Y-103655174D01*
X86955808Y-103655174D01*
X87153828Y-103595106D01*
X87336324Y-103497559D01*
X87496284Y-103366284D01*
X87627559Y-103206324D01*
X87725106Y-103023828D01*
X87785174Y-102825808D01*
X87805457Y-102619874D01*
X87785174Y-102413940D01*
X87725106Y-102215920D01*
X87627559Y-102033424D01*
X87496284Y-101873464D01*
X87336324Y-101742189D01*
X87153828Y-101644642D01*
X87153827Y-101644641D01*
X87153824Y-101644640D01*
X87022730Y-101604874D01*
X154435700Y-101604874D01*
X154454300Y-101734240D01*
X154508590Y-101853119D01*
X154508591Y-101853120D01*
X154508592Y-101853122D01*
X154594179Y-101951895D01*
X154704126Y-102022553D01*
X154704128Y-102022554D01*
X154740764Y-102033311D01*
X154829527Y-102059374D01*
X154829528Y-102059374D01*
X154960220Y-102059374D01*
X154960221Y-102059374D01*
X155085622Y-102022553D01*
X155195569Y-101951895D01*
X155281156Y-101853122D01*
X155335448Y-101734238D01*
X155354048Y-101604874D01*
X155335448Y-101475510D01*
X155281156Y-101356626D01*
X155195569Y-101257853D01*
X155085622Y-101187195D01*
X155085619Y-101187193D01*
X154986282Y-101158026D01*
X154960221Y-101150374D01*
X154829527Y-101150374D01*
X154704128Y-101187193D01*
X154594180Y-101257852D01*
X154508590Y-101356628D01*
X154454300Y-101475507D01*
X154435700Y-101604873D01*
X154435700Y-101604874D01*
X87022730Y-101604874D01*
X86955808Y-101584574D01*
X86955800Y-101584572D01*
X86749878Y-101564291D01*
X86749870Y-101564291D01*
X86543947Y-101584572D01*
X86543939Y-101584574D01*
X86345923Y-101644640D01*
X86163422Y-101742190D01*
X86003468Y-101873460D01*
X86003460Y-101873468D01*
X85872190Y-102033422D01*
X85774640Y-102215923D01*
X85714574Y-102413939D01*
X85714572Y-102413947D01*
X85694291Y-102619870D01*
X85694291Y-102619877D01*
X85265457Y-102619877D01*
X85265457Y-102619874D01*
X85245174Y-102413940D01*
X85185106Y-102215920D01*
X85087559Y-102033424D01*
X84956284Y-101873464D01*
X84796324Y-101742189D01*
X84613828Y-101644642D01*
X84613827Y-101644641D01*
X84613824Y-101644640D01*
X84415808Y-101584574D01*
X84415800Y-101584572D01*
X84209878Y-101564291D01*
X84209870Y-101564291D01*
X84003947Y-101584572D01*
X84003939Y-101584574D01*
X83805923Y-101644640D01*
X83623422Y-101742190D01*
X83463468Y-101873460D01*
X83463460Y-101873468D01*
X83332190Y-102033422D01*
X83234640Y-102215923D01*
X83174574Y-102413939D01*
X83174572Y-102413947D01*
X83154291Y-102619870D01*
X83154291Y-102619877D01*
X81500500Y-102619877D01*
X81500500Y-100079877D01*
X83154291Y-100079877D01*
X83174572Y-100285800D01*
X83174574Y-100285808D01*
X83234640Y-100483824D01*
X83234641Y-100483827D01*
X83234642Y-100483828D01*
X83332189Y-100666324D01*
X83463464Y-100826284D01*
X83623424Y-100957559D01*
X83805920Y-101055106D01*
X84003940Y-101115174D01*
X84003944Y-101115174D01*
X84003947Y-101115175D01*
X84209870Y-101135457D01*
X84209874Y-101135457D01*
X84209878Y-101135457D01*
X84415800Y-101115175D01*
X84415801Y-101115174D01*
X84415808Y-101115174D01*
X84613828Y-101055106D01*
X84796324Y-100957559D01*
X84956284Y-100826284D01*
X85087559Y-100666324D01*
X85185106Y-100483828D01*
X85245174Y-100285808D01*
X85265457Y-100079877D01*
X85694291Y-100079877D01*
X85714572Y-100285800D01*
X85714574Y-100285808D01*
X85774640Y-100483824D01*
X85774641Y-100483827D01*
X85774642Y-100483828D01*
X85872189Y-100666324D01*
X86003464Y-100826284D01*
X86163424Y-100957559D01*
X86345920Y-101055106D01*
X86543940Y-101115174D01*
X86543944Y-101115174D01*
X86543947Y-101115175D01*
X86749870Y-101135457D01*
X86749874Y-101135457D01*
X86749878Y-101135457D01*
X86955800Y-101115175D01*
X86955801Y-101115174D01*
X86955808Y-101115174D01*
X87153828Y-101055106D01*
X87336324Y-100957559D01*
X87437077Y-100874874D01*
X101175700Y-100874874D01*
X101194300Y-101004240D01*
X101248590Y-101123119D01*
X101248591Y-101123120D01*
X101248592Y-101123122D01*
X101334179Y-101221895D01*
X101444126Y-101292553D01*
X101444128Y-101292554D01*
X101480764Y-101303311D01*
X101569527Y-101329374D01*
X101569528Y-101329374D01*
X101700220Y-101329374D01*
X101700221Y-101329374D01*
X101825622Y-101292553D01*
X101935569Y-101221895D01*
X102021156Y-101123122D01*
X102075448Y-101004238D01*
X102094048Y-100874874D01*
X102075448Y-100745510D01*
X102021156Y-100626626D01*
X101935569Y-100527853D01*
X101825622Y-100457195D01*
X101825619Y-100457193D01*
X101726282Y-100428026D01*
X101700221Y-100420374D01*
X101569527Y-100420374D01*
X101444128Y-100457193D01*
X101334180Y-100527852D01*
X101248590Y-100626628D01*
X101194300Y-100745507D01*
X101175700Y-100874873D01*
X101175700Y-100874874D01*
X87437077Y-100874874D01*
X87496284Y-100826284D01*
X87627559Y-100666324D01*
X87725106Y-100483828D01*
X87785174Y-100285808D01*
X87805457Y-100079874D01*
X87785174Y-99873940D01*
X87725106Y-99675920D01*
X87627559Y-99493424D01*
X87496284Y-99333464D01*
X87336324Y-99202189D01*
X87153828Y-99104642D01*
X87153827Y-99104641D01*
X87153824Y-99104640D01*
X86955808Y-99044574D01*
X86955800Y-99044572D01*
X86749878Y-99024291D01*
X86749870Y-99024291D01*
X86543947Y-99044572D01*
X86543939Y-99044574D01*
X86345923Y-99104640D01*
X86163422Y-99202190D01*
X86003468Y-99333460D01*
X86003460Y-99333468D01*
X85872190Y-99493422D01*
X85774640Y-99675923D01*
X85714574Y-99873939D01*
X85714572Y-99873947D01*
X85694291Y-100079870D01*
X85694291Y-100079877D01*
X85265457Y-100079877D01*
X85265457Y-100079874D01*
X85245174Y-99873940D01*
X85185106Y-99675920D01*
X85087559Y-99493424D01*
X84956284Y-99333464D01*
X84796324Y-99202189D01*
X84613828Y-99104642D01*
X84613827Y-99104641D01*
X84613824Y-99104640D01*
X84415808Y-99044574D01*
X84415800Y-99044572D01*
X84209878Y-99024291D01*
X84209870Y-99024291D01*
X84003947Y-99044572D01*
X84003939Y-99044574D01*
X83805923Y-99104640D01*
X83623422Y-99202190D01*
X83463468Y-99333460D01*
X83463460Y-99333468D01*
X83332190Y-99493422D01*
X83234640Y-99675923D01*
X83174574Y-99873939D01*
X83174572Y-99873947D01*
X83154291Y-100079870D01*
X83154291Y-100079877D01*
X81500500Y-100079877D01*
X81500500Y-98994874D01*
X92439700Y-98994874D01*
X92458300Y-99124240D01*
X92512590Y-99243119D01*
X92512591Y-99243120D01*
X92512592Y-99243122D01*
X92598179Y-99341895D01*
X92708126Y-99412553D01*
X92708128Y-99412554D01*
X92744764Y-99423311D01*
X92833527Y-99449374D01*
X92833528Y-99449374D01*
X92964220Y-99449374D01*
X92964221Y-99449374D01*
X93089622Y-99412553D01*
X93199569Y-99341895D01*
X93285156Y-99243122D01*
X93339448Y-99124238D01*
X93358048Y-98994874D01*
X93344756Y-98902429D01*
X155844374Y-98902429D01*
X155885083Y-99067598D01*
X155964136Y-99218219D01*
X155964140Y-99218226D01*
X156061484Y-99328105D01*
X156076946Y-99345558D01*
X156076949Y-99345560D01*
X156174005Y-99412553D01*
X156216944Y-99442192D01*
X156376002Y-99502514D01*
X156502502Y-99517874D01*
X156502504Y-99517874D01*
X156987244Y-99517874D01*
X156987246Y-99517874D01*
X157113746Y-99502514D01*
X157272804Y-99442192D01*
X157412803Y-99345557D01*
X157525608Y-99218226D01*
X157604664Y-99067599D01*
X157645374Y-98902430D01*
X157645374Y-98732318D01*
X157604664Y-98567149D01*
X157554234Y-98471063D01*
X158720613Y-98471063D01*
X158730628Y-98655776D01*
X158730629Y-98655782D01*
X158780120Y-98834034D01*
X158816382Y-98902430D01*
X158866774Y-98997478D01*
X158986537Y-99138474D01*
X159133810Y-99250428D01*
X159301707Y-99328106D01*
X159301708Y-99328106D01*
X159301710Y-99328107D01*
X159482369Y-99367873D01*
X159482377Y-99367874D01*
X160020979Y-99367874D01*
X160020987Y-99367874D01*
X160069732Y-99362572D01*
X160158781Y-99352889D01*
X160180541Y-99345557D01*
X160334095Y-99293818D01*
X160492610Y-99198444D01*
X160626915Y-99071223D01*
X160730732Y-98918104D01*
X160799205Y-98746249D01*
X160829134Y-98563691D01*
X160819119Y-98378967D01*
X160769628Y-98200715D01*
X160682974Y-98037270D01*
X160563211Y-97896274D01*
X160563210Y-97896273D01*
X160563209Y-97896272D01*
X160415937Y-97784319D01*
X160248041Y-97706642D01*
X160248037Y-97706640D01*
X160067378Y-97666874D01*
X160067371Y-97666874D01*
X159528761Y-97666874D01*
X159528756Y-97666874D01*
X159528745Y-97666875D01*
X159390966Y-97681858D01*
X159215655Y-97740929D01*
X159057138Y-97836303D01*
X158922833Y-97963524D01*
X158819017Y-98116641D01*
X158819014Y-98116647D01*
X158750543Y-98288496D01*
X158750543Y-98288498D01*
X158720613Y-98471063D01*
X157554234Y-98471063D01*
X157525608Y-98416522D01*
X157412803Y-98289191D01*
X157412802Y-98289190D01*
X157412801Y-98289189D01*
X157412798Y-98289187D01*
X157272806Y-98192557D01*
X157272804Y-98192556D01*
X157113746Y-98132234D01*
X156987246Y-98116874D01*
X156502502Y-98116874D01*
X156424667Y-98126325D01*
X156376002Y-98132234D01*
X156216941Y-98192557D01*
X156076949Y-98289187D01*
X156076946Y-98289189D01*
X156016041Y-98357937D01*
X155964140Y-98416522D01*
X155964139Y-98416523D01*
X155964138Y-98416525D01*
X155964136Y-98416528D01*
X155885083Y-98567149D01*
X155844374Y-98732318D01*
X155844374Y-98902429D01*
X93344756Y-98902429D01*
X93339448Y-98865510D01*
X93285156Y-98746626D01*
X93199569Y-98647853D01*
X93089622Y-98577195D01*
X93089619Y-98577193D01*
X92990282Y-98548026D01*
X92964221Y-98540374D01*
X92833527Y-98540374D01*
X92708128Y-98577193D01*
X92598180Y-98647852D01*
X92512590Y-98746628D01*
X92458300Y-98865507D01*
X92439700Y-98994873D01*
X92439700Y-98994874D01*
X81500500Y-98994874D01*
X81500500Y-97539877D01*
X83154291Y-97539877D01*
X83174572Y-97745800D01*
X83174574Y-97745808D01*
X83234640Y-97943824D01*
X83234641Y-97943827D01*
X83234642Y-97943828D01*
X83332189Y-98126324D01*
X83463464Y-98286284D01*
X83623424Y-98417559D01*
X83805920Y-98515106D01*
X84003940Y-98575174D01*
X84003944Y-98575174D01*
X84003947Y-98575175D01*
X84209870Y-98595457D01*
X84209874Y-98595457D01*
X84209878Y-98595457D01*
X84415800Y-98575175D01*
X84415801Y-98575174D01*
X84415808Y-98575174D01*
X84613828Y-98515106D01*
X84796324Y-98417559D01*
X84956284Y-98286284D01*
X85087559Y-98126324D01*
X85185106Y-97943828D01*
X85245174Y-97745808D01*
X85245175Y-97745800D01*
X85265457Y-97539877D01*
X85694291Y-97539877D01*
X85714572Y-97745800D01*
X85714574Y-97745808D01*
X85774640Y-97943824D01*
X85774641Y-97943827D01*
X85774642Y-97943828D01*
X85872189Y-98126324D01*
X86003464Y-98286284D01*
X86163424Y-98417559D01*
X86345920Y-98515106D01*
X86543940Y-98575174D01*
X86543944Y-98575174D01*
X86543947Y-98575175D01*
X86749870Y-98595457D01*
X86749874Y-98595457D01*
X86749878Y-98595457D01*
X86955800Y-98575175D01*
X86955801Y-98575174D01*
X86955808Y-98575174D01*
X87153828Y-98515106D01*
X87336324Y-98417559D01*
X87496284Y-98286284D01*
X87627559Y-98126324D01*
X87725106Y-97943828D01*
X87785174Y-97745808D01*
X87785175Y-97745800D01*
X87805457Y-97539877D01*
X87805457Y-97539870D01*
X87785175Y-97333947D01*
X87785174Y-97333944D01*
X87785174Y-97333940D01*
X87725106Y-97135920D01*
X87627559Y-96953424D01*
X87496284Y-96793464D01*
X87336324Y-96662189D01*
X87153828Y-96564642D01*
X87153827Y-96564641D01*
X87153824Y-96564640D01*
X86955808Y-96504574D01*
X86955800Y-96504572D01*
X86749878Y-96484291D01*
X86749870Y-96484291D01*
X86543947Y-96504572D01*
X86543939Y-96504574D01*
X86345923Y-96564640D01*
X86163422Y-96662190D01*
X86003468Y-96793460D01*
X86003460Y-96793468D01*
X85872190Y-96953422D01*
X85774640Y-97135923D01*
X85714574Y-97333939D01*
X85714572Y-97333947D01*
X85694291Y-97539870D01*
X85694291Y-97539877D01*
X85265457Y-97539877D01*
X85265457Y-97539870D01*
X85245175Y-97333947D01*
X85245174Y-97333944D01*
X85245174Y-97333940D01*
X85185106Y-97135920D01*
X85087559Y-96953424D01*
X84956284Y-96793464D01*
X84796324Y-96662189D01*
X84613828Y-96564642D01*
X84613827Y-96564641D01*
X84613824Y-96564640D01*
X84415808Y-96504574D01*
X84415800Y-96504572D01*
X84209878Y-96484291D01*
X84209870Y-96484291D01*
X84003947Y-96504572D01*
X84003939Y-96504574D01*
X83805923Y-96564640D01*
X83623422Y-96662190D01*
X83463468Y-96793460D01*
X83463460Y-96793468D01*
X83332190Y-96953422D01*
X83234640Y-97135923D01*
X83174574Y-97333939D01*
X83174572Y-97333947D01*
X83154291Y-97539870D01*
X83154291Y-97539877D01*
X81500500Y-97539877D01*
X81500500Y-94999877D01*
X83154291Y-94999877D01*
X83174572Y-95205800D01*
X83174574Y-95205808D01*
X83234640Y-95403824D01*
X83234641Y-95403827D01*
X83234642Y-95403828D01*
X83332189Y-95586324D01*
X83463464Y-95746284D01*
X83623424Y-95877559D01*
X83805920Y-95975106D01*
X84003940Y-96035174D01*
X84003944Y-96035174D01*
X84003947Y-96035175D01*
X84209870Y-96055457D01*
X84209874Y-96055457D01*
X84209878Y-96055457D01*
X84415800Y-96035175D01*
X84415801Y-96035174D01*
X84415808Y-96035174D01*
X84613828Y-95975106D01*
X84796324Y-95877559D01*
X84956284Y-95746284D01*
X85087559Y-95586324D01*
X85185106Y-95403828D01*
X85245174Y-95205808D01*
X85265457Y-94999877D01*
X85694291Y-94999877D01*
X85714572Y-95205800D01*
X85714574Y-95205808D01*
X85774640Y-95403824D01*
X85774641Y-95403827D01*
X85774642Y-95403828D01*
X85872189Y-95586324D01*
X86003464Y-95746284D01*
X86163424Y-95877559D01*
X86345920Y-95975106D01*
X86543940Y-96035174D01*
X86543944Y-96035174D01*
X86543947Y-96035175D01*
X86749870Y-96055457D01*
X86749874Y-96055457D01*
X86749878Y-96055457D01*
X86955800Y-96035175D01*
X86955801Y-96035174D01*
X86955808Y-96035174D01*
X87153828Y-95975106D01*
X87336324Y-95877559D01*
X87496284Y-95746284D01*
X87627559Y-95586324D01*
X87725106Y-95403828D01*
X87785174Y-95205808D01*
X87805457Y-94999874D01*
X87785174Y-94793940D01*
X87725106Y-94595920D01*
X87627559Y-94413424D01*
X87496284Y-94253464D01*
X87393210Y-94168874D01*
X88121700Y-94168874D01*
X88140300Y-94298240D01*
X88194590Y-94417119D01*
X88194591Y-94417120D01*
X88194592Y-94417122D01*
X88280179Y-94515895D01*
X88390126Y-94586553D01*
X88390128Y-94586554D01*
X88422027Y-94595920D01*
X88515527Y-94623374D01*
X88515528Y-94623374D01*
X88646220Y-94623374D01*
X88646221Y-94623374D01*
X88771622Y-94586553D01*
X88881569Y-94515895D01*
X88967156Y-94417122D01*
X89021448Y-94298238D01*
X89040048Y-94168874D01*
X89021448Y-94039510D01*
X88967156Y-93920626D01*
X88881569Y-93821853D01*
X88771622Y-93751195D01*
X88771619Y-93751193D01*
X88672282Y-93722026D01*
X88646221Y-93714374D01*
X88515527Y-93714374D01*
X88390128Y-93751193D01*
X88280180Y-93821852D01*
X88194590Y-93920628D01*
X88140300Y-94039507D01*
X88121700Y-94168873D01*
X88121700Y-94168874D01*
X87393210Y-94168874D01*
X87336324Y-94122189D01*
X87153828Y-94024642D01*
X87153827Y-94024641D01*
X87153824Y-94024640D01*
X86955808Y-93964574D01*
X86955800Y-93964572D01*
X86749878Y-93944291D01*
X86749870Y-93944291D01*
X86543947Y-93964572D01*
X86543939Y-93964574D01*
X86345923Y-94024640D01*
X86163422Y-94122190D01*
X86003468Y-94253460D01*
X86003460Y-94253468D01*
X85872190Y-94413422D01*
X85774640Y-94595923D01*
X85714574Y-94793939D01*
X85714572Y-94793947D01*
X85694291Y-94999870D01*
X85694291Y-94999877D01*
X85265457Y-94999877D01*
X85265457Y-94999874D01*
X85245174Y-94793940D01*
X85185106Y-94595920D01*
X85087559Y-94413424D01*
X84956284Y-94253464D01*
X84796324Y-94122189D01*
X84613828Y-94024642D01*
X84613827Y-94024641D01*
X84613824Y-94024640D01*
X84415808Y-93964574D01*
X84415800Y-93964572D01*
X84209878Y-93944291D01*
X84209870Y-93944291D01*
X84003947Y-93964572D01*
X84003939Y-93964574D01*
X83805923Y-94024640D01*
X83623422Y-94122190D01*
X83463468Y-94253460D01*
X83463460Y-94253468D01*
X83332190Y-94413422D01*
X83234640Y-94595923D01*
X83174574Y-94793939D01*
X83174572Y-94793947D01*
X83154291Y-94999870D01*
X83154291Y-94999877D01*
X81500500Y-94999877D01*
X81500500Y-92459877D01*
X83154291Y-92459877D01*
X83174572Y-92665800D01*
X83174574Y-92665808D01*
X83234640Y-92863824D01*
X83234641Y-92863827D01*
X83234642Y-92863828D01*
X83332189Y-93046324D01*
X83463464Y-93206284D01*
X83623424Y-93337559D01*
X83805920Y-93435106D01*
X84003940Y-93495174D01*
X84003944Y-93495174D01*
X84003947Y-93495175D01*
X84209870Y-93515457D01*
X84209874Y-93515457D01*
X84209878Y-93515457D01*
X84415800Y-93495175D01*
X84415801Y-93495174D01*
X84415808Y-93495174D01*
X84613828Y-93435106D01*
X84796324Y-93337559D01*
X84956284Y-93206284D01*
X85087559Y-93046324D01*
X85185106Y-92863828D01*
X85245174Y-92665808D01*
X85265457Y-92459877D01*
X85694291Y-92459877D01*
X85714572Y-92665800D01*
X85714574Y-92665808D01*
X85774640Y-92863824D01*
X85774641Y-92863827D01*
X85774642Y-92863828D01*
X85872189Y-93046324D01*
X86003464Y-93206284D01*
X86163424Y-93337559D01*
X86345920Y-93435106D01*
X86543940Y-93495174D01*
X86543944Y-93495174D01*
X86543947Y-93495175D01*
X86749870Y-93515457D01*
X86749874Y-93515457D01*
X86749878Y-93515457D01*
X86955800Y-93495175D01*
X86955801Y-93495174D01*
X86955808Y-93495174D01*
X87153828Y-93435106D01*
X87336324Y-93337559D01*
X87496284Y-93206284D01*
X87627559Y-93046324D01*
X87725106Y-92863828D01*
X87785174Y-92665808D01*
X87805457Y-92459874D01*
X87785174Y-92253940D01*
X87725106Y-92055920D01*
X87627559Y-91873424D01*
X87496284Y-91713464D01*
X87336324Y-91582189D01*
X87153828Y-91484642D01*
X87153827Y-91484641D01*
X87153824Y-91484640D01*
X86955808Y-91424574D01*
X86955800Y-91424572D01*
X86749878Y-91404291D01*
X86749870Y-91404291D01*
X86543947Y-91424572D01*
X86543939Y-91424574D01*
X86345923Y-91484640D01*
X86163422Y-91582190D01*
X86003468Y-91713460D01*
X86003460Y-91713468D01*
X85872190Y-91873422D01*
X85774640Y-92055923D01*
X85714574Y-92253939D01*
X85714572Y-92253947D01*
X85694291Y-92459870D01*
X85694291Y-92459877D01*
X85265457Y-92459877D01*
X85265457Y-92459874D01*
X85245174Y-92253940D01*
X85185106Y-92055920D01*
X85087559Y-91873424D01*
X84956284Y-91713464D01*
X84796324Y-91582189D01*
X84613828Y-91484642D01*
X84613827Y-91484641D01*
X84613824Y-91484640D01*
X84415808Y-91424574D01*
X84415800Y-91424572D01*
X84209878Y-91404291D01*
X84209870Y-91404291D01*
X84003947Y-91424572D01*
X84003939Y-91424574D01*
X83805923Y-91484640D01*
X83623422Y-91582190D01*
X83463468Y-91713460D01*
X83463460Y-91713468D01*
X83332190Y-91873422D01*
X83234640Y-92055923D01*
X83174574Y-92253939D01*
X83174572Y-92253947D01*
X83154291Y-92459870D01*
X83154291Y-92459877D01*
X81500500Y-92459877D01*
X81500500Y-89919877D01*
X83154291Y-89919877D01*
X83174572Y-90125800D01*
X83174574Y-90125808D01*
X83234640Y-90323824D01*
X83234641Y-90323827D01*
X83234642Y-90323828D01*
X83332189Y-90506324D01*
X83463464Y-90666284D01*
X83623424Y-90797559D01*
X83805920Y-90895106D01*
X84003940Y-90955174D01*
X84003944Y-90955174D01*
X84003947Y-90955175D01*
X84209870Y-90975457D01*
X84209874Y-90975457D01*
X84209878Y-90975457D01*
X84415800Y-90955175D01*
X84415801Y-90955174D01*
X84415808Y-90955174D01*
X84613828Y-90895106D01*
X84796324Y-90797559D01*
X84956284Y-90666284D01*
X85087559Y-90506324D01*
X85185106Y-90323828D01*
X85245174Y-90125808D01*
X85265457Y-89919877D01*
X85694291Y-89919877D01*
X85714572Y-90125800D01*
X85714574Y-90125808D01*
X85774640Y-90323824D01*
X85774641Y-90323827D01*
X85774642Y-90323828D01*
X85872189Y-90506324D01*
X86003464Y-90666284D01*
X86163424Y-90797559D01*
X86345920Y-90895106D01*
X86543940Y-90955174D01*
X86543944Y-90955174D01*
X86543947Y-90955175D01*
X86749870Y-90975457D01*
X86749874Y-90975457D01*
X86749878Y-90975457D01*
X86955800Y-90955175D01*
X86955801Y-90955174D01*
X86955808Y-90955174D01*
X87153828Y-90895106D01*
X87336324Y-90797559D01*
X87496284Y-90666284D01*
X87627559Y-90506324D01*
X87725106Y-90323828D01*
X87785174Y-90125808D01*
X87805457Y-89919874D01*
X87785174Y-89713940D01*
X87725106Y-89515920D01*
X87627559Y-89333424D01*
X87496284Y-89173464D01*
X87336324Y-89042189D01*
X87153828Y-88944642D01*
X87153827Y-88944641D01*
X87153824Y-88944640D01*
X86955808Y-88884574D01*
X86955800Y-88884572D01*
X86749878Y-88864291D01*
X86749870Y-88864291D01*
X86543947Y-88884572D01*
X86543939Y-88884574D01*
X86345923Y-88944640D01*
X86163422Y-89042190D01*
X86003468Y-89173460D01*
X86003460Y-89173468D01*
X85872190Y-89333422D01*
X85774640Y-89515923D01*
X85714574Y-89713939D01*
X85714572Y-89713947D01*
X85694291Y-89919870D01*
X85694291Y-89919877D01*
X85265457Y-89919877D01*
X85265457Y-89919874D01*
X85245174Y-89713940D01*
X85185106Y-89515920D01*
X85087559Y-89333424D01*
X84956284Y-89173464D01*
X84796324Y-89042189D01*
X84613828Y-88944642D01*
X84613827Y-88944641D01*
X84613824Y-88944640D01*
X84415808Y-88884574D01*
X84415800Y-88884572D01*
X84209878Y-88864291D01*
X84209870Y-88864291D01*
X84003947Y-88884572D01*
X84003939Y-88884574D01*
X83805923Y-88944640D01*
X83623422Y-89042190D01*
X83463468Y-89173460D01*
X83463460Y-89173468D01*
X83332190Y-89333422D01*
X83234640Y-89515923D01*
X83174574Y-89713939D01*
X83174572Y-89713947D01*
X83154291Y-89919870D01*
X83154291Y-89919877D01*
X81500500Y-89919877D01*
X81500500Y-88834874D01*
X88121700Y-88834874D01*
X88140300Y-88964240D01*
X88194590Y-89083119D01*
X88194591Y-89083120D01*
X88194592Y-89083122D01*
X88280179Y-89181895D01*
X88390126Y-89252553D01*
X88390128Y-89252554D01*
X88426764Y-89263311D01*
X88515527Y-89289374D01*
X88515528Y-89289374D01*
X88646220Y-89289374D01*
X88646221Y-89289374D01*
X88771622Y-89252553D01*
X88881569Y-89181895D01*
X88967156Y-89083122D01*
X89021448Y-88964238D01*
X89040048Y-88834874D01*
X89021448Y-88705510D01*
X89017324Y-88696480D01*
X88967157Y-88586628D01*
X88967156Y-88586627D01*
X88967156Y-88586626D01*
X88881569Y-88487853D01*
X88771622Y-88417195D01*
X88771619Y-88417193D01*
X88672282Y-88388026D01*
X88646221Y-88380374D01*
X88515527Y-88380374D01*
X88390128Y-88417193D01*
X88280180Y-88487852D01*
X88280179Y-88487852D01*
X88280179Y-88487853D01*
X88277839Y-88490554D01*
X88194590Y-88586628D01*
X88140300Y-88705507D01*
X88121700Y-88834873D01*
X88121700Y-88834874D01*
X81500500Y-88834874D01*
X81500500Y-87379877D01*
X83154291Y-87379877D01*
X83174572Y-87585800D01*
X83174574Y-87585808D01*
X83234640Y-87783824D01*
X83234641Y-87783827D01*
X83234642Y-87783828D01*
X83332189Y-87966324D01*
X83463464Y-88126284D01*
X83623424Y-88257559D01*
X83805920Y-88355106D01*
X84003940Y-88415174D01*
X84003944Y-88415174D01*
X84003947Y-88415175D01*
X84209870Y-88435457D01*
X84209874Y-88435457D01*
X84209878Y-88435457D01*
X84415800Y-88415175D01*
X84415801Y-88415174D01*
X84415808Y-88415174D01*
X84613828Y-88355106D01*
X84796324Y-88257559D01*
X84956284Y-88126284D01*
X85087559Y-87966324D01*
X85185106Y-87783828D01*
X85245174Y-87585808D01*
X85245175Y-87585800D01*
X85265457Y-87379877D01*
X85694291Y-87379877D01*
X85714572Y-87585800D01*
X85714574Y-87585808D01*
X85774640Y-87783824D01*
X85774641Y-87783827D01*
X85774642Y-87783828D01*
X85872189Y-87966324D01*
X86003464Y-88126284D01*
X86163424Y-88257559D01*
X86345920Y-88355106D01*
X86543940Y-88415174D01*
X86543944Y-88415174D01*
X86543947Y-88415175D01*
X86749870Y-88435457D01*
X86749874Y-88435457D01*
X86749878Y-88435457D01*
X86955800Y-88415175D01*
X86955801Y-88415174D01*
X86955808Y-88415174D01*
X87153828Y-88355106D01*
X87336324Y-88257559D01*
X87496284Y-88126284D01*
X87627559Y-87966324D01*
X87725106Y-87783828D01*
X87785174Y-87585808D01*
X87785175Y-87585800D01*
X87805457Y-87379877D01*
X87805457Y-87379870D01*
X87785175Y-87173947D01*
X87785174Y-87173944D01*
X87785174Y-87173940D01*
X87725106Y-86975920D01*
X87627559Y-86793424D01*
X87496284Y-86633464D01*
X87336324Y-86502189D01*
X87153828Y-86404642D01*
X87153827Y-86404641D01*
X87153824Y-86404640D01*
X86955808Y-86344574D01*
X86955800Y-86344572D01*
X86749878Y-86324291D01*
X86749870Y-86324291D01*
X86543947Y-86344572D01*
X86543939Y-86344574D01*
X86345923Y-86404640D01*
X86163422Y-86502190D01*
X86003468Y-86633460D01*
X86003460Y-86633468D01*
X85872190Y-86793422D01*
X85774640Y-86975923D01*
X85714574Y-87173939D01*
X85714572Y-87173947D01*
X85694291Y-87379870D01*
X85694291Y-87379877D01*
X85265457Y-87379877D01*
X85265457Y-87379870D01*
X85245175Y-87173947D01*
X85245174Y-87173944D01*
X85245174Y-87173940D01*
X85185106Y-86975920D01*
X85087559Y-86793424D01*
X84956284Y-86633464D01*
X84796324Y-86502189D01*
X84613828Y-86404642D01*
X84613827Y-86404641D01*
X84613824Y-86404640D01*
X84415808Y-86344574D01*
X84415800Y-86344572D01*
X84209878Y-86324291D01*
X84209870Y-86324291D01*
X84003947Y-86344572D01*
X84003939Y-86344574D01*
X83805923Y-86404640D01*
X83623422Y-86502190D01*
X83463468Y-86633460D01*
X83463460Y-86633468D01*
X83332190Y-86793422D01*
X83234640Y-86975923D01*
X83174574Y-87173939D01*
X83174572Y-87173947D01*
X83154291Y-87379870D01*
X83154291Y-87379877D01*
X81500500Y-87379877D01*
X81500500Y-84839877D01*
X83154291Y-84839877D01*
X83174572Y-85045800D01*
X83174574Y-85045808D01*
X83234640Y-85243824D01*
X83234641Y-85243827D01*
X83234642Y-85243828D01*
X83332189Y-85426324D01*
X83463464Y-85586284D01*
X83623424Y-85717559D01*
X83805920Y-85815106D01*
X84003940Y-85875174D01*
X84003944Y-85875174D01*
X84003947Y-85875175D01*
X84209870Y-85895457D01*
X84209874Y-85895457D01*
X84209878Y-85895457D01*
X84415800Y-85875175D01*
X84415801Y-85875174D01*
X84415808Y-85875174D01*
X84613828Y-85815106D01*
X84796324Y-85717559D01*
X84956284Y-85586284D01*
X85087559Y-85426324D01*
X85185106Y-85243828D01*
X85245174Y-85045808D01*
X85259393Y-84901443D01*
X85265457Y-84839877D01*
X85694291Y-84839877D01*
X85714572Y-85045800D01*
X85714574Y-85045808D01*
X85774640Y-85243824D01*
X85774641Y-85243827D01*
X85774642Y-85243828D01*
X85872189Y-85426324D01*
X86003464Y-85586284D01*
X86163424Y-85717559D01*
X86345920Y-85815106D01*
X86543940Y-85875174D01*
X86543944Y-85875174D01*
X86543947Y-85875175D01*
X86749870Y-85895457D01*
X86749874Y-85895457D01*
X86749878Y-85895457D01*
X86955800Y-85875175D01*
X86955801Y-85875174D01*
X86955808Y-85875174D01*
X87153828Y-85815106D01*
X87336324Y-85717559D01*
X87496284Y-85586284D01*
X87627559Y-85426324D01*
X87725106Y-85243828D01*
X87785174Y-85045808D01*
X87795866Y-84937253D01*
X105295763Y-84937253D01*
X105324610Y-85273122D01*
X105325617Y-85284838D01*
X105325619Y-85284851D01*
X105394899Y-85626762D01*
X105502704Y-85958551D01*
X105502706Y-85958555D01*
X105647628Y-86275892D01*
X105647630Y-86275894D01*
X105827781Y-86574641D01*
X105827785Y-86574647D01*
X106040814Y-86850908D01*
X106040826Y-86850923D01*
X106240977Y-87056873D01*
X106283959Y-87101100D01*
X106352508Y-87157152D01*
X106554025Y-87321933D01*
X106554029Y-87321935D01*
X106554032Y-87321938D01*
X106847518Y-87510550D01*
X107160592Y-87664478D01*
X107160598Y-87664480D01*
X107160600Y-87664481D01*
X107160605Y-87664483D01*
X107489159Y-87781710D01*
X107489163Y-87781711D01*
X107489171Y-87781714D01*
X107828968Y-87860731D01*
X107828972Y-87860732D01*
X108102061Y-87892066D01*
X108175565Y-87900500D01*
X108175566Y-87900500D01*
X108437138Y-87900500D01*
X108437145Y-87900500D01*
X108665654Y-87887433D01*
X108698300Y-87885567D01*
X109042051Y-87826078D01*
X109042050Y-87826078D01*
X109042057Y-87826077D01*
X109269900Y-87759175D01*
X109376784Y-87727792D01*
X109376786Y-87727790D01*
X109376793Y-87727789D01*
X109698144Y-87591986D01*
X109698154Y-87591980D01*
X109698157Y-87591979D01*
X110001914Y-87420439D01*
X110001915Y-87420438D01*
X110001919Y-87420436D01*
X110284159Y-87215377D01*
X110541184Y-86979481D01*
X110769644Y-86715824D01*
X110966560Y-86427844D01*
X111129365Y-86119294D01*
X111255937Y-85794196D01*
X111344626Y-85456790D01*
X111394275Y-85111473D01*
X111404237Y-84762747D01*
X111374383Y-84415159D01*
X111305101Y-84073240D01*
X111197295Y-83741447D01*
X111116845Y-83565286D01*
X111052371Y-83424107D01*
X111052369Y-83424105D01*
X111047167Y-83415479D01*
X110872215Y-83125353D01*
X110659180Y-82849084D01*
X110659176Y-82849080D01*
X110659173Y-82849076D01*
X110416042Y-82598901D01*
X110145974Y-82378066D01*
X110145968Y-82378062D01*
X109852482Y-82189450D01*
X109539408Y-82035522D01*
X109539404Y-82035520D01*
X109539399Y-82035518D01*
X109539394Y-82035516D01*
X109210840Y-81918289D01*
X109210830Y-81918286D01*
X108871029Y-81839268D01*
X108871032Y-81839268D01*
X108524435Y-81799500D01*
X108524434Y-81799500D01*
X108262855Y-81799500D01*
X108193845Y-81803446D01*
X108001699Y-81814432D01*
X107657948Y-81873921D01*
X107323215Y-81972207D01*
X107323201Y-81972213D01*
X107001856Y-82108014D01*
X107001842Y-82108020D01*
X106698085Y-82279560D01*
X106415843Y-82484621D01*
X106158818Y-82720516D01*
X105930357Y-82984174D01*
X105930355Y-82984177D01*
X105733440Y-83272155D01*
X105646744Y-83436463D01*
X105570635Y-83580706D01*
X105539042Y-83661852D01*
X105444060Y-83905811D01*
X105355374Y-84243208D01*
X105355373Y-84243211D01*
X105305725Y-84588519D01*
X105305725Y-84588526D01*
X105305725Y-84588527D01*
X105295763Y-84937253D01*
X87795866Y-84937253D01*
X87799393Y-84901443D01*
X87805457Y-84839877D01*
X87805457Y-84839870D01*
X87785175Y-84633947D01*
X87785174Y-84633944D01*
X87785174Y-84633940D01*
X87725106Y-84435920D01*
X87627559Y-84253424D01*
X87496284Y-84093464D01*
X87336324Y-83962189D01*
X87153828Y-83864642D01*
X87153827Y-83864641D01*
X87153824Y-83864640D01*
X86955808Y-83804574D01*
X86955800Y-83804572D01*
X86749878Y-83784291D01*
X86749870Y-83784291D01*
X86543947Y-83804572D01*
X86543939Y-83804574D01*
X86345923Y-83864640D01*
X86163422Y-83962190D01*
X86003468Y-84093460D01*
X86003460Y-84093468D01*
X85872190Y-84253422D01*
X85774640Y-84435923D01*
X85714574Y-84633939D01*
X85714572Y-84633947D01*
X85694291Y-84839870D01*
X85694291Y-84839877D01*
X85265457Y-84839877D01*
X85265457Y-84839870D01*
X85245175Y-84633947D01*
X85245174Y-84633944D01*
X85245174Y-84633940D01*
X85185106Y-84435920D01*
X85087559Y-84253424D01*
X84956284Y-84093464D01*
X84796324Y-83962189D01*
X84613828Y-83864642D01*
X84613827Y-83864641D01*
X84613824Y-83864640D01*
X84415808Y-83804574D01*
X84415800Y-83804572D01*
X84209878Y-83784291D01*
X84209870Y-83784291D01*
X84003947Y-83804572D01*
X84003939Y-83804574D01*
X83805923Y-83864640D01*
X83623422Y-83962190D01*
X83463468Y-84093460D01*
X83463460Y-84093468D01*
X83332190Y-84253422D01*
X83234640Y-84435923D01*
X83174574Y-84633939D01*
X83174572Y-84633947D01*
X83154291Y-84839870D01*
X83154291Y-84839877D01*
X81500500Y-84839877D01*
X81500500Y-81489500D01*
X81521322Y-81432292D01*
X81574045Y-81401852D01*
X81589500Y-81400500D01*
X122623954Y-81400500D01*
X122681162Y-81421322D01*
G37*
%TD.AperFunction*%
%TD*%
M02*
